<?xml version="1.0" encoding="utf-8"?>
<svg xmlns="http://www.w3.org/2000/svg" viewBox="0 0 500 500">
  <path fill="#000000" opacity="1.000000" stroke="none" d="M 154.385 265.417 C 161.575 257.883 170.94 254.311 179.282 249.203 C 188.65 243.467 189.157 241.678 188.618 230.633 C 188.051 219.001 185.974 207.509 186.008 195.835 C 186.022 191.078 187.721 187.967 192.045 185.972 C 207.334 178.919 223.181 174.379 240.196 175.137 C 249.179 175.537 252.764 179.377 252.76 188.33 C 252.755 196.825 252.938 205.335 252.494 213.811 C 251.878 225.571 253.293 236.937 256.896 248.16 C 258.088 251.875 258.018 256.015 258.376 259.975 C 258.717 263.757 260.211 264.57 263.586 262.652 C 272.572 257.545 277.448 250.337 277.132 239.595 C 276.774 227.445 277.1 215.276 277.084 203.114 C 277.069 190.451 277.512 189.113 289.769 186.194 C 307.042 182.079 324.7 181.507 342.247 184.126 C 351.877 185.563 354.565 190.899 353.63 200.635 C 352.094 216.622 348.841 232.488 350.414 248.735 C 350.884 253.587 351.823 258.34 353.033 262.917 C 356.019 274.218 353.748 285.442 353.493 296.68 C 353.4 300.77 351.43 304.104 346.337 303.806 C 343.42 303.636 342.012 306.931 339.247 307.106 C 334.875 307.381 330.792 308.172 327.064 310.857 C 324.901 312.414 322.351 311.472 320.025 310.118 C 314.589 306.952 308.301 309.139 305.59 315.094 C 304.646 317.168 302.864 318.77 301.027 318.299 C 297.311 317.347 295.02 319.529 292.209 320.932 C 289.394 322.336 286.353 323.619 283.224 321.535 C 281.791 320.581 280.579 321.322 279.589 322.151 C 274.991 326.001 270.17 325.423 265.182 323.125 C 264.453 322.789 263.55 322.312 262.865 322.477 C 252.214 325.034 242.565 321.394 233.219 317.242 C 224.319 313.289 221.52 304.441 224.846 293.292 C 225.414 291.391 226.322 289.588 227.1 287.752 C 227.643 286.472 228.097 285.225 226.712 284.165 C 225.35 283.124 223.929 282.155 222.176 283.21 C 221.186 283.806 219.82 284.424 219.48 285.348 C 216.985 292.128 210.585 294.407 205.296 297.957 C 204.066 298.783 202.739 299.611 201.335 300.011 C 187.336 304.007 173.34 306.606 158.747 302.483 C 147.345 299.261 143.045 291.296 146.726 278.539 C 148.144 273.624 150.761 269.44 154.385 265.417 M 284.716 209.304 C 285.048 211.793 286.906 212.511 288.977 212.779 C 292.93 213.289 296.893 213.767 300.866 214.068 C 303.216 214.246 305.431 214.589 305.483 217.434 C 305.538 220.463 303.287 221.343 300.719 221.285 C 297.397 221.21 293.992 221.313 290.783 220.609 C 286.857 219.747 285.127 220.936 284.796 224.834 C 284.45 228.913 286.621 230.066 290.222 230.112 C 293.871 230.159 297.586 229.538 301.153 230.646 C 302.917 231.194 304.721 232.189 304.483 234.438 C 304.255 236.595 302.463 237.533 300.562 237.621 C 297.076 237.782 293.567 237.752 290.082 237.554 C 287.935 237.432 285.51 236.408 284.942 239.618 C 284.404 242.657 286.004 244.429 288.993 244.72 C 292.302 245.043 295.653 244.978 298.948 245.383 C 301.744 245.727 305.12 246.136 304.546 250.151 C 304.044 253.665 300.897 253.527 298.234 253.437 C 294.411 253.307 290.591 253.02 286.777 252.715 C 283.256 252.433 281.523 253.918 281.518 257.635 C 286.321 259.538 290.516 262.228 294.309 265.503 C 295.872 266.853 297.086 268.607 295.642 270.742 C 294.169 272.918 292.059 273.038 289.917 271.869 C 288.467 271.078 287.156 270.025 285.812 269.047 C 283.107 267.08 280.316 265.333 277.053 264.354 C 274.806 263.681 273.517 264.746 272.492 266.379 C 271.424 268.082 272.632 269.178 273.82 270.16 C 276.002 271.965 278.29 273.648 280.387 275.545 C 282.803 277.729 283.474 280.506 281.296 283.075 C 278.759 286.066 276.315 284.068 274.635 281.944 C 268.048 273.623 260.536 271.296 251.304 277.67 C 250.225 278.415 248.881 278.765 247.694 279.367 C 243.076 281.708 238.497 284.122 235.229 288.33 C 231.389 293.274 232.35 296.208 238.303 298.389 C 256.334 304.998 274.387 304.547 292.717 299.413 C 307.51 295.269 321.516 289.037 336.006 284.119 C 347.521 280.21 348.273 279.002 345.992 266.96 C 345.838 266.146 345.567 265.352 345.309 264.562 C 340.294 249.243 341.612 233.7 343.6 218.119 C 344.408 211.794 345.047 205.448 345.744 199.287 C 343.335 198.452 341.679 198.722 340.069 199.13 C 324.359 203.112 308.48 203.193 292.507 201.264 C 284.402 200.285 284.401 200.29 284.716 209.304 M 221.316 195.155 C 213.526 195.67 205.74 196.298 197.942 196.646 C 194.899 196.781 192.462 197.218 192.825 200.949 C 193.15 204.287 192.667 208.353 197.923 208.418 C 201.921 208.468 205.902 208.436 209.841 207.564 C 212.535 206.967 215.751 206.538 216.399 210.009 C 217.101 213.77 213.842 214.372 210.916 214.915 C 206.936 215.654 202.948 215.317 198.96 215.288 C 196.916 215.273 194.743 214.956 194.809 218.056 C 194.867 220.736 196.37 222.014 198.919 222.032 C 202.733 222.06 206.542 222.345 210.343 221.407 C 212.988 220.755 215.762 221.401 216.205 224.461 C 216.673 227.692 213.984 228.625 211.311 228.755 C 207.988 228.916 204.65 228.744 201.324 228.866 C 199.494 228.933 196.963 228.075 196.705 231.184 C 196.421 234.61 199.301 234.265 201.226 234.37 C 204.696 234.559 208.192 234.247 211.678 234.175 C 214.264 234.122 216.417 234.834 216.596 237.865 C 216.77 240.815 214.47 241.506 212.287 241.616 C 208.486 241.807 204.676 242.062 200.872 241.089 C 197.297 240.175 195.075 241.447 195.282 245.665 C 198.475 247.566 202.374 247.726 205.313 250.051 C 206.941 251.338 208.649 252.732 207.703 254.985 C 206.602 257.608 203.95 257.198 202.052 256.5 C 199.276 255.478 196.777 253.71 194.14 252.297 C 191.218 250.732 188.782 250.901 187.165 254.409 C 189.195 257.466 192.757 258.561 195.234 260.957 C 197.005 262.671 197.768 264.668 196.27 266.733 C 194.772 268.796 192.777 268.098 190.961 266.905 C 189.152 265.717 187.229 264.669 185.561 263.308 C 180.493 259.172 175.576 258.822 170.336 263.115 C 167.389 265.529 163.944 267.328 160.942 269.683 C 157.2 272.619 154.803 276.496 153.889 281.015 C 154.968 282.495 156.296 282.774 157.587 283.03 C 172.053 285.886 186.309 285.983 200.053 279.678 C 214.869 272.881 229.648 266.004 244.512 259.313 C 250.183 256.76 251.295 255.797 249.279 250.012 C 245.105 238.037 243.376 225.826 244.356 213.249 C 244.847 206.938 245.114 200.641 245.137 194.314 C 245.152 190.434 243.97 189.124 240.061 190.593 C 234.294 192.759 228.23 193.867 221.316 195.155 Z"/>
</svg>