<?xml version="1.0" encoding="utf-8"?>
<svg xmlns="http://www.w3.org/2000/svg" viewBox="0 0 500 500">
  <path fill="#000000" opacity="1.000000" stroke="none" d="M 246.02 321.456 C 240.471 318.989 235.696 316.041 231.235 312.482 C 225.581 307.973 222.809 301.854 221.144 295.153 C 220.079 290.868 223.227 287.462 228.533 286.506 C 238.289 284.748 246.294 288.659 252.917 295.095 C 257.407 299.457 262.069 303.783 266.145 309.84 C 264.576 298.71 262.705 288.653 260.418 278.672 C 258.494 270.28 257.15 269.138 248.914 267.795 C 236.774 265.816 224.585 263.892 214.371 256.175 C 209.535 252.521 205.433 248.229 203.046 242.538 C 200.835 237.271 202.525 234.371 208.058 233.268 C 224.535 229.983 237.9 236.451 250.179 246.469 C 250.556 246.776 250.956 247.056 251.845 247.725 C 252.484 243.225 249.501 239.767 249.74 235.69 C 249.919 232.641 248.74 229.498 248.077 226.416 C 246.337 218.324 242.865 215.372 234.54 213.865 C 226.609 212.429 218.251 213.721 210.734 209.444 C 201.504 204.192 195.006 196.778 191.402 186.89 C 189.808 182.514 191.546 179.659 196.132 179.096 C 209.537 177.451 220.995 181.775 230.727 190.973 C 231.45 191.657 232.066 192.462 232.824 193.1 C 233.706 193.842 234.69 194.461 236.209 195.547 C 233.203 185.179 229.578 176.202 220.202 170.365 C 213.268 166.049 209.301 158.779 205.347 151.865 C 202.584 147.037 199.784 142.14 199.372 136.242 C 199.117 132.592 199.656 129.257 201.26 126.133 C 203.173 122.406 206.718 121.512 210.254 122.895 C 226.49 129.25 239.358 142.561 237.831 162.354 C 236.862 174.901 240.309 186.627 246.543 197.893 C 247.159 192.129 247.558 186.332 248.439 180.609 C 249.888 171.191 252.534 162.149 259.594 155.228 C 263.432 151.465 267.961 152.164 271.004 156.688 C 274.644 162.1 275.148 168.277 274.299 174.444 C 272.331 188.739 266.1 201.34 257.944 213.046 C 255.739 216.21 254.729 219.275 255.598 223.24 C 256.908 229.223 257.563 235.329 259.694 241.152 C 260.612 243.659 261.31 246.191 263.489 248.745 C 264.585 242.746 265.174 237.103 266.949 231.637 C 269.743 223.037 273.991 215.599 280.689 209.504 C 285.932 204.733 292.843 205.685 296.114 212.021 C 297.708 215.106 298.937 218.421 298.787 222.05 C 298.267 234.604 294.993 245.743 284.377 253.9 C 278.618 258.324 274.434 264.663 267.874 268.237 C 266.339 269.073 266.466 270.447 266.846 271.723 C 269.786 281.583 271.14 291.786 273.55 302.953 C 277.219 293.174 282.519 285.54 288.568 278.351 C 290.664 275.859 293.092 273.861 295.892 272.465 C 299.527 270.653 303.539 270.722 306.819 273.117 C 309.653 275.185 309.338 278.681 308.872 281.835 C 306.974 294.667 299.843 304.441 290.568 312.947 C 287.626 315.646 284.716 318.38 281.772 321.076 C 277.3 325.172 276.595 330.103 277.21 336.024 C 278.48 348.243 279.313 360.541 277.803 372.838 C 277.533 375.039 277.246 377.608 274.541 377.717 C 271.431 377.843 271.057 374.821 270.799 372.677 C 270.284 368.393 270.243 364.048 270.107 359.724 C 269.871 352.256 269.971 344.799 269.413 337.312 C 268.974 331.41 266.214 328.202 261.329 326.809 C 256.223 325.352 251.355 323.353 246.02 321.456 M 243.145 311.559 C 249.272 316.546 257.061 317.853 264.436 322.184 C 259.889 309.014 242.649 293.354 230.364 295.466 C 232.947 301.991 236.652 307.372 243.145 311.559 M 280.68 245.569 C 285.038 241.392 286.276 235.519 288.281 230.25 C 289.514 227.008 290.252 222.991 289.223 219.169 C 288.915 218.026 288.848 216.767 287.556 216.343 C 285.976 215.825 285.244 217.07 284.303 218.042 C 279.661 222.839 277.222 228.983 275.32 235.031 C 273.696 240.192 272.797 245.854 272.959 251.696 C 276.784 251.032 277.566 247.399 280.68 245.569 M 224.768 160.842 C 226.515 162.142 228.296 163.019 228.093 159.614 C 227.683 152.727 226.116 146.13 220.813 141.259 C 218.163 138.826 215.969 135.372 211.512 135.155 C 210.306 138.267 210.371 141.078 211.869 143.848 C 215.182 149.971 218.779 155.882 224.768 160.842 M 218.329 241.994 C 216.415 242.108 214.431 241.878 212.661 243.031 C 220.35 251.984 234.777 258.354 244.647 256.776 C 237.292 249.182 229.329 243.716 218.329 241.994 M 216.128 200.536 C 220.813 202.023 225.19 204.54 230.744 205.073 C 226.258 196.631 218.438 193.137 211.147 189.052 C 208.851 187.765 206.473 186.429 203.722 186.326 C 202.377 186.275 200.902 186.449 200.183 187.724 C 199.371 189.164 200.453 190.271 201.416 191.185 C 205.517 195.077 210.016 198.381 216.128 200.536 M 296.744 291.587 C 298.183 288.093 300.354 284.765 299.588 279.285 C 287.222 289.254 283.769 302.934 278.21 315.391 C 285.578 308.645 292.088 301.306 296.744 291.587 M 257.652 183.287 C 256.748 188.22 255.669 193.151 257.317 198.692 C 264.185 183.042 266.62 169.922 263.734 163.782 C 258.931 169.23 258.835 175.988 257.652 183.287 Z"/>
</svg>