<?xml version="1.0" encoding="utf-8"?>
<svg xmlns="http://www.w3.org/2000/svg" viewBox="0 0 500 500">
  <path fill="#000000" opacity="1.000000" stroke="none" d="M 234.582 335.017 C 234.83 324.43 232.51 314.525 231.856 304.478 C 231.44 298.075 228.399 292.624 225.266 287.479 C 220.026 278.878 213.969 270.767 208.144 262.53 C 201.852 253.634 200.473 243.883 203.131 233.542 C 204.015 230.101 206.059 227.075 210.015 226.358 C 213.944 225.646 216.738 227.492 218.852 230.672 C 224.368 238.971 227.693 248.231 229.247 257.91 C 230.196 263.822 231.405 269.668 232.575 275.522 C 233 277.646 233.18 279.681 233.241 281.872 C 233.927 278.483 234.209 275.03 234.622 271.659 C 235.747 262.477 236.906 253.242 237.554 244.067 C 238.556 229.855 234.332 216.856 224.99 205.406 C 217.005 195.618 212.577 184.268 215.711 171.117 C 216.662 167.126 218.284 163.338 222.435 162.714 C 226.5 162.103 229.35 165.437 231.767 168.41 C 238.173 176.29 240.073 185.925 239.738 195.472 C 239.468 203.167 240.976 210.279 242.725 217.608 C 245.534 197.528 251.999 178.105 252.939 157.674 C 253.404 147.563 256.661 138.178 262.103 129.582 C 265.009 124.993 271.471 121.666 275.011 123.073 C 281.933 125.825 283.275 129.515 282.86 137.111 C 282.096 151.073 274.001 160.731 265.136 170.095 C 262.278 173.114 260.913 176.666 259.582 180.49 C 255.411 192.466 252.607 204.736 250.745 217.248 C 250.605 218.189 250.727 219.17 250.727 220.792 C 254.846 217.843 256.325 213.758 258.33 210.088 C 262.863 201.792 265.845 192.654 272.122 185.3 C 275.87 180.908 279.884 177.233 285.83 175.986 C 294.063 174.258 299.916 180.226 297.667 188.491 C 296.007 194.59 292.325 199.585 287.925 203.904 C 282.784 208.952 276.639 212.671 269.888 215.24 C 266.979 216.347 264.803 218.18 262.705 220.415 C 256.556 226.965 252.356 234.874 247.376 242.22 C 245.04 245.666 245.406 250.232 244.951 254.321 C 243.895 263.817 243.19 273.353 242.861 283.053 C 247.181 277.343 250.678 271.279 253.666 264.89 C 258.096 255.418 262.295 245.809 268.357 237.21 C 271.783 232.348 276.409 228.831 281.694 226.198 C 285.342 224.38 289.448 223.99 292.596 226.426 C 295.895 228.98 296.594 233.049 295.795 237.339 C 293.74 248.367 286.373 255.383 277.806 261.473 C 274.448 263.86 271.169 266.321 267.3 268.041 C 260.117 271.233 255.958 277.473 252.733 284.336 C 251.173 287.657 249.715 291.08 247.313 293.829 C 241.446 300.544 242.278 308.606 242.29 316.544 C 242.303 324.702 241.877 332.892 242.464 341.008 C 243.049 349.094 244.702 357.1 245.781 365.155 C 246.154 367.945 246.304 370.775 246.377 373.591 C 246.42 375.236 245.389 376.404 243.893 377.022 C 242.162 377.737 241.051 376.67 240.066 375.468 C 238.347 373.373 236.881 371.094 236.948 368.287 C 237.214 357.271 235.428 346.406 234.582 335.017 M 271.548 146.4 C 272.896 142.372 275.194 138.491 273.572 133.969 C 268.008 134.96 262.46 147.518 263.167 157.861 C 267.067 154.913 269.011 150.896 271.548 146.4 M 286.376 236.664 C 285.518 234.627 284.082 235.893 283.216 236.378 C 276.781 239.984 272.798 245.496 270.55 252.775 C 278.146 250.89 282.512 246.448 286.376 236.664 M 272.919 202.128 C 272.418 202.915 271.917 203.703 270.752 205.533 C 279.026 200.109 285.586 194.914 287.18 185.69 C 280.343 189.106 275.401 194.138 272.919 202.128 M 216.407 248.808 C 215.788 245.774 214.977 242.837 211.623 239.689 C 211.466 248.505 215.34 254.651 218.872 260.933 C 218.469 257.065 218.173 253.199 216.407 248.808 M 227.647 191.844 C 230.199 193.126 229.795 191.321 229.552 189.933 C 228.768 185.438 227.237 181.19 224.87 176.301 C 224.085 182.136 226.674 186.536 227.647 191.844 Z"/>
</svg>