<?xml version="1.0" encoding="utf-8"?>
<svg xmlns="http://www.w3.org/2000/svg" viewBox="0 0 500 500">
  <path fill="#000000" opacity="1.000000" stroke="none" d="M 231.485 252.181 C 228.831 243.753 229.637 235.6 230.656 227.514 C 231.568 220.277 232.811 213.067 234.24 205.912 C 236.832 192.938 242.143 181.084 249.038 169.795 C 256.722 157.213 266.5 146.322 276.215 135.423 C 281.92 129.023 289.459 124.495 296.548 119.669 C 301.194 116.506 304.425 118.394 306.144 124.537 C 307.993 131.145 308.698 138.06 308.569 144.75 C 308.445 151.151 309.022 157.535 308.592 164.013 C 307.361 182.54 299.292 198.007 289.599 213.033 C 280.059 227.821 266.32 238.386 252.985 249.345 C 250.641 251.272 248.543 253.372 247.013 255.977 C 240.53 267.015 230.828 275.844 225.252 287.467 C 222.891 292.39 220.666 297.397 218.588 302.473 C 216.361 307.914 212.928 312.862 210.01 318.018 C 209.048 319.716 207.489 321.107 207.088 323.7 C 210.463 323.756 211.506 321.421 212.445 319.309 C 218.519 305.658 226.452 293.162 236.615 282.263 C 252.301 265.44 269.485 250.52 290.516 240.399 C 302.262 234.747 314.234 230.028 326.917 227.093 C 327.403 226.981 327.875 226.715 328.358 226.703 C 332.79 226.59 337.981 225.068 341.047 229.081 C 344.098 233.075 341.271 237.579 339.918 241.81 C 335.869 254.475 329.109 265.595 321.403 276.341 C 314.673 285.727 306.105 292.963 296.93 299.641 C 282.59 310.078 267.026 317.997 249.83 322.683 C 240.831 325.135 231.72 326.814 222.524 328.248 C 214.902 329.438 208.032 332.032 201.866 337.306 C 190.72 346.837 181.869 358.239 174.185 370.414 C 171.369 374.877 168.375 378.129 164.075 380.608 C 162.308 381.627 160.387 382.665 158.603 380.849 C 156.963 379.179 157.613 377.33 158.44 375.352 C 161.902 367.069 168.734 361.134 173.332 353.626 C 181.044 341.033 185.167 327.336 186.573 312.791 C 187.02 308.177 185.464 303.752 183.302 299.556 C 173.613 280.746 167.569 260.792 166.023 239.694 C 165.143 227.67 167.503 215.768 170.763 204.258 C 175.103 188.936 180.673 174.018 188.043 159.814 C 189.582 156.848 192.268 154.726 193.344 151.448 C 193.846 149.917 195.425 149.723 197.155 150.296 C 200.648 151.453 202.597 154.153 204.112 157.105 C 211.934 172.343 216.322 188.574 218.333 205.569 C 219.332 214.003 220.386 222.385 220.009 230.896 C 219.353 245.679 217.929 260.406 214.669 274.824 C 212.558 284.16 207.923 292.666 203.237 301.008 C 199.087 308.397 194.902 315.754 192.047 323.779 C 191.425 325.531 190.963 327.234 191.769 330.404 C 196.241 323.782 200.444 318.118 204.03 312.087 C 207.416 306.391 210.01 300.23 213.213 294.417 C 218.107 285.534 223.034 276.658 228.323 268.009 C 231.307 263.13 233.391 258.356 231.485 252.181 M 237.251 238.786 C 237.437 242.747 236.246 246.838 238.577 252.034 C 239.417 250.531 239.882 249.825 240.225 249.064 C 245.009 238.455 252.128 228.794 255.293 217.637 C 259.171 203.967 265.429 191.393 270.701 178.363 C 272.385 174.202 274.307 170.138 276.156 166.045 C 276.815 164.587 277.843 163.543 279.616 163.715 C 281.759 163.922 281.999 165.651 282.521 167.255 C 282.973 168.646 282.485 169.893 282.279 171.181 C 279.778 186.807 270.95 200.126 266.229 214.969 C 264.246 221.206 260.567 226.89 259.001 233.382 C 263.902 228.377 269.406 223.932 273.69 218.759 C 282.124 208.573 289.416 197.347 294.931 185.19 C 300.282 173.397 300.121 160.637 300.614 148.077 C 300.795 143.493 300.664 138.797 299.622 134.21 C 299.047 131.68 298.278 130.457 295.666 132.278 C 290.776 135.688 286.098 139.279 282.272 143.953 C 277.019 150.368 271.801 156.847 266.082 162.835 C 255.031 174.407 249.066 188.539 244.027 203.378 C 240.204 214.637 240.069 226.493 237.251 238.786 M 326.626 253.061 C 330.006 247.693 332.024 241.778 334.26 235.088 C 310.44 237.199 292.021 250.368 272.958 261.278 C 252.372 273.059 238.351 291.696 225.466 312.378 C 232.226 309.518 235.912 304.32 240.956 300.976 C 253.295 292.795 265.734 284.762 278.184 276.749 C 282.515 273.962 286.915 271.256 291.439 268.801 C 294.241 267.281 297.848 266.141 299.991 269.223 C 302.622 273.007 298.631 274.17 296.27 275.81 C 285.408 283.357 273.239 288.757 262.783 297.069 C 252.882 304.94 242.152 311.766 230.795 319.749 C 238.315 317.089 244.577 314.349 251.112 312.673 C 264.385 309.268 276.269 303.09 287.095 295.015 C 302.489 283.531 316.121 270.219 326.626 253.061 M 204.554 181.899 C 204.007 174.701 201.028 168.463 196.766 162.314 C 187.666 181.928 180.409 201.863 176.958 223.069 C 174.477 238.313 180.155 277.485 185.982 285.045 C 187.662 278.852 186.2 272.541 186.281 266.278 C 186.482 250.807 187.048 235.376 188.578 219.983 C 189.069 215.035 189.589 210.081 190.394 205.178 C 190.682 203.423 191.801 201.482 194.068 201.821 C 196.298 202.155 196.025 204.273 195.965 205.858 C 195.799 210.17 195.249 214.475 195.229 218.785 C 195.131 239.425 195.126 260.066 195.167 280.707 C 195.176 285 194.733 289.356 196.254 293.597 C 213.074 257.668 213.568 220.51 204.554 181.899 Z"/>
</svg>