<?xml version="1.0" encoding="utf-8"?>
<svg xmlns="http://www.w3.org/2000/svg" viewBox="0 0 500 500">
  <path fill="#000000" opacity="1.000000" stroke="none" d="M 362.097 372.905 C 348.747 377.037 335.548 380.306 321.881 381.404 C 307.623 382.549 293.659 385.232 280.084 389.796 C 271.815 392.576 263.808 390.988 255.758 388.671 C 247.402 386.266 240.348 381.279 232.656 377.564 C 227.678 375.159 222.374 373.704 217.379 370.94 C 207.229 365.319 197.309 359.286 187.189 353.623 C 166.949 342.297 148.339 328.352 128.809 315.9 C 117.709 308.822 107.599 300.584 97.089 292.836 C 84.969 283.897 73.599 273.823 64.009 262.177 C 59.469 256.663 57.169 249.367 53.379 243.157 C 45.639 230.477 44.619 216.727 45.519 202.367 C 45.829 197.467 45.399 192.417 46.639 187.677 C 51.869 167.837 61.909 150.487 76.929 136.727 C 82.339 131.767 89.089 127.307 96.949 125.227 C 102.729 123.697 108.139 120.627 113.569 117.937 C 119.639 114.917 126.459 115.097 132.759 112.927 C 147.069 108.007 161.839 108.287 176.759 109.407 C 185.699 110.077 194.679 110.087 203.349 112.607 C 210.469 114.667 217.669 116.397 224.661 119.067 C 229.623 120.957 235.343 120.897 240.672 122.237 C 247.79 124.037 254.397 126.717 261.028 129.917 C 280.617 139.357 298.849 151.157 317.68 161.887 C 326.867 167.117 336.715 171.447 345.107 177.867 C 352.063 183.197 360.38 186.527 366.794 192.197 C 378.967 202.977 391.839 212.977 402.823 225.167 C 415.856 239.627 428.968 253.987 439.935 270.103 C 449.272 283.822 453.91 299.309 454.709 315.769 C 455.121 324.246 452.636 332.535 449.529 340.356 C 447.985 344.242 444.319 347.232 440.742 349.536 C 433.614 354.126 426.059 357.969 417.702 359.911 C 416.579 360.172 415.242 360.643 414.279 360.282 C 406.591 357.404 400.333 361.588 393.788 364.264 C 388.989 366.227 384.197 367.635 378.863 367.585 C 372.949 367.53 367.735 370.536 362.097 372.905 M 351.496 196.557 C 346.092 191.527 339.964 188.997 332.322 189.127 C 319.287 189.347 306.235 189.277 293.199 189.187 C 282.776 189.117 272.272 187.847 262.097 190.497 C 253.472 192.747 245.084 195.967 236.713 199.087 C 232.318 200.727 227.321 199.387 223.241 202.187 C 221.341 203.497 219.509 205.017 217.419 205.917 C 211.159 208.617 204.609 210.727 198.479 213.697 C 192.069 216.807 186.049 220.687 179.789 224.117 C 178.099 225.037 176.159 226.307 174.259 224.557 C 172.889 223.297 171.579 221.567 172.779 219.727 C 178.219 211.437 183.309 202.877 191.549 196.837 C 197.829 192.217 204.729 188.687 211.529 184.987 C 224.225 178.077 237.606 172.457 251.753 169.947 C 266.139 167.397 280.708 165.057 295.482 165.577 C 296.8 165.627 298.518 166.257 299.406 164.507 C 299.155 163.147 298.228 162.477 297.196 161.877 C 290.765 158.147 284.611 153.757 278.048 150.507 C 271.934 147.477 267.263 141.277 257.869 143.847 C 248.469 146.417 237.84 144.127 227.834 144.977 C 222.634 145.407 217.569 142.897 212.369 145.117 C 207.149 147.337 201.489 147.747 195.879 148.457 C 186.679 149.607 177.589 151.727 169.259 155.807 C 159.839 160.407 152.199 167.737 143.889 174.017 C 139.119 177.617 134.509 181.437 129.629 184.857 C 127.509 186.337 124.929 186.507 122.779 184.377 C 120.819 182.457 121.049 180.317 121.899 177.947 C 127.199 163.187 136.069 151.147 148.879 141.997 C 156.989 136.207 165.039 131.187 175.579 130.197 C 183.669 129.427 191.819 127.077 200.329 123.927 C 198.979 123.227 198.439 122.797 197.839 122.667 C 186.379 120.187 174.869 118.457 163.049 118.767 C 155.439 118.967 147.409 118.537 140.559 121.117 C 131.409 124.577 121.649 124.777 112.529 128.777 C 103.849 132.587 95.069 136.467 87.459 141.687 C 72.569 151.877 62.649 166.537 57.519 183.867 C 54.469 194.177 53.099 204.937 54.779 215.777 C 56.049 223.937 58.659 231.527 62.159 239.177 C 66.019 247.607 71.679 254.667 78.009 260.29 C 88.459 269.582 98.959 278.957 109.909 287.782 C 123.749 298.933 139.689 306.873 153.119 318.501 C 159.189 323.761 166.659 327.28 173.609 331.423 C 184.389 337.848 195.419 343.904 205.919 350.709 C 215.089 356.654 224.897 361.337 234.169 367.025 C 239.121 370.062 244.932 371.697 251.02 374.242 C 250.481 372.38 250.205 371.287 249.85 370.22 C 246.454 360.023 245.65 349.742 249.301 339.463 C 252.464 330.558 258.119 323.123 264.233 316.113 C 267.614 312.235 271.759 308.927 274.377 304.482 C 278.418 297.619 283.978 292.22 290.217 287.617 C 299.543 280.737 309.618 275.274 320.542 270.982 C 329.319 267.534 338.447 266.137 347.402 263.884 C 351.47 262.86 355.788 262.077 360.066 261.489 C 369.498 260.193 379.394 262.442 388.417 257.846 C 389.335 257.379 390.74 257.629 391.863 257.842 C 397.709 258.95 403.495 260.641 409.388 261.159 C 413.528 261.524 417.323 264.059 422.407 263.497 C 415.962 255.366 410.965 248.267 400.069 245.937 C 386.975 243.137 373.875 242.627 360.783 241.947 C 351.49 241.467 342.052 243.357 332.707 244.437 C 325.01 245.317 316.937 245.417 309.794 247.977 C 302.108 250.747 294.119 251.777 286.362 253.707 C 279.67 255.364 272.872 257.086 266.406 259.204 C 254.318 263.164 242.554 268.26 231.421 274.604 C 229.129 275.91 226.701 277.167 223.984 275.663 C 223.229 273.773 223.796 272.058 224.018 270.249 C 224.677 264.884 229.465 263.042 232.44 259.627 C 242.543 248.027 254.432 238.797 267.536 230.767 C 283.834 220.767 301.899 216.567 320.304 214.067 C 335.946 211.937 351.656 213.867 367.2 217.067 C 371.958 218.047 376.01 221.287 382.465 221.247 C 373.048 210.927 363.534 202.787 351.496 196.557 M 346.973 367.652 C 351.094 367.702 354.671 365.714 358.419 364.467 C 367.375 361.487 376.064 357.527 385.905 358.566 C 389.058 358.899 391.869 357.174 394.128 355.362 C 399.895 350.734 405.883 348.052 413.395 350.503 C 414.523 350.871 416.078 350.453 417.277 349.987 C 421.284 348.43 425.197 346.628 429.189 345.027 C 433.756 343.196 436.763 339.857 439.107 335.635 C 445.834 323.519 445.415 311.377 441.525 298.25 C 436.595 281.61 425.201 273.213 409.51 269.453 C 399.277 267.001 388.913 266.412 378.222 267.88 C 366.96 269.426 355.39 268.514 344.337 272.181 C 341.854 273.004 339.545 274.574 336.722 274.351 C 327.408 273.613 319.946 279.189 312.083 282.529 C 302.886 286.435 295.092 293.194 287.551 300.042 C 283.654 303.58 280.083 307.062 277.892 311.803 C 277.282 313.122 276.209 313.841 275.283 314.741 C 268.81 321.03 263.54 328.269 259.11 336.052 C 257.43 339.003 254.872 341.829 254.914 345.509 C 255.032 355.984 254.578 366.342 262.474 375.223 C 267.766 381.174 271.325 382.811 279.021 380.725 C 287.459 378.437 295.763 375.044 304.586 374.734 C 318.779 374.233 332.383 370.654 346.973 367.652 M 346.943 234.467 C 349.317 233.417 351.852 233.817 354.324 233.607 C 365.655 232.667 376.851 235.547 388.637 235.017 C 341.433 208.817 271.093 225.937 248.677 255.63 C 250.469 256.952 251.74 255.481 253.17 254.837 C 263.012 250.417 273.504 247.727 283.826 245.047 C 291.48 243.057 299.462 241.387 307.558 240.767 C 313.971 240.277 320.04 236.747 326.765 238.117 C 328.901 238.557 330.806 238.277 332.713 237.127 C 336.84 234.637 341.48 234.537 346.943 234.467 M 232.637 190.647 C 245.702 187.847 258.198 182.497 271.6 181.347 C 281.788 180.477 292.017 179.157 302.286 180.327 C 308.621 181.057 314.978 179.987 322.285 181.997 C 320.648 178.037 318.55 176.077 316.354 175.837 C 311.588 175.307 307.305 172.927 302.269 173.237 C 293.837 173.767 285.358 173.037 276.919 174.317 C 264.466 176.217 252.119 177.557 239.876 181.657 C 228.086 185.597 217.839 191.967 206.879 197.177 C 202.009 199.497 196.939 201.907 193.339 206.337 C 206.719 202.117 218.989 195.677 232.637 190.647 M 180.949 143.587 C 187.869 142.067 194.989 141.407 201.869 140.047 C 210.659 138.317 219.199 136.567 228.178 137.667 C 232.624 138.217 236.743 136.367 241.299 135.937 C 240.313 133.737 238.967 133.147 237.602 132.507 C 231.039 129.427 224.236 129.167 217.309 130.827 C 215.309 131.307 213.529 131.787 212.369 129.277 C 211.419 131.717 209.709 132.607 207.239 132.377 C 205.089 132.177 202.969 132.367 200.809 132.877 C 189.549 135.527 178.229 137.967 166.979 140.657 C 165.129 141.097 163.399 141.947 161.739 143.287 C 156.049 147.907 149.209 150.837 144.319 156.837 C 141.989 159.707 139.719 162.487 138.059 166.057 C 146.279 164.637 151.249 157.887 157.509 153.527 C 164.529 148.627 172.089 145.847 180.949 143.587 Z"/>
  <path fill="#000000" opacity="1.000000" stroke="none" d="M 75.879 246.967 C 68.649 241.267 64.989 233.867 63.359 225.337 C 62.999 223.467 62.999 221.437 65.239 220.787 C 67.479 220.137 68.359 221.707 69.099 223.627 C 71.709 230.357 73.939 237.257 78.659 243.007 C 80.989 245.847 78.529 246.587 75.879 246.967 Z"/>
  <path fill="#000000" opacity="1.000000" stroke="none" d="M 96.079 180.317 C 98.489 179.307 99.419 180.617 100.309 182.337 C 97.409 186.997 93.299 190.917 91.169 196.217 C 90.659 197.487 88.999 199.387 86.789 198.427 C 84.499 197.437 85.039 195.437 85.589 193.727 C 87.379 188.117 90.199 183.247 96.079 180.317 Z"/>
  <path fill="#000000" opacity="1.000000" stroke="none" d="M 188.149 323.962 C 186.899 320.538 185.429 317.483 187.649 314.296 C 198.589 323.054 198.879 323.403 201.389 330.591 C 195.549 331.455 191.889 327.972 188.149 323.962 Z"/>
  <path fill="#000000" opacity="1.000000" stroke="none" d="M 91.119 168.667 C 90.019 169.457 89.239 170.077 88.399 170.597 C 87.069 171.427 85.749 173.067 84.089 171.347 C 82.419 169.617 84.269 168.507 84.989 167.107 C 87.399 162.417 90.689 159.467 96.569 159.927 C 96.589 164.357 93.519 166.107 91.119 168.667 Z"/>
  <path fill="#000000" opacity="1.000000" stroke="none" d="M 169.609 312.086 C 164.509 310.001 161.579 306.715 161.429 300.661 C 165.989 302.476 168.729 305.642 171.739 308.285 C 173.969 310.257 171.779 311.335 169.609 312.086 Z"/>
  <path fill="#000000" opacity="1.000000" stroke="none" d="M 370.599 319.641 C 374.247 319.182 375.739 321.041 376.989 323.689 C 378.364 326.602 376.924 328.193 375.049 330.103 C 373.028 332.163 372.197 335.17 369.038 336.409 C 365.942 337.624 362.998 340.985 359.847 337.321 C 356.855 333.842 357.403 329.537 359.41 325.755 C 361.612 321.605 365.848 320.4 370.599 319.641 Z"/>
  <path fill="#000000" opacity="1.000000" stroke="none" d="M 317.396 309.079 C 323.364 303.988 330.569 304.774 335.025 310.646 C 336.15 312.129 336.235 313.949 335.4 315.359 C 334.286 317.24 332.48 318.754 330.03 318.112 C 328.036 317.588 326.234 317.6 324.188 318.029 C 318.289 319.268 315.35 315.529 317.396 309.079 Z"/>
  <path fill="#000000" opacity="1.000000" stroke="none" d="M 280.48 348.862 C 279.39 345.669 283.22 336.962 285.756 336.038 C 288.038 335.205 292.692 338.755 292.57 341.234 C 292.408 344.536 284.213 350.026 280.48 348.862 Z"/>
  <path fill="#000000" opacity="1.000000" stroke="none" d="M 371.24 292.309 C 371.729 293.707 371.71 294.675 370.678 295.295 C 369.141 296.22 367.232 297.911 365.76 296.306 C 363.465 293.803 358.947 293.719 358.329 289.607 C 357.984 287.306 363.601 284.028 365.9 285.299 C 368.479 286.724 371.253 288.262 371.24 292.309 Z"/>
  <path fill="#000000" opacity="1.000000" stroke="none" d="M 420.675 309.305 C 419.465 313.431 415.564 314.207 412.577 311.001 C 409.769 307.988 409.135 304.191 409.578 299.675 C 414.959 301.508 418.776 304.035 420.675 309.305 Z"/>
  <path fill="#000000" opacity="1.000000" stroke="none" d="M 322.156 353.106 C 324.014 352.908 325.547 352.616 326.951 352.922 C 328.524 353.265 330.266 353.926 330.602 355.847 C 331.037 358.328 328.837 358.157 327.414 358.755 C 326.653 359.074 325.886 359.418 325.198 359.867 C 323.117 361.226 320.962 362.446 319.4 359.398 C 317.993 356.65 318.196 354.235 322.156 353.106 Z"/>
  <path fill="#000000" opacity="1.000000" stroke="none" d="M 413.684 333.11 C 410.401 335.646 407.097 337.344 402.943 337.246 C 401.794 334.427 402.006 332.158 405.268 331.531 C 408.164 330.975 411.573 328.287 413.684 333.11 Z"/>
</svg>