<?xml version="1.0" encoding="utf-8"?>
<svg xmlns="http://www.w3.org/2000/svg" viewBox="0 0 500 500">
  <path fill="#000000" opacity="1.000000" stroke="none" d="M 283.282 268.654 C 287.9 263.535 290.577 257.581 293.823 252.036 C 297.028 246.561 300.699 241.424 304.162 236.139 C 305.228 234.512 306.803 233.146 308.352 231.922 C 313.26 228.046 317.313 229.323 317.64 235.385 C 317.994 241.939 319.569 248.213 321.041 254.452 C 322.608 261.095 321.772 267.884 323.478 274.491 C 325.002 280.389 326.823 285.846 331.13 290.411 C 334.43 293.908 333.47 295.02 329.572 297.802 C 322.496 302.854 314.285 302.084 306.556 302.829 C 289.569 304.465 272.491 305.785 255.438 305.941 C 237.625 306.103 220.231 308.679 202.847 311.945 C 202.209 312.065 201.604 312.364 200.493 312.75 C 205.573 317.675 211.885 317.316 217.746 317.827 C 228.146 318.734 238.642 318.714 248.992 319.96 C 254.554 320.629 260.148 320.644 265.721 321.399 C 273.464 322.448 278.817 326.77 283.958 331.696 C 286.302 333.942 284.79 338.881 281.617 341.268 C 273.848 347.113 264.633 347.846 255.433 349.176 C 238.541 351.618 221.569 350.49 204.647 351.221 C 183.318 352.142 161.897 351.239 140.661 354.427 C 136.151 355.103 131.972 357.908 126.493 356.641 C 127.586 351.523 131.27 349.847 135.445 348.583 C 150.689 343.969 166.408 343.262 182.158 342.959 C 195.098 342.71 208.065 343.143 220.977 342.463 C 236.854 341.627 252.649 339.646 268.229 336.31 C 269.637 336.009 270.904 335.045 272.619 334.2 C 266.299 330.539 259.513 331.11 253.113 330.403 C 237.959 328.729 222.716 327.872 207.559 326.219 C 202.25 325.641 196.661 325.353 192.125 321.444 C 189.168 318.896 187.745 315.99 188.287 312.297 C 188.827 308.62 190.847 305.948 194.529 304.575 C 206.135 300.246 218.335 298.678 230.437 296.592 C 250.941 293.057 270.254 287.158 283.282 268.654 Z"/>
  <path fill="#000000" opacity="1.000000" stroke="none" d="M 116.701 278.446 C 120.784 268.572 128.236 261.356 133.389 252.657 C 143.673 235.295 156.006 219.403 168.241 203.428 C 172.747 197.544 178.056 192.511 184.18 188.45 C 192.061 183.224 198.599 184.491 203.899 192.351 C 209.568 200.756 215.544 208.852 222.533 216.235 C 227.391 221.368 227.716 221.27 232.327 216.324 C 244.753 202.994 254.169 187.476 264.855 172.873 C 270.912 164.596 277.581 156.718 285.106 149.648 C 296.803 138.658 307.771 141.938 315.442 155.261 C 329.175 179.111 341.429 203.878 357.329 226.382 C 366.07 238.753 373.307 251.959 381.43 264.657 C 382.73 266.691 384.631 269.446 382.244 271.418 C 379.585 273.614 376.776 271.889 374.947 269.461 C 370.549 263.625 366.285 257.686 362.055 251.726 C 350.781 235.839 339.758 219.826 330.554 202.569 C 324.627 191.458 318.495 180.384 311.074 170.124 C 308.524 166.599 308.172 162.032 305.523 158.457 C 301.456 152.968 298.58 153.401 293.252 157.641 C 276.914 170.644 267.906 189.236 255.441 205.182 C 249.693 212.537 244.645 220.338 239.011 227.738 C 235.349 232.549 229.782 233.876 224.382 231.058 C 215.091 226.209 209.132 217.998 203.356 209.671 C 201.941 207.63 200.97 205.286 199.697 203.139 C 194.637 194.606 188.972 193.617 182.751 201.535 C 168.954 219.094 155.231 236.798 143.739 256.007 C 138.941 264.028 133.044 271.186 127.831 278.863 C 126.331 281.072 124.426 282.581 121.892 283.064 C 118.644 283.682 116.112 283.035 116.701 278.446 Z"/>
</svg>