<?xml version="1.0" encoding="utf-8"?>
<svg xmlns="http://www.w3.org/2000/svg" viewBox="0 0 500 500">
  <path fill="#000000" opacity="1.000000" stroke="none" d="M 198.688 310.534 C 194.042 307.601 195.78 304.826 198.567 302.376 C 204.803 296.893 211.758 292.226 216.806 285.427 C 220.941 279.858 225.147 274.374 227.65 267.748 C 225.41 266.64 224.65 268.32 223.586 269.179 C 217.897 273.772 212.44 278.719 205.463 281.379 C 202.942 282.341 200.183 283.423 198.457 280.199 C 196.8 277.105 198.976 275.203 201.083 273.47 C 211.171 265.177 220.341 256.014 227.247 244.858 C 228.889 242.205 231.402 239.706 231.303 236.008 C 228.587 235.872 227.7 237.972 226.328 239.241 C 222.022 243.225 217.357 246.662 212.076 249.25 C 209.12 250.699 206.086 251.292 204.155 248.034 C 202.225 244.779 204.852 243.102 207.113 241.154 C 219.314 230.644 228.91 218.058 237.052 203.454 C 233.663 203.112 232.609 205.17 231.336 206.691 C 227.967 210.715 224.037 213.978 219.16 216.001 C 216.517 217.098 213.775 217.518 212.096 214.623 C 210.555 211.964 212.633 210.298 214.496 208.822 C 230.853 195.856 241.816 179.464 246.272 158.92 C 246.412 158.273 246.69 157.656 246.887 157.021 C 247.661 154.531 248.703 152.021 251.791 152.264 C 254.952 152.514 255.425 155.457 255.868 157.841 C 256.998 163.929 258.766 169.8 261.441 175.363 C 267.69 188.359 277.311 198.693 287.837 208.266 C 290.158 210.377 292.762 212.578 290.514 215.781 C 288.438 218.74 285.407 217.258 282.846 215.911 C 277.649 213.178 273.121 209.534 268.919 205.461 C 268.119 204.685 267.543 203.499 265.82 203.77 C 264.523 205.735 265.949 207.581 266.792 209.078 C 274.047 221.968 282.799 233.585 295.526 241.677 C 297.675 243.044 300.136 244.571 298.549 247.572 C 297.142 250.231 294.381 250.951 291.603 250.052 C 285.175 247.974 279.474 244.549 274.694 239.761 C 272.245 237.307 269.617 235.182 266.115 232.957 C 266.355 234.277 266.299 234.978 266.597 235.46 C 275.584 249.971 285.006 264.099 300.9 272.133 C 302.846 273.117 304.423 274.19 304.035 276.607 C 303.618 279.211 301.57 280.059 299.32 280.285 C 295.55 280.662 292.108 279.322 288.758 277.806 C 282.234 274.854 276.096 271.197 269.833 267.502 C 274.874 276.327 281.678 283.641 288.97 290.538 C 292.614 293.985 296.74 296.821 301.145 299.211 C 303.503 300.489 304.665 302.294 304.012 304.921 C 303.334 307.651 301.194 308.28 298.653 308.417 C 295.577 308.582 292.725 307.918 289.912 306.766 C 278.681 302.162 268.415 296.2 260.688 286.519 C 259.686 285.264 258.631 283.877 256.535 283.265 C 255.423 287.191 256.048 291.134 256.052 295.017 C 256.068 309.661 257.628 324.265 257.155 338.927 C 256.926 346.039 253.514 348.872 246.519 347.354 C 242.083 346.392 242.551 342.391 242.836 339.689 C 243.555 332.88 243.338 326.078 243.587 319.279 C 243.964 308.968 244.253 298.653 244.489 288.338 C 244.529 286.589 245.07 284.647 243.1 282.65 C 239.82 284.741 237.548 287.982 234.984 290.824 C 227.973 298.595 220.037 305.037 210.24 308.995 C 206.638 310.45 203.001 311.495 198.688 310.534 Z"/>
</svg>