<?xml version="1.0" encoding="utf-8"?>
<svg xmlns="http://www.w3.org/2000/svg" viewBox="0 0 500 500" xmlns:bx="https://boxy-svg.com">
  <defs>
    <style bx:fonts="Gaegu">@import url(https://fonts.googleapis.com/css2?family=Gaegu%3Aital%2Cwght%400%2C300%3B0%2C400%3B0%2C700&amp;display=swap);</style>
    <filter id="outline-filter-0" bx:preset="outline 1 0.5 #000" color-interpolation-filters="sRGB" x="-50%" y="-50%" width="200%" height="200%">
      <feMorphology in="SourceAlpha" result="dilated" operator="dilate" radius="0.5"/>
      <feFlood flood-color="#000" result="flood"/>
      <feComposite in="flood" in2="dilated" operator="in" result="outline"/>
      <feMerge>
        <feMergeNode in="outline"/>
        <feMergeNode in="SourceGraphic"/>
      </feMerge>
    </filter>
    <style bx:fonts="Coustard">@import url(https://fonts.googleapis.com/css2?family=Coustard%3Aital%2Cwght%400%2C400%3B0%2C900&amp;display=swap);</style>
    <bx:export>
      <bx:file format="png" path="DirtyBootsRoost.png" dpi="192">
        <bx:variant scale="2" suffix="@2x"/>
        <bx:variant scale="3" suffix="@3x"/>
      </bx:file>
    </bx:export>
    <filter id="pencilEffect" x="-10%" y="-10%" width="120%" height="120%">
      <title>Pencil</title>
      <feTurbulence type="turbulence" baseFrequency="0.04 0.03" numOctaves="3" result="noise" stitchTiles="stitch"/>
      <feDisplacementMap in="SourceGraphic" in2="noise" scale="3" result="displacement-map-0"/>
      <feGaussianBlur stdDeviation="0" in="displacement-map-0" result="gaussian-blur-0"/>
    </filter>
  </defs>
  <g style="" transform="matrix(0.78088, 0, 0, 0.78088, 54.779942, 54.618805)">
    <title>ORIGINAL</title>
    <g transform="matrix(1, 0, 0, 1, 0, 16)">
      <title>Bird and Chaff</title>
      <path fill="#000000" opacity="1.000000" stroke="none" d="M 216.804 69.971 C 218.544 72.545 220.251 74.849 220.853 77.82 C 220.529 78.037 220.263 78.362 219.963 78.398 C 206.772 79.977 199.627 93.359 205.548 105.436 C 211.457 117.488 221.594 123.515 234.4 125.926 C 238.74 126.743 243.073 126.666 247.409 126.555 C 251.027 126.463 253.679 127.716 255.431 130.886 C 255.731 131.427 256.131 131.914 256.503 132.412 C 256.989 133.063 258.273 135.218 258.729 135.974 C 258.383 135.529 248.796 142.929 249.002 143.193 C 247.442 141.41 245.118 139.05 243.338 137.123 C 238.533 133.546 233.555 136.356 228.656 136.78 C 227.688 136.864 227.398 137.945 227.441 138.851 C 227.634 142.956 226.457 146.943 226.599 151.074 C 226.835 157.973 227.116 158.259 233.56 155.474 C 234.013 155.279 234.519 155.199 234.957 154.979 C 240.411 152.229 245.792 149.372 250.027 144.687 C 254.566 139.856 258.915 137.74 261.27 137.207 C 263.727 136.651 263.669 133.85 264.643 131.936 C 265.893 129.478 268.257 127.777 270.627 128.272 C 274.925 129.169 279.019 128.002 283.197 128.132 C 284.261 128.166 285.578 127.827 286.179 129.108 C 286.807 130.449 285.973 131.415 285.157 132.431 C 281.07 137.515 275.571 138.842 269.448 138.277 C 264.244 137.796 264.228 139.952 262.053 142.656 C 259.954 145.377 252.27 151.404 250.837 152.443 C 236.978 162.497 221.55 168.382 204.578 170.659 C 196.484 171.744 188.52 173.781 180.477 175.281 C 177.196 175.893 173.907 176.602 170.531 176.504 C 169.278 176.468 167.824 176.549 167.443 175.032 C 167.024 173.368 168.503 172.483 169.597 171.886 C 173.778 169.605 178.438 168.727 183.05 167.791 C 188.27 166.731 193.503 165.742 198.739 164.765 C 201.057 164.333 202.25 163.031 202.19 160.658 C 201.97 151.945 203.386 143.288 203.02 134.559 C 202.911 131.955 202.301 130.194 199.968 128.739 C 185.916 119.977 180.35 106.622 179.78 90.673 C 179.687 88.059 179.709 85.437 179.78 82.821 C 179.876 79.33 178.256 77.238 174.941 76.22 C 172.694 75.531 170.497 74.655 168.332 73.731 C 167.426 73.345 166.597 72.59 166.586 71.49 C 166.574 70.242 167.592 69.923 168.605 69.681 C 168.964 69.595 169.324 69.273 169.65 69.315 C 176.846 70.243 181.467 65.927 186.634 61.837 C 195.555 54.776 207.864 59.356 214.511 67.177 C 215.233 68.027 215.915 68.911 216.804 69.971 Z M 268.691 146.542 C 276.803 154.134 283.018 163.335 290.123 171.779 C 291.223 173.088 292.094 174.624 292.264 177.035 C 287.426 177.088 283.055 175.667 278.672 174.268 C 274.92 173.07 272.373 170.244 269.943 167.468 C 265.536 162.433 259.656 156.713 255.971 150.846 C 257.151 150.196 260.394 147.551 264.74 143.429 C 265.437 143.99 268.017 145.911 268.691 146.542 Z M 220.905 151.14 C 220.902 147.17 220.89 143.2 220.902 139.23 C 220.907 137.383 220.611 135.62 218.544 135.092 C 215.491 134.313 212.428 133.358 208.833 133.898 C 208.833 142.664 208.796 151.313 208.868 159.961 C 208.88 161.433 209.647 162.486 211.449 162.466 C 218.349 162.392 220.908 159.862 220.905 152.984 C 220.904 152.613 220.905 152.24 220.905 151.14 Z M 197.852 68.98 C 196.482 68.729 195.149 68.706 193.884 69.446 C 192.101 70.491 190.581 71.682 190.775 74.061 C 190.955 76.251 191.934 77.935 194.115 78.468 C 196.916 79.154 199.819 79.162 201.038 75.938 C 202.097 73.141 201.568 70.525 197.852 68.98 Z" style=""/>
      <path fill="#000000" opacity="1.000000" stroke="none" d="M 233.743 120.471 C 223.25 118.568 215.576 113.261 209.92 104.484 C 203.999 95.297 210.618 83.867 218.702 81.64 C 222.09 80.707 224 82.489 225.511 84.815 C 231.04 93.333 236.389 101.969 241.864 110.524 C 243.195 112.605 244.787 114.519 246.186 116.56 C 247.206 118.048 248.627 119.392 248.463 121.603 C 243.487 122.466 238.763 121.635 233.743 120.471 Z" style=""/>
      <path fill="#000000" opacity="1.000000" stroke="none" d="M 287.79 101.64 C 283.194 99.569 284.315 85.713 289.799 82.754 C 291.013 82.099 292.988 82.157 294.153 83.406 C 295.238 84.569 297.502 89.439 294.453 93.485 C 298.687 91.546 302.198 90.495 305.951 90.715 C 309.601 90.93 310.359 92.372 308.539 95.494 C 306.162 99.573 301.705 102.064 297.3 101.081 C 293.891 100.32 290.672 99.323 287.79 101.64 Z" style=""/>
      <path fill="#000000" opacity="1.000000" stroke="none" d="M 264.227 92.369 C 268.591 82.168 273.692 72.698 279.192 63.405 C 281.65 59.253 284.04 55.045 286.49 50.88 C 287.278 49.542 288.062 47.462 290.035 48.726 C 291.911 49.926 290.42 51.743 289.744 53.034 C 284.263 63.494 278.939 74.049 273.033 84.268 C 268.373 92.327 265.758 101.106 262.623 109.726 C 262.47 110.148 262.364 110.587 261.843 110.949 C 261.177 104.665 262.409 98.626 264.227 92.369 Z" style=""/>
      <path fill="#000000" opacity="1.000000" stroke="none" d="M 310.735 44.258 C 305.416 52.663 301.42 61.542 295.554 69.299 C 292.171 73.771 287.608 77.131 284.296 81.7 C 279.907 87.757 276.322 94.243 272.943 100.88 C 272.062 102.611 271.673 105.989 269.13 104.953 C 266.612 103.927 268.886 101.318 269.644 99.881 C 274.036 91.553 278.324 83.032 284.719 76.074 C 293.467 66.554 299.555 55.354 306.183 44.465 C 306.698 43.618 307.086 42.679 307.689 41.904 C 308.646 40.674 309.111 38.178 311.516 39.809 C 314.004 41.496 311.656 42.697 310.735 44.258 Z" style=""/>
      <path fill="#000000" opacity="1.000000" stroke="none" d="M 333.023 95.836 C 322.802 106.549 312.833 117.139 302.691 127.559 C 300.202 130.116 297.219 132.222 294.315 134.33 C 293.086 135.222 291.709 136.333 289.635 135.75 C 289.561 132.658 291.68 130.778 293.73 129.214 C 302.378 122.615 309.93 114.841 317.284 106.932 C 322.72 101.085 328.996 96.006 333.586 89.359 C 335.072 87.207 337.068 87.249 339.179 88.989 C 338.707 92.55 335.007 93.278 333.023 95.836 Z" style=""/>
      <path fill="#000000" opacity="1.000000" stroke="none" d="M 298.188 76.426 C 301.391 74.865 307.791 75.504 312.239 73.717 C 312.935 73.437 314.572 75.023 314.878 75.79 C 317.26 81.766 312.055 88.012 305.592 88.194 C 302.134 88.292 299.283 88.674 296.402 84.775 C 295.074 82.978 292.934 79.639 298.188 76.426 Z" style=""/>
      <path fill="#000000" opacity="1.000000" stroke="none" d="M 313.433 94.904 C 315.615 85.444 323.073 80.362 329.302 74.444 C 332.685 71.231 336.81 68.811 340.482 65.885 C 341.843 64.799 343.019 64.73 344.011 65.947 C 345.107 67.293 343.973 68.181 342.921 68.923 C 336.721 73.292 331.022 78.218 325.682 83.626 C 321.085 88.28 317.655 93.553 314.649 99.343 C 312.518 103.447 309.095 106.888 306.182 110.573 C 305.629 111.271 304.746 111.571 303.558 110.621 C 307.041 105.637 309.429 99.948 313.433 94.904 Z" style=""/>
      <path fill="#000000" opacity="1.000000" stroke="none" d="M 274.134 122.063 C 275.089 119.918 280.669 115.311 285.746 115.423 C 288.784 115.49 291.815 115.64 294.856 114.666 C 295.413 117.544 294.348 119.471 292.792 120.779 C 288.166 124.669 282.848 126.6 276.658 125.798 C 274.357 125.499 273.358 123.807 274.134 122.063 Z" style=""/>
      <path fill="#000000" opacity="1.000000" stroke="none" d="M 297.696 110.85 C 293.784 112.955 289.862 113.81 285.698 113.674 C 283.634 113.608 282.832 112.947 283.39 110.686 C 284.465 106.334 286.704 104.319 291.064 103.317 C 295.095 102.389 299.016 102.059 303.36 103.149 C 302.096 106.258 300.18 108.581 297.696 110.85 Z" style=""/>
      <path fill="#000000" opacity="1.000000" stroke="none" d="M 273.545 121.372 C 270.947 126.399 268.387 125.642 264.459 125.68 C 264.427 120.682 263.546 115.749 265.133 110.915 C 266.204 107.656 267.949 107.204 270.768 109.163 C 275.291 112.305 275.123 116.534 273.545 121.372 Z" style=""/>
      <path fill="#000000" opacity="1.000000" stroke="none" d="M 276.504 115.102 C 275.648 115.257 273.623 105.064 275.848 100.959 C 276.683 99.417 277.076 97.63 279.215 97.514 C 281.538 97.388 282.795 98.812 283.664 100.759 C 285.336 104.506 280.438 114.388 276.504 115.102 Z" style=""/>
      <path fill="#000000" opacity="1.000000" stroke="none" d="M 317.943 56.786 C 314.528 61.31 313.313 67.274 307.788 70.002 C 306.284 68.095 307.3 66.62 308.099 65.383 C 312.791 58.116 317.586 50.918 322.362 43.707 C 322.837 42.989 325.89 40.239 326.992 41.099 C 328.007 41.89 327.423 42.916 326.947 43.783 C 324.436 48.352 321.083 52.334 317.943 56.786 Z" style=""/>
      <path fill="#000000" opacity="1.000000" stroke="none" d="M 331.15 61.745 C 328.035 65.131 325.127 68.343 322.143 71.484 C 321.259 72.415 320.364 73.707 318.489 72.642 C 318.74 70.037 319.892 67.71 321.666 65.888 C 325.983 61.456 329.79 56.631 333.662 51.813 C 336.005 48.898 338.229 49.531 338.965 50.413 C 339.852 51.475 339.075 52.23 338.44 52.996 C 336.07 55.847 333.698 58.695 331.15 61.745 Z" style=""/>
      <path fill="#000000" opacity="1.000000" stroke="none" d="M 170.678 156.094 C 166.779 153.964 168.801 150.217 170.525 149.011 C 172.534 147.606 174.791 148.546 176.175 150.195 C 177.673 151.98 177.304 153.804 175.914 155.557 C 174.327 157.56 172.573 157.129 170.678 156.094 Z" style=""/>
    </g>
    <path fill="#000000" opacity="1.000000" stroke="none" d="M 261.358 386.673 C 258.399 388.54 255.689 390.298 252.906 391.931 C 251.048 393.022 251.235 395.167 250.219 396.689 C 249.324 398.031 248.722 399.799 246.745 399.564 C 244.934 399.349 243.719 397.772 243.647 396.231 C 243.468 392.454 240.852 391.514 238.055 390.304 C 230.927 387.222 225.388 382.084 220.708 376.019 C 219.319 374.218 217.396 371.563 219.559 369.795 C 221.471 368.233 223.664 370.497 225.278 372.057 C 229.311 375.956 233.661 379.444 238.516 382.257 C 239.742 382.967 241.054 383.892 242.284 383.347 C 239.569 380.352 236.756 377.29 233.995 374.181 C 232.678 372.699 231.341 371.208 230.241 369.567 C 229.431 368.359 228.544 366.817 229.615 365.413 C 230.806 363.851 232.658 363.84 234.411 364.348 C 236.142 364.85 237.4 366.03 238.476 367.473 C 240.077 369.62 241.78 371.689 244.11 374.638 C 244.11 370.34 244.125 367.03 244.105 363.719 C 244.09 361.21 244.394 358.696 247.403 358.294 C 250.526 357.878 252.006 360.342 252.458 362.8 C 253.386 367.849 253.065 372.938 251.488 377.889 C 251.114 379.063 250.784 380.251 250.272 381.98 C 254.887 381.745 257.592 378.684 260.587 376.423 C 263.555 374.182 265.631 370.911 268.768 368.803 C 270.119 367.895 271.382 366.879 273.073 368.347 C 274.727 369.784 274.449 371.194 273.715 373.002 C 272.094 376.993 268.733 379.469 265.936 382.434 C 264.574 383.878 263.036 385.157 261.358 386.673 Z" style="filter: url(&quot;#pencilEffect&quot;);">
      <title>Coral</title>
    </path>
    <path fill="#000000" opacity="1.000000" stroke="none" d="M 303.393 204.744 C 308.226 199.409 312.609 193.988 320.544 193.88 C 328.485 193.771 333.521 198.275 337.539 204.21 C 341.286 209.745 342.706 216.245 344.189 222.686 C 344.645 224.664 344.04 228.04 346.875 228.076 C 349.844 228.112 349.775 224.704 350.197 222.536 C 351.614 215.267 353.813 208.433 358.566 202.527 C 371.157 186.883 385.203 195.114 391.347 206.217 C 394.273 211.504 395.248 217.44 397.077 223.088 C 397.989 225.902 397.897 232.397 397.159 236.637 C 395.551 245.882 392.94 254.581 386.702 262.08 C 380.872 269.09 369.989 270.67 363.222 264.472 C 355.191 257.115 350.411 248.16 350.277 236.994 C 350.251 234.828 350.769 231.658 347.582 231.327 C 344.256 230.982 344.43 234.49 344.394 236.264 C 344.243 243.82 340.641 250.215 337.446 256.522 C 334.27 262.793 329.026 267.711 321.361 268.367 C 317.067 268.734 313.438 266.697 310.263 263.914 C 302.657 257.247 299.26 248.553 297.915 238.767 C 297.455 235.411 297.768 231.642 293.914 229.065 C 298.218 225.949 297.978 221.414 298.838 217.219 C 299.713 212.949 301.197 208.852 303.393 204.744 M 384.697 224.292 C 383.882 219.292 383.485 214.22 381.195 209.54 C 376.57 200.082 372.137 200.08 365.312 207.322 C 364.36 208.333 363.906 209.613 363.558 210.976 C 362.81 213.907 363.399 217.047 362.639 219.823 C 361.52 223.911 363.269 225.903 366.424 227.547 C 367.636 228.179 369.206 228.757 368.938 230.395 C 368.651 232.15 366.948 232.417 365.452 232.568 C 363.876 232.728 361.978 233.029 362.313 234.915 C 363.177 239.788 362.311 244.89 364.281 249.593 C 365.721 253.033 367.031 256.643 370.089 258.994 C 373.993 261.996 379.249 259.664 381.523 254.064 C 383.457 249.303 384.154 244.252 384.698 239.198 C 385.084 235.607 385.453 231.899 380.561 230.738 C 379.87 230.574 379.146 229.709 379.411 228.468 C 380.759 226.852 384.41 228.241 384.697 224.292 M 330.802 248.065 C 331.369 241.411 334.812 234.265 327.491 228.918 C 328.298 226.931 331.639 226.784 331.426 224.329 C 330.892 218.174 330.35 211.945 327.158 206.425 C 325.667 203.844 323.498 201.994 320.29 201.995 C 317.055 201.996 314.992 203.769 313.652 206.588 C 313.121 207.707 312.497 208.786 311.852 209.845 C 309.248 214.12 310.64 218.797 310.514 223.309 C 310.442 225.902 312.981 226.47 314.469 227.856 C 316.207 229.474 315.97 230.86 313.762 231.816 C 312.431 232.393 310.652 232.537 310.552 234.45 C 310.165 241.849 310.643 249.189 314.49 255.723 C 317.307 260.508 321.61 261.707 325.002 258.899 C 328.138 256.301 329.657 252.569 330.802 248.065 Z" style="visibility: hidden;"/>
    <path fill="#000000" opacity="1.000000" stroke="none" d="M 116.389 286.696 C 124.987 286.513 132.291 288.72 137.634 295.349 C 142.62 301.535 144.69 308.612 141.587 316.169 C 140.221 319.491 137.336 322.211 135.032 325.119 C 132.522 328.289 131.49 330.908 133.548 335.389 C 136.63 342.104 139.017 349.207 142.031 356.011 C 144.061 360.593 147 364.645 150.262 368.362 C 153.827 372.422 158.569 374.126 164.006 373.095 C 166.361 372.649 168.617 372.684 171.02 373.035 C 171.186 376.269 169.033 377.479 167.059 378.613 C 159.746 382.813 149.12 380.96 142.468 375.249 C 134.075 368.042 130.164 358.315 126.023 348.591 C 124.135 344.158 122.447 339.605 119.739 335.562 C 119.259 334.845 118.723 334.091 118.037 333.6 C 116.207 332.292 114.038 330.888 111.904 331.835 C 109.976 332.692 109.994 335.133 109.979 337.133 C 109.946 341.618 110.085 346.108 109.923 350.588 C 109.811 353.661 110.408 356.302 113.048 358.117 C 114.267 358.954 114.703 360.02 114.182 361.309 C 113.7 362.502 112.769 363.421 111.373 363.462 C 106.521 363.602 101.669 363.723 96.817 363.763 C 95.719 363.772 94.965 362.895 94.723 361.906 C 94.436 360.73 94.142 359.406 95.461 358.531 C 98.686 356.393 99.126 353.233 99.013 349.681 C 98.852 344.578 98.964 339.466 98.984 334.357 C 99 330.246 99.848 325.756 94.214 324.894 C 94.214 324.09 94.12 323.707 94.228 323.639 C 100.933 319.35 98.811 312.612 98.701 306.604 C 98.661 304.434 98.184 302.179 98.244 299.953 C 98.323 297.097 97.616 294.612 95.773 292.355 C 94.862 291.24 94.211 289.859 94.98 288.207 C 95.83 286.38 97.393 286.722 98.828 286.713 C 104.559 286.678 110.291 286.698 116.389 286.696 M 124.505 322.424 C 131.276 318.553 131.231 310.071 129.933 304.455 C 128.665 298.97 124.635 295.959 119.17 294.894 C 114.426 293.971 110.257 296.314 110.09 300.469 C 109.814 307.31 109.936 314.171 110.05 321.021 C 110.092 323.569 111.278 325.085 114.282 324.906 C 117.682 324.705 120.915 324.104 124.505 322.424 Z" style="visibility: hidden;"/>
    <path fill="#000000" opacity="1.000000" stroke="none" d="M 209.25 308.8 C 211.283 313.901 211.408 319.325 214.383 323.815 C 215.002 324.749 214.636 325.922 214.074 327.006 C 211.043 332.855 210.235 339.621 207.026 345.319 C 204.307 350.147 200.884 354.597 196.485 358.25 C 190.885 362.899 184.641 363.795 177.98 361.905 C 173.325 360.584 169.914 357.279 166.881 353.504 C 162.24 347.727 159.907 340.999 158.118 333.982 C 157.345 330.951 157.448 327.381 153.268 326.445 C 152.39 326.249 151.895 324.968 152.69 324.306 C 158.672 319.335 157.843 311.403 161.08 305.229 C 163.815 300.011 166.648 295.182 171.459 291.386 C 182.941 282.324 194.218 286.805 202.253 295.817 C 205.445 299.397 207.752 303.795 209.25 308.8 M 196.354 322.243 C 197.061 321.69 197.646 321.052 197.658 320.089 C 197.753 312.636 196.589 305.53 192.107 299.285 C 189.524 295.685 185.939 293.835 181.82 295.224 C 177.125 296.807 173.531 300.264 172.144 305.197 C 171.104 308.894 171.403 312.825 171.213 316.666 C 171.078 319.406 171.771 321.149 174.28 322.336 C 177.029 323.637 176.616 325.051 174.266 326.563 C 172.988 327.386 171.198 327.983 171.331 330.062 C 171.845 338.042 172.478 345.968 178.793 351.993 C 183.476 356.461 189.981 355.453 193.115 349.77 C 195.628 345.212 196.123 340.179 197.149 335.197 C 198.081 330.67 197.091 327.817 193.114 325.793 C 192.968 325.718 192.972 325.346 192.865 324.963 C 193.381 323.644 194.655 323.13 196.354 322.243 Z" style="visibility: hidden;"/>
    <path fill="#000000" opacity="1.000000" stroke="none" d="M 273.128 342.434 C 269.317 349.257 265.553 355.799 259.19 360.237 C 252.919 364.609 241.571 363.071 235.295 357.271 C 227.701 350.252 224.487 341.119 222.45 331.376 C 222.298 330.65 222.434 329.631 221.995 329.234 C 218.292 325.883 220.231 322.913 221.635 319.089 C 224.031 312.567 225.697 305.771 229.647 299.94 C 233.685 293.979 238.651 289.351 245.968 287.242 C 252.993 285.218 261.983 289.865 266.223 294.74 C 271.74 301.082 275.188 308.315 276.262 316.737 C 276.585 319.276 277.736 321.745 280.453 322.999 C 281.912 323.673 282.85 325.207 281.012 326.04 C 276.673 328.005 276.002 331.825 275.15 335.755 C 274.679 337.926 273.861 340.021 273.128 342.434 M 261.335 308.376 C 260.836 305.658 259.825 303.126 258.374 300.794 C 255.156 295.626 249.333 293.067 245.12 295.74 C 240.811 298.474 237.22 302.254 237.153 308.006 C 237.123 310.613 237.084 313.188 236.498 315.773 C 235.934 318.257 236.62 320.188 239.282 321.524 C 243.142 323.46 243.063 325.004 239.396 327.581 C 238.188 328.429 236.469 328.946 236.496 330.698 C 236.608 338.05 236.838 345.593 242.534 351.088 C 247.098 355.491 253.405 356.384 257.979 349.65 C 260.471 345.983 261.219 341.911 261.989 337.807 C 262.833 333.313 264.524 328.572 258.62 325.637 C 256.772 324.717 257.843 323.107 259.692 322.56 C 262.104 321.846 262.872 320.19 262.846 317.749 C 262.813 314.732 262.256 311.849 261.335 308.376 Z" style="visibility: hidden;"/>
    <path fill="#000000" opacity="1.000000" stroke="none" d="M 263.806 268.541 C 259.694 268.531 255.955 268.523 252.216 268.509 C 250.946 268.503 249.795 268.431 249.12 266.994 C 248.391 265.439 249.323 264.578 250.267 263.819 C 252.644 261.91 253.193 259.469 253.131 256.535 C 252.981 249.559 253.022 242.576 253.124 235.598 C 253.158 233.287 252.709 231.498 250.527 230.293 C 248.266 229.044 248.03 227.541 250.585 226.33 C 252.758 225.301 253.131 223.549 253.105 221.398 C 253.037 215.915 253.045 210.43 253.103 204.947 C 253.132 202.203 252.555 199.923 250.251 198.03 C 247.985 196.169 248.565 193.078 250.862 193.411 C 260.065 194.745 269.629 192.115 278.549 195.628 C 289.763 200.045 293.325 212.277 286.596 222.291 C 286.042 223.116 285.567 224.017 284.897 224.736 C 282.886 226.899 283.444 228.228 285.64 230.147 C 294.405 237.805 295.921 249.979 288.46 258.619 C 287.891 259.278 287.174 259.836 286.719 260.562 C 283.052 266.424 277.602 268.686 270.91 268.546 C 268.667 268.5 266.423 268.541 263.806 268.541 M 270.629 260.514 C 276.768 259.599 280.204 256.729 281.027 249.831 C 282.231 239.744 278.799 232.597 267.329 233.331 C 264.942 233.484 264.01 234.305 264.046 236.696 C 264.137 242.672 264.063 248.65 264.074 254.628 C 264.084 260.271 264.301 260.476 270.629 260.514 M 263.447 222.327 C 265.177 226.496 268.304 224.247 270.754 223.66 C 276.046 222.393 279.755 216.454 279.208 210.77 C 278.711 205.612 274.241 201.595 268.52 201.22 C 266.266 201.072 263.988 201.259 264.132 204.297 C 264.407 210.131 262.837 215.868 263.447 222.327 Z" style="visibility: hidden;"/>
    <path fill="#000000" opacity="1.000000" stroke="none" d="M 106.961 243.833 C 106.701 248.505 107.197 252.83 106.422 257.194 C 105.983 259.67 107.068 262.293 109.262 264.142 C 110.347 265.056 111.02 266.216 110.214 267.766 C 109.407 269.315 108.168 269.355 106.725 269.024 C 103.527 268.29 100.349 268.25 97.142 269.102 C 95.488 269.542 93.876 269.267 92.833 267.688 C 91.602 265.822 92.946 264.605 94.131 263.542 C 95.559 262.26 96.021 260.785 96.005 258.91 C 95.938 251.184 95.956 243.457 95.996 235.731 C 96.007 233.638 95.662 231.865 93.786 230.517 C 92.185 229.368 91.791 227.972 93.931 226.774 C 95.678 225.795 96.003 224.153 95.989 222.293 C 95.945 216.56 95.947 210.827 95.994 205.095 C 96.018 202.179 94.684 199.9 93.05 197.622 C 91.394 195.315 92.409 192.894 94.983 193.33 C 102.392 194.589 109.922 192.978 117.265 194.53 C 132.419 197.733 138.569 213.728 129.378 226.065 C 127.842 228.126 126.489 230.446 124.05 231.699 C 122.889 232.296 122.34 233.294 122.93 234.487 C 127.112 242.958 129.399 252.205 133.72 260.623 C 135.229 263.563 137.813 265.26 140.367 266.98 C 142.394 268.345 141.806 269.614 140.581 270.926 C 138.431 273.229 133.471 273.766 130.617 272.334 C 125.241 269.634 123.102 264.698 121.31 259.443 C 119.43 253.927 117.708 248.344 115.116 243.103 C 114.185 241.22 113.193 239.3 111.139 238.336 C 109.942 237.774 108.77 236.778 107.355 237.883 C 106.117 238.849 106.44 240.013 106.8 241.265 C 107.001 241.965 106.915 242.748 106.961 243.833 M 106.601 227.391 C 112.576 230.061 119.816 226.466 122.129 219.681 C 124.932 211.46 120.929 203.5 112.978 201.482 C 109.83 200.684 106.971 202.259 107.064 205.226 C 107.291 212.455 106.253 219.624 106.601 227.391 Z" style="visibility: hidden;"/>
    <path fill="#000000" opacity="1.000000" stroke="none" d="M 53.128 250.664 C 48.106 263.225 40.147 268.556 26.81 268.531 C 23.321 268.525 19.831 268.517 16.342 268.506 C 15.072 268.501 13.779 268.488 13.23 267.022 C 12.756 265.756 13.41 264.771 14.334 264.096 C 17.892 261.5 18.373 257.898 18.231 253.829 C 18.023 247.854 18.149 241.867 18.198 235.886 C 18.216 233.662 17.967 231.71 15.726 230.488 C 14.029 229.564 14.109 228.279 15.772 227.426 C 18.097 226.233 18.219 224.263 18.194 222.048 C 18.134 216.565 18.102 211.079 18.21 205.598 C 18.271 202.477 17.388 199.955 14.62 198.318 C 13.41 197.602 12.719 196.653 13.176 195.247 C 13.48 194.309 13.931 193.179 15.145 193.299 C 25.02 194.274 35.443 192.226 44.403 198.367 C 51.441 203.193 56.042 209.797 58.374 217.995 C 59.491 221.921 60.082 226.029 62.616 229.827 C 59.702 232.124 59.997 235.662 59.355 238.88 C 58.64 242.473 58.369 246.217 54.476 248.195 C 53.834 248.521 53.595 249.642 53.128 250.664 M 46.159 243.322 C 48.252 234.685 47.652 226.065 45.652 217.542 C 44.278 211.687 41.21 206.724 36.008 203.472 C 32.003 200.968 29.81 202.176 29.94 206.733 C 30.163 214.523 29.604 222.309 29.577 230.092 C 29.549 238.378 29.391 246.72 29.195 255.034 C 29.076 260.001 31.495 261.251 35.909 258.732 C 41.694 255.43 44.968 250.452 46.159 243.322 Z" style="visibility: hidden;"/>
    <path fill="#000000" opacity="1.000000" stroke="none" d="M 316.892 334.124 C 313.358 330.713 309.493 328.25 305.284 326.35 C 300.419 324.155 296.101 321.25 293.366 316.585 C 287.249 306.152 292.107 296.143 300.539 290.399 C 308.059 285.278 316.126 284.061 324.172 289.747 C 326.533 291.415 328.376 291.081 329.294 288.147 C 329.783 286.583 330.75 285.779 332.341 286.146 C 333.968 286.52 334.597 288.067 334.253 289.334 C 332.959 294.09 334.3 299.028 332.994 303.786 C 332.522 305.508 332.068 306.996 330.202 307.226 C 328.441 307.443 327.551 306.072 326.974 304.631 C 324.901 299.459 321.426 295.892 315.855 294.579 C 311.488 293.549 304.954 296.486 303.202 300.345 C 301.108 304.961 302.369 308.653 306.978 312.28 C 312.277 316.449 318.481 319.131 324.003 322.94 C 332.857 329.046 336.102 339.275 332.091 349.117 C 328.265 358.509 319.078 363.73 308.874 362.987 C 304.064 362.636 299.675 361.345 295.401 359.531 C 293.66 360.196 294.47 362.778 292.484 363.165 C 291.107 363.052 290.93 361.706 290.904 360.956 C 290.732 356.172 288.388 351.871 287.945 347.196 C 287.548 343.007 289.784 339.732 292.882 337.329 C 295.536 335.271 298.719 335.612 301.727 337.023 C 303.465 337.839 304.497 339.063 304.188 341.192 C 302.719 341.789 301.238 342.37 299.772 342.99 C 295.828 344.659 295.626 345.475 298.353 348.83 C 301.809 353.08 305.913 355.708 311.77 355.105 C 317.377 354.529 320.775 351.326 322.124 346.336 C 323.312 341.938 321.158 338.151 317.878 335.102 C 317.604 334.848 317.346 334.576 316.892 334.124 Z" style="visibility: hidden;"/>
    <path fill="#000000" opacity="1.000000" stroke="none" d="M 460.38 231.111 C 454.487 227.072 450.235 222.464 448.75 215.196 C 447.225 207.735 451.747 199.651 458.198 195.715 C 464.208 192.049 470.203 192.41 476.252 195.611 C 477.703 196.377 479.013 197.948 480.99 196.656 C 481.209 196.514 481.895 196.913 482.26 197.194 C 485.271 199.51 487.033 207.705 485.29 211.03 C 484.244 213.026 482.489 213.315 480.517 213.087 C 478.542 212.858 478.284 211.407 478.26 209.809 C 478.195 205.215 473.725 201.924 468.797 200.658 C 465.639 199.846 461.603 201.744 459.869 204.684 C 457.604 208.525 458.08 212.535 461.264 216.396 C 465.219 221.191 470.809 223.891 475.657 227.53 C 480.815 231.402 484.328 236.22 486.238 242.407 C 488.418 249.469 485.369 255.152 481.554 260.405 C 475.299 269.017 467.993 271.757 457.032 269.159 C 450.65 267.647 446.097 262.861 444.222 256.286 C 442.135 248.965 447.901 241.311 454.9 241.855 C 455.629 241.912 456.402 242.03 457.053 242.334 C 459.462 243.458 462.244 244.885 461.998 247.758 C 461.724 250.942 458.227 249.749 456.178 250.454 C 454.752 250.944 452.949 250.07 451.636 251.36 C 452.757 256.527 456.882 260.383 462.056 261.184 C 466.755 261.912 471.51 259.465 473.841 255.121 C 476.222 250.681 475.494 244.73 471.972 240.847 C 468.617 237.148 464.749 234.028 460.38 231.111 Z" style="visibility: hidden;"/>
    <path fill="#000000" opacity="1.000000" stroke="none" d="M 392.311 302.859 C 390.663 298.243 388.406 294.814 383.109 294.74 C 381.019 294.71 379.275 294.97 379.055 297.446 C 378.386 304.982 377.515 312.51 377.854 320.1 C 377.939 322.023 379.783 322.502 381.03 323.841 C 377.958 326.131 377.502 329.316 377.768 332.783 C 378.099 337.081 377.162 341.316 377.569 345.706 C 377.991 350.24 378.834 354.24 381.799 357.695 C 383.907 360.151 382.301 361.614 380.145 361.878 C 375.518 362.445 370.823 362.694 366.161 362.646 C 362.747 362.612 361.522 359.634 363.709 356.936 C 365.021 355.317 366.029 353.724 366.032 351.615 C 366.041 345.399 365.915 339.183 366.772 332.996 C 367.107 330.584 366.795 328.285 364.779 326.514 C 363.988 325.819 363.702 324.867 364.077 323.793 C 366.896 315.724 365.756 307.331 366.088 299.058 C 366.16 297.266 365.267 296.503 363.572 295.964 C 358.693 294.41 350.543 295.923 350.031 302.98 C 349.923 304.478 349.281 305.99 347.264 305.809 C 345.416 305.643 344.543 304.071 344.542 302.702 C 344.538 297.39 344.608 292.046 346.206 286.893 C 346.744 285.159 347.858 284.864 349.666 285.192 C 363.905 287.773 378.24 288.159 392.624 286.669 C 393.962 286.531 395.245 285.936 396.575 285.645 C 398.719 285.176 400.635 286.9 399.653 288.729 C 397.071 293.537 396.732 298.921 395.411 303.897 C 394.045 304.345 393.261 303.706 392.311 302.859 Z" style="visibility: hidden;"/>
    <path fill="#000000" opacity="1.000000" stroke="none" d="M 217.77 219.11 C 213.324 224.759 212.365 231.021 212.331 237.759 C 212.304 242.831 211.412 247.91 211.728 253.01 C 211.98 257.062 211.913 261.256 215.635 264.154 C 216.798 265.059 217.22 266.458 216.659 267.87 C 216.02 269.479 214.45 269.476 213.131 269.239 C 209.186 268.529 205.287 268.259 201.329 269.198 C 200.135 269.482 198.774 269.319 198.062 267.988 C 197.335 266.629 197.488 265.102 198.507 264.148 C 201.738 261.12 201.634 257.298 201.447 253.408 C 201.106 246.341 202.694 239.085 200.646 232.229 C 197.413 221.405 192.376 211.243 187.759 200.948 C 187.14 199.567 185.627 198.547 184.417 197.487 C 183.509 196.691 183.451 195.778 183.709 194.789 C 184.002 193.67 184.906 193.134 185.979 193.25 C 190.411 193.726 194.811 193.69 199.269 193.344 C 202.086 193.125 202.715 195.531 201.278 197.443 C 199.167 200.25 199.775 202.83 201.028 205.474 C 203.029 209.696 204.147 214.36 207.131 218.388 C 210.444 216.531 211.17 213.215 212.536 210.433 C 213.406 208.66 213.965 206.731 215.158 205.106 C 216.893 202.742 217.749 200.41 215.724 197.645 C 214.493 195.964 215.23 194.281 217.245 194.091 C 221.188 193.719 225.097 192.763 229.111 193.2 C 230.99 193.404 232.639 193.999 233.04 195.985 C 233.482 198.178 231.361 198.177 230.122 198.643 C 228 199.443 226.286 200.763 225.57 202.782 C 223.571 208.426 219.609 213.1 217.77 219.11 Z" style="visibility: hidden;"/>
    <path fill="#000000" opacity="1.000000" stroke="none" d="M 441.338 193.62 C 442.822 198.692 441.88 203.564 442.044 208.386 C 442.101 210.066 440.679 210.3 439.513 210.623 C 438.341 210.949 437.655 210.233 437.237 209.214 C 436.624 207.722 435.986 206.24 435.411 204.733 C 434.329 201.895 431.815 201.245 429.354 201.451 C 426.835 201.663 427.395 204.096 427.116 205.902 C 425.738 214.814 427.009 223.806 426.29 232.707 C 425.676 240.288 425.711 247.848 425.67 255.424 C 425.654 258.442 425.978 261.356 428.395 263.62 C 429.494 264.65 429.699 266.053 428.987 267.397 C 428.295 268.7 427.11 269.452 425.6 269.251 C 421.534 268.71 417.455 268.554 413.36 268.406 C 410.954 268.318 410.145 266.164 412.015 264.541 C 414.66 262.244 414.681 259.49 414.696 256.451 C 414.772 240.786 415.866 225.135 415.422 209.46 C 415.405 208.839 415.404 208.206 415.509 207.597 C 415.872 205.497 417.369 203.063 414.435 201.752 C 411.814 200.58 406.569 202.883 405.513 205.456 C 404.997 206.712 404.766 208.085 404.257 209.345 C 403.842 210.37 403.291 211.58 401.907 211.33 C 400.727 211.116 399.946 210.125 399.843 208.944 C 399.345 203.205 399.924 197.537 401.315 191.964 C 401.689 190.464 403.008 189.758 404.08 191.048 C 406.115 193.5 409.032 193.566 411.563 193.692 C 418.515 194.038 425.499 193.909 432.462 193.7 C 433.941 193.655 435.71 193.382 436.984 192.198 C 438.999 190.324 440.277 191.259 441.338 193.62 Z" style="visibility: hidden;"/>
    <path fill="#000000" opacity="1.000000" stroke="none" d="M 142.448 190.675 C 145.631 194.172 149.519 194.103 153.542 193.972 C 158.646 193.805 163.759 193.933 168.868 193.921 C 171.322 193.915 173.831 194.358 175.545 191.712 C 176.436 190.334 177.831 191.262 178.833 191.958 C 179.277 192.266 179.603 192.974 179.681 193.541 C 180.383 198.659 181.064 203.79 180.472 208.966 C 180.341 210.115 180.283 211.599 178.451 211.568 C 176.93 211.543 176.354 210.604 175.934 209.286 C 175.333 207.398 174.727 205.484 173.491 203.872 C 171.896 201.791 169.659 201.57 167.408 202.135 C 165.228 202.683 165.362 204.706 165.344 206.447 C 165.305 210.184 165.175 213.931 165.353 217.66 C 165.784 226.754 164.664 235.792 164.521 244.865 C 164.456 248.921 165.704 252.871 164.799 257.054 C 164.344 259.161 165.763 261.531 167.634 263.264 C 168.899 264.436 170.057 265.978 168.866 267.88 C 167.702 269.739 165.935 269.349 164.186 268.932 C 160.62 268.081 156.991 268.734 153.396 268.532 C 152.134 268.461 150.791 268.515 150.175 267.155 C 149.541 265.757 150.429 264.695 151.409 263.925 C 154.067 261.839 154.511 259.084 154.362 255.931 C 153.935 246.868 154.147 237.784 153.932 228.717 C 153.766 221.715 154.104 214.573 154.308 207.496 C 154.37 205.348 154.979 202.701 151.715 202.193 C 148.746 201.731 145.968 202.055 144.294 205.054 C 143.749 206.032 143.278 207.05 142.754 208.041 C 142.164 209.156 141.596 210.317 139.983 209.99 C 138.575 209.705 138.147 208.292 138.2 207.43 C 138.513 202.395 138.752 197.333 139.977 192.402 C 140.254 191.288 141.174 190.884 142.448 190.675 Z" style="visibility: hidden;"/>
    <path fill="#000000" opacity="1.000000" stroke="none" d="M 80.782 206.463 C 80.782 213.144 81.655 219.559 81.275 225.78 C 80.675 235.626 81.187 245.443 80.743 255.258 C 80.586 258.711 81.526 261.526 83.872 264.084 C 85.988 266.391 85.406 268.298 82.602 268.434 C 78.02 268.658 73.422 268.582 68.831 268.541 C 65.788 268.514 65.141 266.669 67.005 264.746 C 70.914 260.716 70.025 255.884 69.892 251.168 C 69.758 246.435 70.924 241.798 70.613 237.042 C 70.414 234.001 70.275 231.081 67.738 228.616 C 70.545 226.45 70.671 223.569 70.587 220.506 C 70.451 215.523 70.545 210.534 70.561 205.548 C 70.57 202.562 69.886 199.882 67.361 197.979 C 66.495 197.327 65.898 196.493 66.319 195.421 C 66.795 194.209 67.709 193.282 69.108 193.268 C 73.844 193.22 78.581 193.239 83.317 193.244 C 84.262 193.245 84.957 193.603 85.34 194.566 C 85.786 195.683 85.435 196.665 84.597 197.21 C 81.295 199.354 81.389 202.871 80.782 206.463 Z" style="visibility: hidden;"/>
    <path fill="#000000" opacity="1.000000" stroke="none" d="M 58.265 303.983 C 60.74 303.706 63.442 305.144 63.685 307.535 C 64.166 309.033 62.893 312.137 60.012 312.268 C 57.848 312.366 55.984 311.15 55.639 308.45 C 55.363 306.29 56.238 304.953 58.265 303.983 Z" style="">
      <title>Left Title Accent 1</title>
    </path>
    <path fill="#000000" opacity="1.000000" stroke="none" d="M 76.214 310.237 C 73.747 312.538 71.789 311.701 69.836 309.929 C 68.563 308.773 68.644 306.907 69.615 305.336 C 71.149 302.854 73.293 302.904 75.356 304.114 C 77.588 305.424 78.226 306.804 76.214 310.237 Z" style="">
      <title>Left Title Accent 2</title>
    </path>
    <path fill="#000000" opacity="1.000000" stroke="none" d="M 424.273 306.274 C 424.72 307.491 424.488 309.485 423.214 310.231 C 421.298 311.355 419.084 311.97 417.452 310.02 C 415.862 308.123 416.466 305.934 418.159 304.348 C 419.614 302.984 424.046 304.114 424.273 306.274 Z" style="">
      <title>Right Title Accent 1</title>
    </path>
    <path fill="#000000" opacity="1.000000" stroke="none" d="M 433.077 303.149 C 435.29 303.013 437.031 305.008 436.79 307.047 C 436.609 308.573 435.93 309.726 434.221 310.452 C 430.943 311.846 429.314 309.14 429.158 307.155 C 429.108 305.254 430.055 303.32 433.077 303.149 Z" style="">
      <title>Right Title Accent 2</title>
    </path>
    <path fill="#000000" opacity="1.000000" stroke="none" d="M 76.425 349.58 C 72.31 350.632 71.78 347.254 70.354 345.161 C 69.31 343.629 68.65 341.89 68.959 339.94 C 73.034 340.176 76.547 342.899 77.527 346.591 C 77.818 347.691 78.015 348.826 76.425 349.58 Z" style="">
      <title>Left Sub Accent</title>
    </path>
    <path fill="#000000" opacity="1.000000" stroke="none" d="M 425.198 342.824 C 424.72 343.745 424.471 344.466 424.039 345.052 C 422.887 346.613 421.776 348.653 419.381 347.002 C 416.634 345.106 417.671 342.494 418.859 340.402 C 419.893 338.58 421.695 337.219 424.127 338.714 C 425.675 339.667 425.827 341 425.198 342.824 Z" style="">
      <title>Right Sub Accent</title>
    </path>
  </g>
  <g transform="matrix(0.78088, 0, 0, 0.78088, 54.779942, 2.196505)" style="filter: url(&quot;#outline-filter-0&quot;);">
    <title>Sub</title>
    <path style="stroke: rgb(0, 0, 0); visibility: hidden;" d="M 75 425 C 95 444.734 163.735 503.649 250 505.434 C 336.264 503.46 405 444.545 425 425" id="path-0"/>
    <text style="font-family: Gaegu; font-size: 32px; font-weight: 700; letter-spacing: -0.2px; text-transform: uppercase; word-spacing: -2.6px; white-space: pre;" transform="matrix(1, 0, 0, 1, -0.00041, -1)"><textPath href="#path-0" startOffset="-3"><tspan>bakery &amp; community space</tspan><tspan x="127.928" dy="1em">​</tspan></textPath></text>
  </g>
  <text style="font-family: Coustard; font-size: 76px; letter-spacing: -2.1px; text-anchor: middle; word-spacing: -2.6px; white-space: pre; filter: url(&quot;#pencilEffect&quot;);" transform="matrix(0.723349, 0, 0, 0.723349, 224.11702, 93.841003)"><title>TITLE</title><tspan x="31.703" y="231.907">DIRTY BOOTS</tspan><tspan x="31.703" dy="1em">​</tspan><tspan>ROOST</tspan></text>
  <circle style="stroke: rgb(0, 0, 0); fill: none; filter: url(&quot;#pencilEffect&quot;); stroke-width: 14.4962px;" cx="250" cy="250" r="266.683" transform="matrix(0.898107, 0, 0, 0.612509, 25.473074, 94.368942)"/>
</svg>