<?xml version="1.0" encoding="utf-8"?>
<svg xmlns="http://www.w3.org/2000/svg" viewBox="0 0 500 500">
  <path fill="#000000" opacity="1.000000" stroke="none" d="M 261.512 250.42 C 274.343 250.857 285.322 254.995 295.585 262.11 C 300.288 265.37 304.755 268.486 307.905 273.279 C 314.253 282.938 316.397 293.463 315.213 304.959 C 314.545 311.444 314.335 318.109 310.642 323.552 C 302.519 335.522 290.863 342.59 276.965 346.272 C 266.07 349.158 254.951 351.137 243.776 350.966 C 229.255 350.743 214.482 350.556 201.157 343.273 C 191.632 338.067 184.272 331.333 181.067 320.147 C 177.73 308.502 179.387 297.281 181.096 286.598 C 165.668 287.675 150.83 286.222 137.711 276.906 C 129.051 270.757 125.753 261.697 125.383 251.539 C 125.015 241.438 126.285 231.165 124.091 221.275 C 122.36 213.469 122.85 205.94 123.157 198.149 C 123.709 184.145 130.919 174.264 141.127 165.936 C 148.64 159.806 156.954 154.526 166.37 152.45 C 186.497 148.012 206.909 147.332 226.762 153.739 C 242.444 158.799 251.996 169.45 253.196 186.784 C 253.554 191.953 255.762 197.018 257.303 202.075 C 259.694 209.927 260.187 217.809 259.254 226.002 C 258.466 232.918 258.749 239.961 258.678 246.949 C 258.663 248.498 259.428 249.852 261.512 250.42 M 151.191 170.075 C 143.281 173.898 139.514 181.352 134.799 188.144 C 130.554 194.257 129.94 200.584 131.168 207.466 C 132.334 214.003 133.255 220.567 132.963 227.22 C 132.598 235.544 133.413 243.809 134.051 252.08 C 134.899 263.069 142.001 271.693 152.442 274.379 C 163.036 277.105 173.911 277.071 184.744 277.329 C 186.039 277.36 187.084 276.478 187.553 275.484 C 190.333 269.586 196.037 266.683 200.687 262.81 C 204.978 259.237 209.943 256.747 215.624 255.292 C 225.573 252.743 235.434 250.037 245.712 249.118 C 247.543 248.955 249.628 248.563 249.794 245.7 C 250.547 232.709 253.07 219.794 249.362 206.749 C 247.246 199.303 246.122 191.736 237.429 188.778 C 232.578 187.127 227.888 185.001 223.03 183.373 C 221.457 182.847 220.163 182.394 219.929 180.691 C 219.678 178.865 220.627 177.557 222.158 176.591 C 223.968 175.449 225.976 175.238 227.938 175.678 C 233.174 176.851 238.509 177.842 243.233 182.189 C 240.94 169.993 232.27 165.147 222.746 162.552 C 205.829 157.942 188.575 156.325 171.265 161.256 C 164.393 163.213 157.434 164.873 151.191 170.075 M 306.302 292.499 C 305.231 284.752 303.115 277.651 295.957 273.042 C 285.111 266.06 273.679 261.247 260.583 259.999 C 238.364 257.882 217.702 260.541 199.729 275.277 C 187.334 285.439 183.517 300.97 188.962 315.441 C 195.436 332.644 209.969 338.518 226.166 341.369 C 237.798 343.416 249.543 342.866 261.345 341.003 C 274.071 338.994 285.95 335.528 295.892 327.078 C 301.01 322.727 305.806 317.774 306.15 310.622 C 306.425 304.898 307.991 299.127 306.302 292.499 Z"/>
  <path fill="#000000" opacity="1.000000" stroke="none" d="M 363.793 206.452 C 384.893 217.212 377.589 241.992 365.203 250.237 C 358.49 254.706 349.904 256.385 341.974 256.926 C 326.216 257.999 310.265 258.483 295.074 252.341 C 284.413 248.031 275.855 242.051 273.871 229.533 C 273.228 225.481 273.85 221.828 275.61 218.559 C 284.758 201.574 299.312 191.896 318.256 189.859 C 328.337 188.775 338.28 190.593 345.764 199.086 C 349.817 203.684 356.366 203.253 361.605 205.548 C 362.211 205.813 362.827 206.056 363.793 206.452 M 354.047 244.683 C 361.028 243.134 365.595 238.483 367.689 232.11 C 370.38 223.917 367.88 216.814 358.722 214.266 C 348.87 211.525 339.063 208.84 328.642 210.156 C 326.852 210.382 324.757 210.601 323.059 209.49 C 324.259 202.853 330.415 204.256 334.821 202.141 C 331.503 199.533 328.348 198.346 324.884 197.778 C 314.158 196.02 305.936 202.244 297.248 206.664 C 292.575 209.042 288.142 212.061 285.181 216.731 C 278.885 226.661 279.759 235.736 291.553 240.889 C 299.506 244.364 307.384 246.818 316.147 247.919 C 328.931 249.526 341.11 248.33 354.047 244.683 Z"/>
  <path fill="#000000" opacity="1.000000" stroke="none" d="M 178.334 221.689 C 189.679 221.603 200.348 219.801 210.909 216.691 C 215.912 215.217 221.349 215.207 226.595 214.574 C 228.448 214.351 230.158 214.943 230.268 216.957 C 230.35 218.458 228.88 219.019 227.478 219.775 C 217.366 225.231 205.89 225.835 195.099 227.545 C 179.407 230.031 163.257 228.724 149.151 219.755 C 145.744 217.588 142.862 213.882 143.377 208.507 C 150.272 209.453 152.805 217.151 159.468 218.386 C 165.624 219.527 171.541 221.965 178.334 221.689 Z"/>
  <path fill="#000000" opacity="1.000000" stroke="none" d="M 186.26 166.014 C 191.85 163.489 203.016 165.862 206.596 170.164 C 208.527 172.485 209.412 175.33 207.389 177.869 C 205.009 180.855 203.155 178.021 201.137 176.798 C 196.802 174.171 192.884 170.773 187.543 169.983 C 186.09 169.768 183.767 168.645 186.26 166.014 Z"/>
  <path fill="#000000" opacity="1.000000" stroke="none" d="M 160.909 174.759 C 163.023 178.473 163.191 181.625 161.485 185.405 C 160.048 188.588 160.069 192.429 159.399 196.241 C 157.003 196.56 155.516 195.367 155.491 193.13 C 155.434 188.208 155.404 183.235 156.086 178.384 C 156.333 176.627 156.803 172.922 160.909 174.759 Z"/>
  <path fill="#000000" opacity="1.000000" stroke="none" d="M 187.943 197.855 C 188.431 199.779 189.541 201.416 187.499 202.646 C 185.925 203.595 184.687 202.681 183.376 201.908 C 181.805 200.982 180.117 200.252 178.546 199.326 C 176.213 197.95 174.451 196.156 176.076 193.263 C 177.601 190.548 180.005 191.414 182.201 192.258 C 184.748 193.237 186.901 194.728 187.943 197.855 Z"/>
  <path fill="#000000" opacity="1.000000" stroke="none" d="M 160.081 261.306 C 159.147 259.897 158.389 258.809 157.772 257.646 C 157.232 256.628 157.684 255.724 158.429 254.973 C 159.139 254.257 159.917 253.61 161.032 253.92 C 164.53 254.895 166.881 261.262 165.003 264.875 C 162.883 264.598 161.763 262.855 160.081 261.306 Z"/>
  <path fill="#000000" opacity="1.000000" stroke="none" d="M 187.051 247.456 C 191.199 246.734 191.143 249.869 191.671 252.006 C 192.002 253.345 190.576 254.797 189.338 254.627 C 187.199 254.333 184.435 254.046 183.691 251.647 C 183.085 249.691 184.142 247.796 187.051 247.456 Z"/>
  <path fill="#000000" opacity="1.000000" stroke="none" d="M 258.834 320.825 C 268.428 319.446 277.148 316.576 286.293 312.276 C 286.563 318.322 282.579 320.412 279.202 321.919 C 267.791 327.011 255.425 329.163 243.176 329.861 C 233.493 330.413 223.413 329.39 214.199 325.1 C 209.729 323.019 208.145 318.688 211.165 315.946 C 215.93 322.004 223.159 321.709 229.702 322.306 C 239.261 323.179 248.912 322.741 258.834 320.825 Z"/>
  <path fill="#000000" opacity="1.000000" stroke="none" d="M 220.821 308.217 C 216.507 307.12 214.192 303.911 211.455 301.39 C 209.698 299.772 209.916 297.453 211.097 295.45 C 212.202 293.575 213.802 293.704 215.826 294.156 C 220.403 295.179 224.237 297.246 226.787 301.162 C 228.092 303.165 230.124 305.73 228.416 307.976 C 226.65 310.3 223.686 309.478 220.821 308.217 Z"/>
  <path fill="#000000" opacity="1.000000" stroke="none" d="M 271.705 301.752 C 267.517 297.9 267.261 295.163 270.618 290.489 C 271.94 288.647 273.518 286.898 275.288 285.496 C 276.958 284.172 278.89 284.48 279.631 286.717 C 280.84 290.371 275.788 300.261 271.705 301.752 Z"/>
  <path fill="#000000" opacity="1.000000" stroke="none" d="M 242.956 268.856 C 244.683 268.506 246 267.279 247.721 268.446 C 246.246 275.972 239.256 279.059 234.879 285.049 C 232.53 281.402 232.575 278.213 235.095 275.464 C 237.309 273.049 240.086 271.149 242.956 268.856 Z"/>
  <path fill="#000000" opacity="1.000000" stroke="none" d="M 295.357 228.876 C 296.484 225.345 295.745 221.805 297.645 218.899 C 298.363 217.8 298.969 216.445 300.665 216.971 C 302.125 217.423 301.963 218.787 301.941 219.88 C 301.875 223.169 302.485 226.505 301.364 229.733 C 300.846 231.224 300.9 233.169 298.445 232.981 C 296.112 232.803 295.351 231.409 295.357 228.876 Z"/>
  <path fill="#000000" opacity="1.000000" stroke="none" d="M 334.999 233.07 C 333.54 234.909 332.003 235.832 331.078 233.39 C 329.783 229.971 329.824 226.457 331.59 222.433 C 335.89 225.352 335.539 229.031 334.999 233.07 Z"/>
</svg>