<?xml version="1.0" encoding="utf-8"?>
<svg xmlns="http://www.w3.org/2000/svg" viewBox="0 0 500 500">
  <path fill="#000000" opacity="1.000000" stroke="none" d="M 247.545 349.007 C 239.472 353.356 238.725 361.861 235.472 368.752 C 234.324 371.184 234.006 374.48 230.736 374.064 C 227.56 373.659 226.395 370.787 226.619 367.59 C 228.049 347.171 217.951 332.61 203.204 319.981 C 195.941 313.762 187.934 308.082 182.948 299.525 C 177.148 289.571 173.175 279.143 174.616 267.323 C 175.276 261.912 177.301 257.41 182.766 255.179 C 188.785 252.721 194.419 252.692 199.416 257.497 C 202.654 260.611 206.244 263.158 210.829 264.631 C 212.816 260.439 211.29 256.655 209.546 253.528 C 203.891 243.382 200.592 232.606 198.158 221.274 C 195.072 206.903 203.56 186.754 216.818 179.309 C 223.031 175.82 230.712 178.828 233.29 185.542 C 234.717 189.259 235.998 193.034 237.532 197.305 C 241.311 186.773 244.873 176.562 248.638 166.425 C 252.454 156.154 259.07 148.048 268.082 141.806 C 273.682 137.928 279.313 134.052 284.585 129.75 C 293.409 122.549 301.774 125.761 305.168 136.796 C 309.052 149.428 305.88 161.031 302.061 172.704 C 299.124 181.681 295.5 190.414 290.993 198.748 C 288.285 203.755 289.158 208.903 289.819 214.344 C 293.96 213.879 296.112 211.093 298.854 209.389 C 305.49 205.267 312.173 201.611 320.241 205.686 C 323.281 207.221 324.938 209.362 325.403 212.968 C 326.721 223.198 323.24 231.488 316.995 239.453 C 308.652 250.095 297.35 257.252 287.523 266.126 C 283.739 269.543 280.995 273.64 278.358 277.875 C 277.672 278.978 276.777 280.221 277.598 281.581 C 278.571 283.193 280.397 282.908 281.671 282.487 C 285.337 281.276 289.104 280.795 292.884 280.247 C 299.299 279.317 305.619 279.563 309.298 285.686 C 312.81 291.532 312.239 297.841 309.247 304.058 C 302.86 317.325 290.337 323.175 278.37 329.428 C 267.602 335.055 257.183 341.072 247.545 349.007 M 244.791 291.142 C 241.026 307.654 237.386 324.188 235.423 341.299 C 241.394 340.861 243.872 336.216 247.699 333.792 C 259.537 326.294 272.588 321.082 284.408 313.653 C 290.804 309.633 297.748 306.016 300.345 297.929 C 302.381 291.586 300.114 288.702 293.338 289.846 C 289.754 290.451 286.241 291.508 282.719 292.449 C 273.293 294.969 263.943 286.325 266.373 277.05 C 268.744 268.002 275.317 261.69 281.939 255.772 C 287.877 250.465 294.74 246.206 300.885 241.113 C 307.662 235.497 314.491 229.75 315.238 219.935 C 315.357 218.363 315.542 216.828 314.112 215.877 C 312.615 214.883 310.452 214.721 309.434 215.928 C 306.771 219.085 302.774 219.501 299.553 221.444 C 293.593 225.04 287.842 223.237 282.696 219.859 C 277.782 216.632 278.477 211.247 278.966 206.223 C 280.126 194.285 285.231 183.589 290.333 173.085 C 295.444 162.563 296.789 151.924 294.851 140.642 C 294.058 136.028 292.776 135.463 289.156 138.144 C 284.478 141.608 279.595 144.879 275.354 148.828 C 270.036 153.78 263.095 157.637 260.382 164.628 C 257.045 173.23 253.033 181.634 251.208 190.829 C 250.177 196.022 248.235 201.014 245.041 205.413 C 243.122 208.056 241.153 210.48 237.49 210.318 C 233.515 210.142 231.391 207.585 229.505 204.405 C 227.386 200.833 227.399 196.823 226.433 193.01 C 225.081 187.68 220.867 186.658 216.935 190.628 C 208.555 199.089 206.357 209.446 208.091 220.872 C 209.97 233.253 217.24 243.48 221.907 254.744 C 224.04 259.893 223.077 268.74 219.017 272.29 C 214.904 275.885 208.262 275.654 202.958 271.592 C 200.186 269.468 197.651 267.031 194.851 264.948 C 192.393 263.12 190.045 260.622 186.396 262.753 C 182.92 264.783 182.524 268.074 182.763 271.432 C 183.42 280.681 187.172 288.934 192.992 295.837 C 198.864 302.801 205.462 309.261 212.383 315.194 C 217.282 319.394 220.79 325.007 226.488 328.81 C 227.238 326.583 228.401 324.711 228.417 322.828 C 228.516 311.199 232.333 300.294 234.791 289.141 C 237.218 278.129 239.54 267.041 242.557 256.222 C 245.481 245.737 248.304 235.162 252.345 224.909 C 257.589 211.603 262.736 198.315 269.464 185.68 C 270.51 183.716 271.545 181.783 274.42 182.483 C 276.053 184.872 275.038 187.208 274.278 189.569 C 269.399 204.732 263.089 219.395 258.678 234.727 C 253.395 253.087 249.423 271.762 244.791 291.142 Z"/>
</svg>