<?xml version="1.0" encoding="utf-8"?>
<svg xmlns="http://www.w3.org/2000/svg" viewBox="0 0 500 500">
  <path fill="#000000" opacity="1.000000" stroke="none" d="M -164.13 -107.67 C -153.43 -116.66 -143.38 -125.92 -132.46 -134.02 C -122.16 -141.67 -110.41 -148.02 -97.609 -149 C -77.672 -150.52 -58.732 -145.99 -42.472 -133.3 C -39.98 -131.35 -37.321 -129.62 -34.831 -127.68 C -26.765 -121.37 -18.776 -122.57 -10.919 -127.96 C -5.708 -131.54 -0.442 -135.09 4.442 -139.09 C 23.106 -154.36 40.302 -153.32 59.751 -142.09 C 70.741 -135.75 79.209 -126.4 87.747 -117.42 C 99.791 -104.77 114.196 -96.447 130.082 -90.015 C 132.034 -89.225 136.201 -89.047 134.888 -85.638 C 133.766 -82.722 130.251 -83.695 127.761 -84.61 C 117.041 -88.549 105.638 -90.933 96.066 -97.539 C 92.322 -100.12 89.478 -103.88 85.961 -106.87 C 78.358 -113.33 71.28 -120.4 63.657 -126.83 C 54.707 -134.39 44.516 -139.35 32.536 -140 C 24.689 -140.42 18.645 -136.63 12.532 -132.37 C 3.211 -125.88 -5.399 -118.25 -16.662 -114.77 C -24.771 -112.27 -31.521 -114.47 -38.344 -118.55 C -48.03 -124.34 -57.234 -131 -67.84 -135.17 C -82.049 -140.75 -95.731 -140 -109.87 -133.86 C -126.9 -126.47 -139.81 -113.64 -154.29 -102.85 C -165.86 -94.22 -177.63 -85.992 -190.42 -79.126 C -200.04 -73.965 -209.83 -69.255 -219.9 -65.253 C -234.82 -59.328 -250.21 -55.334 -266.41 -59.992 C -269.73 -60.945 -272.97 -62.249 -274.13 -66.634 C -268.56 -68.091 -263.08 -67.886 -257.77 -67.476 C -240.82 -66.165 -225.59 -71.543 -210.9 -78.973 C -194.65 -87.197 -178.43 -95.543 -164.13 -107.67 Z"/>
  <path fill="#000000" opacity="1.000000" stroke="none" d="M 45.376 -69.354 C 47.219 -68.372 48.897 -67.558 48.207 -65.455 C 47.59 -63.575 45.698 -64.023 44.336 -64.04 C 38.038 -64.121 31.744 -64.404 25.447 -64.556 C 17.405 -64.751 9.315 -64.405 1.331 -65.175 C -8.62 -66.134 -18.593 -66.156 -28.524 -66.2 C -38.22 -66.244 -48.062 -67.308 -57.688 -64.55 C -60.327 -63.794 -63.304 -64.028 -66.116 -64.12 C -68.25 -64.191 -70.721 -64.405 -71.686 -66.722 C -72.719 -69.204 -71.932 -71.479 -70.187 -73.632 C -64.352 -80.833 -57.153 -86.343 -49.39 -91.271 C -45.411 -93.798 -42.315 -97.698 -36.991 -97.946 C -34.636 -98.056 -32.832 -97.796 -31.121 -96.122 C -27.19 -92.275 -23.307 -88.402 -20.25 -83.791 C -19.974 -83.375 -19.714 -82.946 -19.412 -82.55 C -12.844 -73.929 -7.424 -73.723 0.359 -81.371 C 4.146 -85.092 8.387 -88.356 12.481 -91.756 C 15.608 -94.353 18.28 -93.236 20.591 -90.474 C 21.227 -89.714 21.792 -88.853 22.202 -87.952 C 26.732 -77.985 35.363 -73.122 45.376 -69.354 Z"/>
  <path fill="#000000" opacity="1.000000" stroke="none" d="M 155.37 246.573 C 166.073 237.591 176.123 228.328 187.036 220.229 C 197.344 212.579 209.086 206.229 221.89 205.252 C 241.826 203.731 260.767 208.262 277.027 220.951 C 279.518 222.895 282.177 224.624 284.667 226.57 C 292.733 232.873 300.723 231.677 308.579 226.284 C 313.791 222.706 319.057 219.159 323.941 215.162 C 342.604 199.884 359.8 200.932 379.249 212.157 C 390.24 218.5 398.708 227.852 407.246 236.825 C 419.29 249.482 433.695 257.801 449.581 264.232 C 451.532 265.022 455.699 265.2 454.387 268.609 C 453.265 271.525 449.75 270.552 447.259 269.637 C 436.539 265.699 425.137 263.315 415.565 256.709 C 411.821 254.125 408.977 250.367 405.459 247.38 C 397.856 240.922 390.779 233.845 383.156 227.413 C 374.205 219.86 364.014 214.895 352.035 214.25 C 344.188 213.827 338.144 217.614 332.031 221.874 C 322.709 228.371 314.1 235.994 302.837 239.474 C 294.728 241.98 287.978 239.773 281.154 235.695 C 271.469 229.908 262.264 223.251 251.658 219.082 C 237.45 213.496 223.768 214.249 209.631 220.384 C 192.598 227.775 179.683 240.608 165.207 251.401 C 153.636 260.027 141.874 268.256 129.079 275.122 C 119.461 280.282 109.666 284.993 99.595 288.994 C 84.681 294.919 69.288 298.914 53.084 294.255 C 49.77 293.302 46.528 291.998 45.363 287.614 C 50.942 286.157 56.422 286.361 61.729 286.772 C 78.676 288.082 93.908 282.704 108.595 275.275 C 124.852 267.05 141.074 258.704 155.37 246.573 Z"/>
  <path fill="#000000" opacity="1.000000" stroke="none" d="M 364.875 284.893 C 366.718 285.875 368.396 286.689 367.706 288.793 C 367.089 290.673 365.197 290.224 363.834 290.207 C 357.537 290.126 351.242 289.843 344.945 289.691 C 336.903 289.497 328.813 289.842 320.829 289.072 C 310.879 288.113 300.906 288.091 290.975 288.047 C 281.278 288.003 271.436 286.94 261.811 289.697 C 259.171 290.454 256.194 290.22 253.383 290.127 C 251.249 290.057 248.777 289.842 247.813 287.525 C 246.78 285.044 247.567 282.768 249.311 280.615 C 255.146 273.415 262.345 267.905 270.109 262.976 C 274.088 260.45 277.183 256.549 282.508 256.301 C 284.863 256.192 286.666 256.451 288.378 258.126 C 292.308 261.972 296.191 265.846 299.249 270.456 C 299.525 270.872 299.785 271.301 300.087 271.697 C 306.655 280.318 312.075 280.525 319.858 272.876 C 323.644 269.155 327.886 265.892 331.98 262.492 C 335.107 259.894 337.779 261.011 340.09 263.773 C 340.726 264.533 341.291 265.395 341.7 266.295 C 346.231 276.263 354.861 281.125 364.875 284.893 Z"/>
</svg>