<?xml version="1.0" encoding="utf-8"?>
<svg xmlns="http://www.w3.org/2000/svg" viewBox="0 0 500 500">
  <path fill="#000000" opacity="1.000000" stroke="none" d="M 267.51 253.39 C 265.737 256.683 267.673 259.7 267.275 262.501 C 265.795 272.92 269.511 281.804 274.086 290.769 C 281.768 305.821 283.44 322.466 286.425 338.819 C 287.622 345.376 288.495 351.792 288.442 358.378 C 288.42 361.238 289.551 362.678 292.357 363.09 C 294.486 363.403 296.556 364.157 298.688 364.408 C 305.715 365.235 307.99 370.529 309.093 376.192 C 310.118 381.447 306.599 384.824 302.392 387.399 C 298.511 389.774 294.298 391.539 289.856 392.15 C 282.628 393.144 275.331 393.728 268.044 394.171 C 262.798 394.49 259.293 392.14 257.711 386.772 C 254.593 376.193 252.442 365.184 252.508 354.44 C 252.606 338.52 249.132 323.996 242.215 309.983 C 241.332 308.194 240.518 306.347 238.436 305.64 C 236.211 305.961 236.104 307.933 235.592 309.387 C 230.263 324.527 220.763 336.443 209.272 347.6 C 204.429 352.302 200.113 358.591 196.123 364.549 C 193.878 367.902 197.35 369.588 199.277 371.422 C 204.627 376.512 205.696 381.897 202.043 387.434 C 199.586 391.157 196.185 392.761 191.482 392.576 C 176.442 391.984 166.294 382.985 157.077 372.696 C 152.353 367.422 152.412 361.93 156.72 356.295 C 163.678 347.194 170.439 337.934 178.961 330.09 C 193.686 316.538 199.041 299.258 197.99 279.651 C 197.83 276.672 196.566 274.93 193.346 275.152 C 193.015 275.175 192.68 275.152 192.347 275.144 C 182.372 274.886 181.901 275.414 183.534 285.021 C 184.868 292.874 183.416 295.374 175.69 297.724 C 173.578 298.366 173.036 300.106 172.026 301.536 C 169.585 304.99 166.683 305.179 162.508 304.722 C 156.235 304.034 153.671 298.944 149.391 295.973 C 147.238 294.479 147.685 291.807 147.998 289.468 C 148.836 283.201 151.546 277.731 155.163 272.639 C 157.646 269.143 158.419 266.164 155.267 262.011 C 149.969 255.03 152.028 246.684 153.181 238.817 C 155.349 224.028 159.928 209.737 162.127 194.909 C 164.124 181.449 172.544 174.24 186.6 171.693 C 192.548 170.615 198.492 170.402 204.501 170.84 C 209.527 171.205 210.007 170.562 208.86 165.539 C 207.899 161.332 207.052 157.093 205.928 152.93 C 205.038 149.632 204.629 146.341 205.964 143.185 C 207.732 139.002 205.718 137.336 202.052 136.557 C 197.947 135.685 193.915 134.745 190.998 131.326 C 188.442 128.33 186.273 125.143 187.412 121 C 188.654 116.485 192.211 114.794 196.543 114.713 C 198.881 114.669 199.523 113.56 200.15 111.529 C 201.958 105.672 206.697 104.122 211.733 107.735 C 213.468 108.979 215.126 109.536 217.216 109.603 C 222.564 109.775 224.584 111.629 224.356 116.894 C 224.147 121.713 225.799 122.167 229.962 120.779 C 239.25 117.682 248.682 116.527 258.354 119.581 C 269.309 123.04 273.823 131.723 276.302 141.715 C 279.167 153.254 278.223 164.809 274.426 176.077 C 272.915 180.558 270.479 184.528 266.975 187.758 C 264.097 190.411 264.648 192.608 267.759 194.502 C 283.099 203.839 294.163 204.401 305.265 188.945 C 310.138 182.16 313.833 175.496 312.85 166.509 C 311.96 158.374 314.459 156.592 323.012 156.697 C 324.867 156.72 325.483 155.161 326.44 154.13 C 329.668 150.656 332.978 148.231 337.5 152.165 C 337.851 152.47 338.402 152.577 338.88 152.697 C 345.666 154.407 345.98 154.802 346.168 161.993 C 353.43 166.208 353.864 167.62 349.279 174.768 C 344.492 182.232 338.988 189.112 331.629 194.269 C 329.375 195.848 328.012 197.885 326.953 200.49 C 323.178 209.77 318.77 218.672 311.322 225.772 C 302.719 233.973 292.509 237.028 281.082 234.957 C 276.292 234.088 274.459 235.461 273.07 239.624 C 271.549 244.185 269.479 248.564 267.51 253.39 M 256.404 329.42 C 256.7 330.882 257.079 332.334 257.28 333.81 C 259.585 350.767 259.165 346.818 273.64 344.369 C 277.685 343.685 280.494 342.104 278.909 337.065 C 278.174 334.73 278.174 332.151 277.943 329.673 C 276.27 311.696 270.085 295.145 262.097 279.147 C 260.996 276.942 259.505 275.865 256.96 276.184 C 254.657 276.472 252.308 276.389 250.004 276.67 C 237.079 278.243 224.125 277.911 211.197 277.002 C 204.837 276.556 204.74 276.567 204.405 283.112 C 203.691 297.028 203.539 310.994 194.056 322.835 C 185.029 334.106 185.539 335.199 197.73 343.204 C 200.388 344.949 202.328 344.905 204.725 342.629 C 215.752 332.166 224.534 320.204 229.787 305.852 C 231.956 299.927 233.821 293.891 235.81 287.901 C 236.434 286.023 236.757 283.545 239.468 284.083 C 242.241 284.633 241.676 287.373 241.292 289.054 C 240.418 292.883 242.109 295.776 243.779 298.848 C 248.938 308.339 254.377 317.721 256.404 329.42 M 213.998 270.666 C 227.136 271.066 240.253 271.394 253.373 269.814 C 258.267 269.224 260.109 266.967 260.027 262.395 C 259.919 256.399 260.321 250.48 261.561 244.557 C 264.393 231.024 264.582 217.542 259.807 204.28 C 258.649 201.062 257.265 199.155 253.71 201.441 C 248.33 204.9 243.037 204.225 237.665 201.282 C 235.273 199.972 233.193 197.857 230.029 197.6 C 229.809 198.48 229.491 199.104 229.534 199.702 C 229.64 201.187 229.817 202.681 230.129 204.136 C 233.477 219.728 230.745 234.109 222.043 247.518 C 217.78 254.088 211.364 257.886 205.154 262.038 C 203.526 263.126 202.265 264.186 202.66 266.43 C 203.028 268.526 204.625 269.008 206.238 269.379 C 208.498 269.9 210.804 270.218 213.998 270.666 M 247.961 196.286 C 248.27 188.879 254.718 187.876 259.453 184.738 C 266.294 180.206 269.5 173.34 269.638 164.486 C 266.752 165.207 264.568 166.14 262.195 165.484 C 260.305 164.962 257.812 165.174 257.394 162.712 C 256.985 160.306 259.809 160.412 261.015 159.208 C 261.329 157.537 259.266 155.221 261.695 154.277 C 266.11 152.562 267.664 157.313 271.069 159.41 C 272.885 150.813 270.744 143.506 267.03 136.521 C 265.999 134.581 263.916 134.198 261.798 134.282 C 258.222 134.423 254.63 134.683 251.075 134.784 C 246.659 134.91 240.968 136.276 238.262 139.291 C 234.556 143.422 230.408 147.881 228.58 153.496 C 226.951 158.501 224.922 159.209 221.152 155.36 C 218.89 153.051 217.438 153.824 215.996 155.975 C 213.37 159.891 215.72 165.731 221.015 167.408 C 225.39 168.794 227.532 171.736 227.306 175.858 C 226.689 187.114 234.63 191.745 242.56 196.493 C 244.076 197.401 245.739 197.377 247.961 196.286 M 180.298 222.566 C 173.452 233.606 170.367 246.075 166.787 258.344 C 165.466 262.871 167.829 265.038 172.044 266.221 C 176.194 267.385 178.613 266.491 179.842 262.085 C 182.12 253.918 184.765 245.834 188.838 238.359 C 193.053 230.623 197.57 223.037 203.678 216.588 C 205.162 215.02 206.754 212.091 209.323 214.003 C 211.888 215.912 209.655 218.143 208.435 220.056 C 208.078 220.617 207.67 221.145 207.305 221.701 C 202.915 228.385 204.668 235.923 203.497 243.567 C 207.166 242.967 208.393 240.783 209.764 238.763 C 218.294 226.2 218.425 212.598 214.532 198.601 C 212.491 191.264 210.155 190.562 204.025 194.988 C 194.124 202.134 187.172 211.846 180.298 222.566 M 275.438 216.374 C 275.702 218.516 276.263 220.672 276.163 222.797 C 275.987 226.543 278.303 228.041 281.257 228.345 C 287.05 228.942 292.765 228.887 298.364 226.367 C 309.743 221.247 315.098 211.249 320.28 200.864 C 323.38 194.653 317.349 193.996 314.825 191.59 C 311.915 188.817 310.693 192.494 309.269 194.257 C 301.978 203.283 293.522 209.605 280.982 207.003 C 274.551 205.668 273.469 206.79 274.846 213.08 C 275.023 213.89 275.205 214.699 275.438 216.374 M 191.727 194.697 C 191.786 193.374 191.966 192.044 191.883 190.73 C 191.572 185.847 189.308 182.188 184.652 180.426 C 179.574 178.503 176.222 180.987 173.285 184.981 C 169.598 189.996 168.353 195.735 167.554 201.674 C 167.42 202.663 167.548 203.655 168.337 204.433 C 170.339 206.408 183.031 206.345 184.973 204.11 C 187.348 201.376 189.404 198.367 191.727 194.697 M 163.387 246.745 C 166.705 234.929 171.584 223.748 177.837 213.143 C 169.74 209.64 166.144 211.285 164.464 218.753 C 162.209 228.777 159.984 238.808 158.787 249.032 C 158.596 250.665 158.188 252.374 160.414 253.174 C 162.328 251.713 162.172 249.326 163.387 246.745 M 318.939 176.861 C 318.745 178.5 318.311 180.153 318.402 181.776 C 318.662 186.424 324.089 191.411 327.159 189.639 C 333.198 186.153 337.487 180.866 341.557 174.552 C 338.775 174.373 337.272 177.139 335.222 175.304 C 333.033 173.343 335.33 171.347 335.231 168.73 C 332.333 171.848 330.084 168.206 327.474 168.401 C 327.132 169 326.687 169.416 326.687 169.833 C 326.684 177.085 326.697 177.079 320.078 175.75 C 319.856 175.706 319.548 176.087 318.939 176.861 M 174.974 274.76 C 165.4 269.291 163.407 269.761 158.685 278.608 C 158.607 278.754 158.529 278.901 158.441 279.041 C 157.286 280.879 157.798 281.936 159.349 283.628 C 162.073 286.599 166.075 287.978 167.942 291.539 C 171.196 290.679 169.924 286.665 171.979 286.043 C 178.618 284.036 176.662 279.689 174.974 274.76 M 197.421 187.113 C 197.793 187.902 198.45 188.849 199.234 188.514 C 204.712 186.176 210.125 183.687 216.779 180.699 C 212.01 178.635 208.607 177.587 204.979 177.067 C 201.734 176.603 197.955 174.843 195.575 177.674 C 193.233 180.459 196.552 183.482 197.421 187.113 M 186.33 262.449 C 186.151 263.257 185.971 264.066 185.794 264.875 C 185.242 267.408 186.22 268.801 188.853 268.604 C 191.145 268.432 194.389 268.24 193.522 265.033 C 191.839 258.814 193.907 253.283 195.432 247.567 C 195.729 246.454 196.138 245.282 194.189 244.361 C 190.237 249.481 188.231 255.512 186.33 262.449 Z"/>
  <path fill="#000000" opacity="1.000000" stroke="none" d="M 263.029 170.986 C 264.796 176.375 261.201 179.068 257.88 181.342 C 253.751 184.169 248.966 184.191 244.648 181.577 C 240.408 179.01 238.196 174.897 237.85 169.954 C 237.533 165.421 239.625 163.856 243.995 165.216 C 245.419 165.66 246.885 166.175 248.118 166.984 C 252.598 169.923 257.745 170.056 263.029 170.986 Z"/>
  <path fill="#000000" opacity="1.000000" stroke="none" d="M 266.981 143.941 C 267.424 144.983 267.879 145.816 267.737 146.529 C 267.276 148.839 265.749 149.983 263.412 149.352 C 261.861 148.933 260.618 147.664 261.355 146.012 C 262.332 143.822 263.835 141.912 266.981 143.941 Z"/>
  <path fill="#000000" opacity="1.000000" stroke="none" d="M 248.718 149.735 C 246.335 150.375 244.686 149.972 244.06 147.78 C 243.676 146.437 243.908 145.094 245.179 144.267 C 246.636 143.319 248.063 143.7 249.219 144.842 C 250.796 146.4 250.729 148.016 248.718 149.735 Z"/>
</svg>