<?xml version="1.0" encoding="utf-8"?>
<svg xmlns="http://www.w3.org/2000/svg" viewBox="0 0 500 500">
  <path fill="#000000" opacity="1.000000" stroke="none" d="M 303.335 330.77 C 292.888 329.946 282.947 332.908 272.991 330.877 C 271.368 330.546 269.729 330.292 268.106 329.963 C 263.725 329.074 260.233 326.969 259.234 322.326 C 258.368 318.301 261.674 312.07 265.972 310.53 C 270.02 309.079 271.168 306.746 271.137 302.695 C 271.104 298.394 272.872 294.331 276.602 292.018 C 279.752 290.065 280.136 288.046 278.643 285.067 C 278.198 284.178 277.925 283.203 277.565 282.271 C 276.791 280.271 277.182 278.56 279.171 277.646 C 281.227 276.702 282.798 277.85 283.766 279.542 C 285 281.701 285.809 284.105 287.053 286.257 C 289.888 291.161 294.78 291.279 297.196 286.346 C 301.31 277.945 308.049 274.66 317.092 275.184 C 325.492 275.67 331.309 280.137 334.268 287.601 C 336.328 292.798 339.168 294.517 344.661 294.427 C 354.458 294.265 362.089 301.765 362.154 311.798 C 362.202 319.238 358.509 327.469 346.163 328.904 C 332.095 330.538 317.925 329.755 303.335 330.77 M 284.513 324.231 C 296.302 323.178 308.13 323.458 319.941 323.129 C 329.072 322.875 338.219 322.386 347.299 321.427 C 352.584 320.869 355.256 316.821 355.016 311.531 C 354.632 303.067 345.025 298.081 337.185 302.339 C 335.74 303.124 334.497 304.284 333.166 305.277 C 331.976 306.166 330.647 306.384 329.471 305.486 C 328.273 304.573 328.221 303.272 328.847 301.886 C 331.91 295.099 328.836 289.828 324.163 285.417 C 320.279 281.751 315.374 280.682 310.265 282.916 C 304.014 285.648 300.979 290.679 300.457 297.389 C 300.302 299.376 301.563 301.954 298.6 302.964 C 295.794 303.92 294.986 301.259 293.469 299.922 C 292.974 299.486 292.653 298.837 292.13 298.452 C 288.819 296.015 285.162 294.992 281.395 297.048 C 277.605 299.117 277.202 302.834 277.865 306.646 C 278.144 308.252 279.018 309.751 279.58 311.313 C 280.851 314.839 279.355 316.864 275.684 316.539 C 274.697 316.452 273.726 315.957 272.755 315.976 C 269.882 316.032 267.062 316.988 266.864 320.138 C 266.67 323.221 269.358 324.169 272.077 324.228 C 275.906 324.31 279.739 324.256 284.513 324.231 Z"/>
  <path fill="#000000" opacity="1.000000" stroke="none" d="M 154.218 251.988 C 159.274 237.178 173.14 230.849 185.4 237.212 C 190.2 239.703 192.308 244.139 194.372 248.562 C 197.459 248.389 200.266 248.06 203.067 248.107 C 210.273 248.229 214.292 251.868 214.538 259.115 C 214.658 262.622 215.74 264.055 219.182 264.712 C 223.705 265.574 227.251 268.038 227.559 273.224 C 227.822 277.643 224.205 282.573 219.448 284.123 C 216.944 284.939 214.271 285.623 211.662 285.668 C 191.567 286.015 171.469 286.275 151.371 286.361 C 146.062 286.384 141.49 284.176 139.291 279.055 C 136.988 273.691 137.366 268.329 140.949 263.453 C 142.718 261.044 145.184 259.143 148.048 259.385 C 153.71 259.865 154.387 256.7 154.218 251.988 M 212.362 271.288 C 207.189 272.069 206.756 269.49 207.889 265.343 C 208.806 261.987 208.523 258.726 205.469 256.279 C 202.377 253.803 199.464 255.322 196.614 256.672 C 195.126 257.377 193.802 258.443 192.449 259.408 C 191.199 260.3 189.941 261.262 188.374 260.309 C 186.733 259.312 187.337 257.817 187.578 256.303 C 189.142 246.462 180.875 239.478 171.421 242.587 C 163.746 245.111 159.07 253.529 160.793 261.721 C 162.011 267.515 161.24 268.141 155.515 266.409 C 152.474 265.489 149.222 264.701 146.592 267.309 C 144.379 269.503 144.251 272.413 144.924 275.275 C 145.92 279.512 149.093 280.406 152.948 280.327 C 173.089 279.914 193.232 279.557 213.373 279.179 C 216.815 279.114 220.545 277.889 220.364 274.386 C 220.184 270.906 216.221 270.826 212.362 271.288 Z"/>
  <path fill="#000000" opacity="1.000000" stroke="none" d="M 281.939 256.018 C 265.613 277.863 232.004 271.157 223.739 249.507 C 219.002 237.099 221.654 224.92 230.576 215.05 C 240.005 204.621 252.294 201.671 265.708 205.442 C 278.152 208.94 285.12 218.046 287.305 230.442 C 288.873 239.332 287.563 248.047 281.939 256.018 M 229.426 233.199 C 225.746 249.084 239.399 263.39 257.135 262.233 C 268.776 261.474 278.968 252.291 280.085 241.554 C 281.625 226.766 275.076 215.433 262.493 212.525 C 249.542 209.533 235 214.133 229.426 233.199 Z"/>
  <path fill="#000000" opacity="1.000000" stroke="none" d="M 301.027 223.354 C 307.969 219.01 315.785 218.288 322.913 215.593 C 324.745 214.9 326.397 215.671 326.969 217.457 C 327.721 219.805 326.707 221.793 324.419 222.7 C 320.872 224.105 317.228 225.266 313.621 226.519 C 310.802 227.499 307.969 228.44 305.156 229.438 C 303.228 230.122 301.138 230.925 299.697 228.911 C 298.346 227.022 299.029 225.112 301.027 223.354 Z"/>
  <path fill="#000000" opacity="1.000000" stroke="none" d="M 184.121 204.979 C 186.345 203.882 188.363 203.878 190.241 204.588 C 196.269 206.868 202.267 209.234 208.226 211.688 C 210.595 212.664 213.04 214.142 211.853 217.195 C 210.566 220.503 208.025 219.208 205.607 218.27 C 199.753 216 193.765 214.066 187.973 211.657 C 185.415 210.593 181.949 209.504 184.121 204.979 Z"/>
  <path fill="#000000" opacity="1.000000" stroke="none" d="M 303.442 188.583 C 299.729 192.879 296.36 197.003 292.767 200.923 C 291.264 202.563 289.416 204.758 286.834 202.768 C 284.105 200.664 285.408 198.332 287.116 196.286 C 290.739 191.944 294.37 187.605 298.123 183.376 C 300.291 180.933 303.204 178.374 306.143 181.326 C 309.051 184.246 305.065 186.134 303.442 188.583 Z"/>
  <path fill="#000000" opacity="1.000000" stroke="none" d="M 298.516 254.216 C 298.135 250.627 299.891 249.525 302.706 250.151 C 309.194 251.592 315.592 253.383 321.676 256.12 C 323.478 256.931 324.774 258.302 324.363 260.393 C 323.91 262.694 321.832 263.226 320.063 262.72 C 313.375 260.805 306.757 258.639 300.152 256.452 C 299.504 256.237 299.12 255.228 298.516 254.216 Z"/>
  <path fill="#000000" opacity="1.000000" stroke="none" d="M 217.83 181.95 C 216.951 179.23 215.702 176.411 218.762 175.072 C 222.2 173.567 223.239 176.818 224.521 179.05 C 226.75 182.929 228.836 186.89 231.096 190.749 C 232.445 193.051 232.8 195.142 230.354 196.846 C 227.73 198.674 226.351 196.46 225.065 194.851 C 222.035 191.059 220.025 186.654 217.83 181.95 Z"/>
  <path fill="#000000" opacity="1.000000" stroke="none" d="M 262.488 173.816 C 262.444 178.934 262.505 183.588 262.349 188.235 C 262.265 190.723 261.307 193.066 258.386 193.031 C 255.204 192.992 254.96 190.42 255.036 187.968 C 255.19 183.011 254.519 178.029 255.838 173.102 C 256.381 171.073 255.816 168.349 258.95 168.398 C 262.017 168.446 262.556 170.803 262.488 173.816 Z"/>
  <path fill="#000000" opacity="1.000000" stroke="none" d="M 245.147 303.071 C 244.458 305.611 243.889 308.059 240.931 307.314 C 238.077 306.595 237.71 304.184 238.372 301.68 C 239.816 296.215 241.298 290.759 242.897 285.339 C 243.564 283.077 245.017 281.291 247.67 282.164 C 250.364 283.051 249.486 285.197 248.988 287.186 C 247.699 292.34 246.514 297.521 245.147 303.071 Z"/>
</svg>