<?xml version="1.0" encoding="utf-8"?>
<svg xmlns="http://www.w3.org/2000/svg" viewBox="0 0 500 500">
  <path fill="#000000" opacity="1.000000" stroke="none" d="M 206.399 150.223 C 218.946 148.569 230.872 149.128 242.914 151.611 C 257.8 154.682 265.793 165.379 273.192 176.943 C 275.814 181.042 276.478 186.059 276.768 190.796 C 277.568 203.868 279.029 216.965 277.103 230.071 C 276.778 232.283 278.129 233.093 280.011 233.229 C 281.836 233.36 283.715 233.584 285.499 233.308 C 296.235 231.646 306.643 234.652 316.199 238.055 C 328.832 242.554 339.015 251.253 343.136 265.218 C 344.958 271.39 347.797 277.237 348.829 283.682 C 350.007 291.043 351.138 298.515 349.763 305.82 C 347.302 318.894 340.104 328.609 328.953 336.45 C 315.083 346.203 299.202 348.495 283.503 350.344 C 266.254 352.376 250.726 346.127 239.055 332.793 C 230.279 322.767 226.019 310.727 226.16 297.243 C 226.232 290.337 225.975 283.422 228.72 276.073 C 223.981 276.588 220.073 276.151 216.959 277.52 C 208.887 281.069 201.087 278.893 193.698 276.55 C 183.108 273.193 173.147 267.662 165.422 259.699 C 151.501 245.35 143.932 223.768 154.718 201.805 C 161.904 187.172 171.619 175.054 184.079 164.772 C 188.52 161.107 192.355 156.733 197.264 153.56 C 199.976 151.808 202.628 150.227 206.399 150.223 M 262.721 179.09 C 258.697 170.343 250.804 165.734 242.75 162.069 C 231.699 157.04 219.966 156.514 207.945 159.258 C 204.74 159.989 202.213 160.768 199.356 162.531 C 195.138 165.134 193.55 169.636 190.055 172.553 C 183.85 177.73 177.262 182.518 172.986 189.614 C 165.91 201.356 156.856 211.9 160.377 227.846 C 162.021 235.289 164.851 241.578 168.801 247.392 C 177.313 259.917 191.022 264.675 204.601 269.247 C 206.377 269.845 208.273 270.632 210.423 270.054 C 216.971 268.292 223.586 266.777 230.15 265.067 C 231.957 264.597 233.191 263.294 234.394 261.797 C 240.321 254.418 246.031 246.467 255.173 242.953 C 264.554 239.348 267.312 231.527 268.505 223.238 C 270.641 208.395 267.991 193.881 262.721 179.09 M 257.277 251.976 C 251.085 255.696 245.634 260.251 242.216 266.72 C 238.414 273.915 237.423 281.711 236.307 289.793 C 234.337 304.07 239.186 315.494 247.508 326.014 C 255.81 336.508 267.48 340.378 280.421 340.799 C 293.82 341.235 306.2 336.569 318.394 331.977 C 327.871 328.409 334.227 321.289 337.813 311.404 C 341.789 300.442 340.05 290.022 337.335 279.256 C 332.825 261.376 322.345 249.163 304.588 243.947 C 294.72 241.048 284.752 239.99 274.53 243.983 C 268.799 246.222 263.525 249.211 257.277 251.976 Z"/>
  <path fill="#000000" opacity="1.000000" stroke="none" d="M 216.276 186.432 C 216.848 177.971 219.218 174.435 225.046 172.845 C 229.014 171.762 232.421 173.694 232.988 177.787 C 233.545 181.81 234.005 186.226 231.538 189.629 C 228.139 194.318 218.405 192.333 216.276 186.432 Z"/>
  <path fill="#000000" opacity="1.000000" stroke="none" d="M 215.809 251.511 C 212.251 247.668 212.478 240.572 215.932 236.259 C 218.052 233.612 223.616 233.076 226.834 235.29 C 227.622 235.832 228.366 236.57 228.862 237.381 C 230.536 240.119 229.471 248.22 226.68 251.013 C 223.576 254.12 219.83 253.708 215.809 251.511 Z"/>
  <path fill="#000000" opacity="1.000000" stroke="none" d="M 197.03 206.125 C 200.655 209.783 201.127 213.93 199.926 218.237 C 198.642 222.837 195.39 225.259 190.576 225.752 C 187.061 226.112 185.304 224.958 185.158 221.214 C 184.851 213.379 189.909 206.525 197.03 206.125 Z"/>
  <path fill="#000000" opacity="1.000000" stroke="none" d="M 256.744 203.896 C 256.548 209.932 253.787 213.473 248.362 215.273 C 243.079 217.026 241.672 216.29 241.195 210.701 C 240.545 203.084 241.876 201.037 248.397 199.679 C 252.089 198.91 254.933 200.028 256.744 203.896 Z"/>
  <path fill="#000000" opacity="1.000000" stroke="none" d="M 191.835 190.63 C 191.501 191.082 191.387 191.203 191.293 191.337 C 189.734 193.54 188.744 196.482 185.051 195.752 C 183.238 195.394 183.277 194.067 183.214 192.76 C 183.045 189.276 184.93 186.826 187.522 184.911 C 188.874 183.913 190.413 184.516 191.64 185.471 C 193.461 186.887 192.962 188.6 191.835 190.63 Z"/>
  <path fill="#000000" opacity="1.000000" stroke="none" d="M 271.663 315.248 C 272.541 312.654 273.158 310.41 274.023 308.268 C 276.052 303.245 278.341 302.542 284.435 304.236 C 289.36 305.604 287.955 309.295 287.484 312.314 C 286.877 316.193 284.659 319.195 281.255 321.486 C 278.598 323.274 275.969 323.694 273.336 322.328 C 270.619 320.917 271.188 318.141 271.663 315.248 Z"/>
  <path fill="#000000" opacity="1.000000" stroke="none" d="M 310.275 300.879 C 310.603 299.521 310.888 298.574 311.191 297.633 C 312.281 294.247 314.198 291.403 318.081 291.764 C 321.718 292.103 324.223 294.958 324.517 298.326 C 324.833 301.934 322.37 304.734 318.935 306.104 C 313.811 308.149 311.064 306.547 310.275 300.879 Z"/>
  <path fill="#000000" opacity="1.000000" stroke="none" d="M 290.571 262.484 C 294.817 259.79 296.435 263.151 297.878 265.488 C 299.462 268.052 300.842 270.872 298.059 274.035 C 295.905 276.483 293.787 278.372 290.492 277.553 C 287.119 276.714 286.455 273.953 286.825 270.893 C 287.192 267.864 288.36 265.133 290.571 262.484 Z"/>
  <path fill="#000000" opacity="1.000000" stroke="none" d="M 266.322 285.197 C 266.03 286.229 266.001 286.918 265.759 287.521 C 264.746 290.036 263.545 292.863 260.209 291.799 C 257.13 290.817 257.11 287.782 257.77 285.201 C 258.665 281.7 260.043 278.326 261.151 274.877 C 261.85 272.698 263.444 272.296 265.439 272.443 C 267.854 272.621 267.657 274.471 267.819 276.082 C 268.123 279.103 267.634 282.011 266.322 285.197 Z"/>
</svg>