<?xml version="1.0" encoding="utf-8"?>
<svg xmlns="http://www.w3.org/2000/svg" viewBox="0 0 500 500">
  <path fill="#000000" opacity="1.000000" stroke="none" d="M 358.981 269.21 C 360.767 259.595 354.549 248.821 342.504 245.707 C 332.474 243.115 322.402 241.529 311.987 243.631 C 306.113 244.817 305.29 244.215 304.987 238.087 C 304.315 224.533 297.934 214.82 285.367 210.206 C 278.884 207.826 271.898 206.018 264.493 207.6 C 260.709 208.409 256.667 208.242 252.722 208.923 C 240.41 211.05 230.232 216.465 222.789 226.675 C 221.91 227.879 220.95 229.077 219.821 230.033 C 218.163 231.437 216.305 232.333 214.965 229.603 C 212.279 224.131 208.611 219.815 202.193 218.827 C 194.106 217.583 187.183 220.373 180.821 225.112 C 171.741 231.874 170.589 241.47 171.969 251.533 C 172.615 256.239 171.539 256.924 167.454 255.634 C 157.493 252.489 148.169 253.692 139.363 259.558 C 135.417 262.186 133.552 266.586 130.273 269.876 C 125.61 263.201 139.579 247.591 150.136 247.268 C 154.2 247.144 158.271 248.574 162.925 247.987 C 160.718 229.318 169.58 217.499 186.749 212.267 C 196.941 209.161 207.733 207.85 216.727 217.215 C 220.253 215.46 222.435 211.74 225.978 209.529 C 249.736 194.702 274.174 196.807 298.487 207.025 C 306.636 210.45 311.77 217.986 312.485 227.42 C 312.769 231.173 314.17 231.687 317.873 231.629 C 334.963 231.36 350.81 235.005 363.636 247.519 C 374.14 257.767 372.652 276.157 360.483 284.015 C 356.456 286.616 352.996 289.959 348.41 291.857 C 336.672 296.717 324.355 298.633 311.888 300.415 C 298.981 302.26 286.564 300.157 274.084 297.623 C 270.679 296.932 268.179 294.621 265.476 292.722 C 264.094 291.751 262.96 290.213 263.763 288.432 C 264.656 286.452 266.769 286.801 268.156 287.42 C 276.479 291.135 285.237 290.784 294.058 290.944 C 308.645 291.21 322.7 288.861 336.43 284.1 C 339.558 283.015 342.732 282.007 345.953 281.253 C 352.465 279.728 357.02 276.164 358.981 269.21 Z"/>
</svg>