<?xml version="1.0" encoding="utf-8"?>
<svg xmlns="http://www.w3.org/2000/svg" viewBox="0 0 500 500">
  <path fill="#000000" opacity="1.000000" stroke="none" d="M 228.459 364.626 C 221.764 364.759 215.649 364.405 210.379 360.461 C 210.116 360.264 209.793 359.987 209.509 360 C 196.287 360.595 186.206 350.687 173.586 349.241 C 172.278 349.092 170.969 348.291 169.877 349.517 C 163.744 356.4 156.463 354.913 149.242 352.082 C 146.848 351.143 144.636 350.418 142.083 350.603 C 139.539 350.789 137.157 350.054 134.809 349.11 C 130.694 347.455 127.11 344.755 122.533 343.898 C 118.943 343.226 117.587 339.587 116.671 336.371 C 115.951 333.843 115.35 331.065 115.641 328.505 C 116.581 320.221 115.862 312.008 115.307 303.77 C 114.58 292.968 117.6 283.027 122.427 273.536 C 129.347 259.93 131.388 245.581 129.762 230.46 C 128.823 221.72 129.202 212.885 128.547 204.08 C 127.524 190.324 127.591 176.482 127.37 162.674 C 127.259 155.776 128.999 153.512 135.409 151.15 C 143.634 148.119 152.265 147.36 160.898 147.124 C 177.05 146.683 193.115 148.053 209.114 150.242 C 209.909 150.351 210.721 150.334 212.159 150.408 C 210.782 138.165 219.45 135.807 228.181 135.389 C 253.615 134.172 279.133 133.358 303.802 141.655 C 311.077 144.102 314.402 147.792 314.136 155.417 C 313.811 164.76 312.442 173.967 311.242 183.159 C 308.741 202.315 306.175 221.457 304.135 240.67 C 303.818 243.657 305.161 245.289 307.283 246.892 C 318.219 255.155 330.718 259.994 343.692 263.929 C 353.229 266.821 362.714 269.741 371.092 275.625 C 384.353 284.938 388.905 310.089 380.685 323.62 C 376.881 329.883 370.824 333.092 364.385 335.36 C 346.92 341.511 328.901 342.123 310.763 339.259 C 307.635 338.765 306.542 339.545 305.768 342.219 C 302.728 352.722 295.086 357.192 284.769 358.495 C 279.537 359.156 275.189 363.352 269.684 363.056 C 258.512 362.457 247.566 367.671 236.234 364.125 C 234.062 363.445 231.374 364.415 228.459 364.626 M 126.825 282.919 C 123.437 290.549 122.708 298.595 122.937 306.829 C 123.161 314.873 124.103 316.257 131.974 317.915 C 151.991 322.132 172.047 326.097 191.813 331.498 C 212.383 337.119 233.23 341.462 254.805 340.263 C 269.674 339.437 283.739 335.98 296.379 327.787 C 297.999 326.738 300.274 325.898 300 323.456 C 299.337 317.541 298.991 311.649 295.157 306.446 C 288.325 297.174 278.713 292.819 268.197 289.536 C 264.291 288.317 261.2 288.927 257.915 291.124 C 253.077 294.361 248.058 297.333 243.039 300.288 C 240.727 301.649 238.152 302.034 236.253 299.652 C 234.404 297.334 235.322 294.875 236.837 292.747 C 238.624 290.238 241.533 289.073 243.899 287.251 C 245.279 286.188 247.343 285.807 247.696 283.37 C 243.972 280.212 240.46 278.461 235.363 281.634 C 230.422 284.709 225.563 287.92 220.595 290.95 C 216.388 293.516 211.999 291.88 211.785 287.835 C 211.637 285.021 213.354 283.191 215.55 281.78 C 219.987 278.928 224.454 276.121 229.104 273.171 C 225.695 269.157 222.245 268.007 217.655 270.706 C 213.212 273.319 208.547 275.57 203.896 277.806 C 201.208 279.099 198.124 279.686 196.317 276.661 C 194.653 273.875 196.654 271.599 198.666 269.724 C 199.633 268.823 200.722 267.98 201.895 267.387 C 205.606 265.512 209.395 263.793 213.131 261.966 C 217.079 260.035 215.609 256.417 215.225 253.572 C 214.829 250.635 212.261 252.098 210.358 252.178 C 205.371 252.387 200.373 252.389 195.379 252.381 C 193.221 252.377 191.468 251.479 190.711 249.301 C 189.956 247.129 190.941 245.368 192.349 243.858 C 194.151 241.926 196.525 241.156 199.103 241.09 C 202.101 241.014 205.102 241.071 208.101 241.043 C 215.965 240.97 216.941 239.9 217.389 232.183 C 217.601 228.538 216.061 227.014 212.731 227.777 C 207.435 228.99 202.11 228.265 196.804 228.496 C 193.639 228.634 190.441 228.253 190.213 224.177 C 189.977 219.927 192.998 218.357 196.613 218.007 C 201.57 217.526 206.555 217.276 211.533 217.071 C 218.896 216.768 218.967 216.763 220.041 209.719 C 220.905 204.063 220.095 203.212 214.493 203.344 C 207.999 203.497 201.501 203.479 195.005 203.57 C 192.658 203.603 190.571 203.194 190.055 200.481 C 189.557 197.862 190.667 196.027 193.082 194.828 C 195.531 193.612 198.052 193.105 200.786 193.081 C 206.611 193.032 212.448 192.964 218.252 192.528 C 220.197 192.382 223.02 192.197 223.201 189.276 C 223.598 182.847 226.054 176.67 225.711 170.14 C 222.64 168.775 219.926 170.362 217.218 170.635 C 201.876 172.18 186.664 170.137 171.399 169.462 C 160.551 168.983 149.992 166.645 139.343 164.897 C 135.836 164.321 133.797 164.744 133.968 168.886 C 134.125 172.712 133.858 176.56 134.08 180.38 C 135.239 200.274 136.678 220.154 137.657 240.057 C 138.396 255.091 133.742 268.932 126.825 282.919 M 281.938 248.893 C 284.531 247.764 287.031 246.072 289.737 245.623 C 295.525 244.663 296.216 240.977 295.814 235.945 C 288.852 234.181 281.899 235.647 275.007 235.801 C 272.512 235.858 270.168 236.421 269.482 233.332 C 268.854 230.5 269.595 227.939 272.496 226.644 C 274.943 225.551 277.562 225.082 280.266 225.053 C 284.597 225.006 288.933 224.98 293.257 224.755 C 298.871 224.462 297.678 219.714 298.143 216.458 C 298.658 212.85 295.473 213.269 293.272 213.227 C 287.274 213.111 281.272 213.225 275.273 213.16 C 271.519 213.119 267.43 213.144 267.411 207.834 C 267.392 202.491 271.605 203.145 275.019 203.096 C 282.184 202.993 289.354 203.144 296.517 202.981 C 299.528 202.913 301.961 198.099 301.202 194.074 C 300.489 190.296 297.872 192.102 295.721 192.196 C 288.255 192.518 280.816 193.972 273.312 192.839 C 270.559 192.424 267.894 191.692 267.714 188.252 C 267.535 184.808 269.563 183.249 272.777 182.569 C 275.092 182.08 277.387 181.856 279.717 181.949 C 286.036 182.203 292.353 182.484 298.667 182.832 C 301.704 182.999 303.246 181.892 303.536 178.657 C 304.054 172.87 304.673 167.07 305.699 161.357 C 306.507 156.863 304.604 156.281 300.818 156.657 C 275.933 159.128 251.348 156.903 226.934 151.848 C 224.718 151.389 222.453 149.893 219.601 150.932 C 221.361 154.448 224.729 154.438 227.281 155.645 C 233.414 158.545 235.314 162.068 234.243 168.746 C 233.401 173.996 232.719 179.273 232.044 184.548 C 229.032 208.102 226.092 231.666 223 255.211 C 222.606 258.206 223.199 259.97 225.962 261.643 C 239.965 270.12 254.326 277.576 270.19 282.209 C 286.922 287.095 301.41 295.171 306.051 314.006 C 306.649 316.434 308.676 316.117 310.466 316.322 C 322.123 317.657 333.778 317.222 345.359 315.756 C 355.302 314.498 365 312.097 373.781 306.915 C 375.69 305.788 377.726 304.738 377.153 302.01 C 375.093 292.197 371.083 283.811 361.528 278.915 C 353.879 274.994 345.492 273.479 337.487 270.739 C 335.885 270.19 334.193 270.447 332.643 271.294 C 327.67 274.012 322.695 276.746 318.488 280.602 C 313.868 284.837 310.839 285.454 308.324 282.46 C 306.19 279.918 307.532 276.359 311.977 272.98 C 314.23 271.268 316.561 269.658 318.845 267.988 C 319.774 267.309 320.832 266.708 320.829 264.807 C 317.63 262.439 314.464 261.062 310.402 264.148 C 306.301 267.263 301.842 269.906 297.537 272.749 C 294.342 274.859 290.957 275.067 288.622 271.935 C 286.075 268.518 288.65 266.07 291.372 264.108 C 295.504 261.131 299.682 258.218 303.865 255.259 C 302.331 252.13 300.339 251.557 297.517 252.568 C 293.731 253.925 290.188 255.72 286.726 257.735 C 284.721 258.902 282.64 259.964 280.516 260.894 C 278.147 261.931 275.88 261.669 274.291 259.43 C 272.561 256.991 273.882 254.821 275.568 253.19 C 277.211 251.6 279.343 250.516 281.938 248.893 M 279.353 351.234 C 281.013 350.085 282.804 350.512 284.648 350.617 C 292.839 351.085 300.398 342.987 298.642 335.463 C 281.77 345.474 263.258 348.688 244.055 348.305 C 233.258 348.091 222.637 345.946 212.057 343.731 C 192.693 339.677 173.911 333.249 154.397 329.814 C 144.975 328.156 135.664 325.929 126.18 323.256 C 125.706 325.695 125.526 327.699 124.914 329.56 C 123.407 334.138 123.959 337.297 129.615 337.772 C 131.231 337.907 131.918 339.528 132.943 340.603 C 136.133 343.949 141.106 345.056 144.135 342.636 C 147.058 340.301 148.454 341.133 150.516 343.795 C 154.094 348.414 160.694 348.016 164.072 343.26 C 165.497 341.253 167.167 341.403 169.312 341.664 C 176.804 342.578 183.609 346.171 191.089 347.041 C 192.504 347.205 193.47 348.064 194.518 348.917 C 199.101 352.643 204.19 354.537 210.15 352.889 C 211.738 352.45 213.166 352.722 214.279 353.925 C 219.234 359.275 225.306 358.384 231.432 356.994 C 233.684 356.483 235.924 355.211 238.175 356.624 C 242.625 359.419 247.58 359.731 252.133 358.05 C 257.834 355.945 263.538 355.994 269.379 355.826 C 272.913 355.725 276.168 354.28 279.353 351.234 M 365.82 327.021 C 371.933 324.559 376.961 321.206 377.133 313.116 C 375.392 313.923 374.052 314.49 372.759 315.151 C 365.432 318.897 357.615 321.023 349.569 322.601 C 337.371 324.993 325.081 324.757 312.766 324.494 C 308.355 324.399 306.329 327.157 308.134 330.652 C 309.269 332.847 311.552 332.603 313.414 332.776 C 330.999 334.408 348.229 332.489 365.82 327.021 Z"/>
</svg>