<?xml version="1.0" encoding="utf-8"?>
<svg xmlns="http://www.w3.org/2000/svg" viewBox="0 0 500 500">
  <path fill="#000000" opacity="1.000000" stroke="none" d="M 145.143 359.344 C 135.774 355.429 132.088 345.316 135.648 334.381 C 140.86 318.375 152.705 308.915 167.513 302.707 C 178.716 298.01 190.208 294.008 201.525 289.579 C 206.986 287.441 211.964 284.465 216.334 280.462 C 223.371 274.018 225.728 265.674 225.868 256.611 C 226.124 239.949 225.923 223.281 226.172 206.62 C 226.419 190.139 227.497 173.659 226.867 157.179 C 226.511 147.87 225.949 138.576 226.137 129.253 C 226.252 123.572 229.135 119.875 234.254 117.846 C 240.513 115.366 247.207 114.606 253.784 114.039 C 276.86 112.047 299.949 111.529 322.878 115.828 C 325.651 116.347 328.393 117.126 331.076 118.008 C 336.364 119.744 338.6 123.878 337.353 129.363 C 336.653 132.439 336.068 135.557 335.108 138.554 C 333.935 142.218 335.509 143.508 338.878 143.667 C 343.903 143.904 348.721 145.302 353.577 146.426 C 363.519 148.727 366.711 153.83 365.413 163.809 C 361.342 195.106 355.852 226.176 350.829 257.323 C 348.749 270.222 348.694 283.133 353.474 295.707 C 357.566 306.472 356.064 317.685 355.38 328.784 C 354.839 337.576 354.221 346.363 353.545 355.145 C 353.329 357.949 352.932 360.752 352.41 363.515 C 351.939 366.013 350.31 367.59 347.824 368.271 C 336.866 371.27 325.654 372.537 314.351 373.108 C 310.717 373.292 307.715 371.794 306.317 368.325 C 305.228 365.621 303.732 365.652 301.242 366.201 C 295.843 367.392 291.538 370.234 287.327 373.637 C 284.657 375.794 282.413 379.389 277.999 378.222 C 277.102 377.985 277.02 378.675 276.694 379.277 C 275.018 382.37 271.629 384.01 268.866 383.785 C 264.611 383.439 261.312 386.318 257.571 386.143 C 249.164 385.75 240.801 389.157 232.371 386.221 C 230.152 385.448 228.186 387.776 225.709 387.41 C 210.584 385.171 195.098 384.902 180.777 378.467 C 176.079 376.355 172.439 373.512 171.333 368.326 C 170.778 365.726 169.166 364.812 166.877 364.389 C 159.685 363.059 152.473 361.813 145.143 359.344 M 267.57 186.468 C 267.573 199.298 267.596 212.128 267.574 224.958 C 267.547 241.104 267.846 257.251 266.646 273.384 C 265.781 285.003 261.905 295.074 253.042 302.942 C 247.641 307.736 241.563 311.41 234.986 314.375 C 222.686 319.92 209.592 323.401 197.372 329.204 C 188.187 333.565 181.474 340.082 177.503 349.314 C 174.909 355.343 176.308 358.044 182.33 360.369 C 190.896 363.676 199.677 366.16 208.776 367.473 C 230.886 370.665 252.572 369.81 273.423 360.778 C 287.475 354.69 301.7 349.1 316.75 345.9 C 325.225 344.099 333.483 341.532 341.693 338.776 C 344.969 337.676 347.205 336.16 347.438 332.317 C 348.052 322.199 349.8 311.881 346.996 302.049 C 342.831 287.442 340.397 272.899 342.954 257.769 C 344.725 247.293 346.445 236.807 348.104 226.313 C 350.697 209.915 353.254 193.511 355.75 177.098 C 356.558 171.785 357.127 166.436 357.863 160.652 C 355.036 161.292 352.972 161.938 350.86 162.212 C 325.043 165.555 299.419 163.362 273.893 159.257 C 267.394 158.212 265.734 159.218 266.778 166.041 C 267.772 172.535 267.34 178.995 267.57 186.468 M 181.724 330.93 C 187.072 325.167 193.951 321.872 201.002 318.776 C 212.737 313.623 225.231 310.352 236.563 304.194 C 246.921 298.565 255.528 291.167 257.612 279.097 C 259.241 269.656 259.698 259.931 259.804 250.323 C 260.09 224.168 259.917 198.009 259.917 171.851 C 259.917 169.195 259.51 166.568 259.271 163.934 C 257.95 149.39 259.702 146.544 273.229 143.71 C 288.891 140.429 304.746 141.854 320.529 141.687 C 328.114 141.607 331.712 136.358 328.951 128.714 C 328.628 128.665 328.288 128.526 327.983 128.581 C 298.245 133.967 268.512 134.658 238.796 128.454 C 235.081 127.679 233.376 129.01 233.575 132.794 C 233.845 137.941 234.319 143.087 234.342 148.236 C 234.441 170.057 234.365 191.879 234.43 213.701 C 234.481 230.674 234.188 247.63 232.557 264.54 C 231.727 273.143 228.512 280.406 221.893 286.347 C 214.76 292.751 206.285 296.423 197.6 299.824 C 187.219 303.889 176.579 307.285 166.545 312.238 C 156.536 317.177 148.466 324.044 143.812 334.415 C 141.386 339.822 142.348 341.995 148.16 343.478 C 154.439 345.08 160.823 346.213 167.273 346.988 C 170.124 347.33 171.895 346.832 172.939 343.764 C 174.569 338.975 177.581 334.954 181.724 330.93 Z"/>
</svg>