<?xml version="1.0" encoding="utf-8"?>
<svg xmlns="http://www.w3.org/2000/svg" viewBox="0 0 500 500">
  <path fill="#000000" opacity="1.000000" stroke="none" d="M 350.124 306.513 C 340.933 322.124 329.258 334.943 314.725 345.191 C 307.034 350.614 299.665 356.52 290.719 359.879 C 289.184 360.456 287.945 361.388 288.717 363.24 C 289.97 366.243 288.624 368.813 288.057 371.708 C 285.979 382.302 280 387.341 269.367 389.615 C 259.225 391.784 249.251 394.668 238.868 395.728 C 233.893 396.236 228.976 396.582 223.996 395.708 C 221.564 395.28 219.027 395.143 216.559 395.275 C 200.78 396.115 185.469 393.083 170.548 388.668 C 165.274 387.108 159.197 385.623 155.685 379.671 C 152.583 374.411 150.951 369.421 153.162 363.689 C 154.417 360.436 154.083 358.667 150.464 357.312 C 134.921 351.492 122.289 341.16 110.996 329.493 C 102.43 320.643 95.89 310.11 89.971 299.089 C 80.886 282.172 76.358 263.899 72.662 245.49 C 69.972 232.092 67.936 218.299 69.182 204.462 C 70.071 194.583 76.987 188.179 84.535 183.491 C 104.109 171.333 125.999 165.504 148.682 162.481 C 158.36 161.191 168.04 159.311 177.757 159.039 C 194.813 158.562 211.907 157.589 228.971 159.195 C 230.129 159.304 231.295 159.536 232.446 159.479 C 247.277 158.746 261.874 161.216 276.556 162.585 C 290.213 163.858 303.578 166.861 317.067 169.118 C 319.035 169.447 320.638 169.526 322.084 168.009 C 326.185 163.708 330.214 159.332 334.448 155.165 C 339.982 149.72 345.562 144.354 351.717 139.536 C 358.6 134.148 364.641 127.692 371.472 122.232 C 379.753 115.613 388.073 108.929 398.388 105.467 C 405.588 103.05 412.704 103.258 419.797 105.689 C 428.164 108.558 433.78 121.454 429.985 129.702 C 426.509 137.256 420.757 142.358 413.411 146.711 C 405.295 151.519 396.941 155.911 388.88 160.799 C 377.705 167.577 366.656 174.562 355.209 181.672 C 358.948 186.131 364.309 187.033 368.401 190.005 C 379.195 197.846 382.535 208.371 380.327 220.644 C 377.722 235.128 375.621 249.863 370.309 263.65 C 364.676 278.273 359.622 293.267 350.124 306.513 M 334.617 313.59 C 353.81 290.895 367.184 253.007 369.095 230.924 C 354.228 239.964 337.702 244.185 321.165 248.257 C 312.011 250.512 302.653 251.575 293.254 252.686 C 276.668 254.646 260.076 255.689 243.422 256.222 C 238.649 256.374 233.758 256.693 229.106 255.88 C 221.357 254.526 213.486 254.763 205.809 254.669 C 193.342 254.517 181.064 253.452 168.903 251.217 C 157.097 249.046 145.252 246.872 133.478 244.654 C 121.077 242.318 109.767 237.667 98.067 233.717 C 90.172 231.052 83.842 225.791 76.474 220.419 C 80.679 240.416 83.455 259.596 90.552 277.98 C 96.27 292.791 104.83 305.67 113.745 318.41 C 117.29 323.478 122.601 327.303 127.069 331.734 C 135.689 340.286 146.502 345.332 157.361 350.066 C 165.229 353.496 173.396 356.329 181.765 358.505 C 192.914 361.404 204.394 361.202 215.713 362.485 C 218.986 362.856 222.108 364.078 225.483 363.895 C 234.578 363.403 243.641 362.724 252.688 361.551 C 273.001 358.918 291.338 351.44 308.151 339.899 C 318.389 332.871 326.762 323.997 334.617 313.59 M 249.539 168.26 C 233.991 167.921 218.444 167.313 202.896 167.306 C 180.379 167.295 157.931 168.801 135.855 173.454 C 116.569 177.519 97.597 182.504 82.466 196.514 C 77.385 201.218 76.371 206.437 80.807 211.582 C 83.088 214.228 85.713 216.501 88.541 218.608 C 98.22 225.818 109.834 228.421 120.836 232.488 C 129.189 235.575 137.54 238.343 145.553 231.596 C 145.771 231.413 146.223 231.54 146.523 231.417 C 157.132 227.068 168.215 224.263 179.382 221.948 C 188.6 220.038 197.945 218.219 207.311 217.656 C 226.471 216.506 245.104 220.439 263.509 225.367 C 265.489 225.897 266.82 225.928 268.407 224.418 C 279.335 214.021 289.666 203.044 299.986 192.06 C 304.255 187.516 308.261 182.725 313.056 177.286 C 302.953 175.323 293.825 172.496 284.576 172.021 C 273.074 171.429 261.877 168.816 249.539 168.26 M 390.523 150.417 C 396.235 147.04 401.991 143.735 407.644 140.262 C 411.887 137.655 416.273 135.182 419.609 131.363 C 424.985 125.21 423.302 116.468 416.014 113.6 C 412.301 112.139 408.425 112.231 404.304 112.82 C 393.085 114.422 385.01 121.619 376.904 128.162 C 364.532 138.147 353.076 149.271 341.274 159.959 C 336.126 164.62 331.343 169.646 326.498 174.623 C 319.121 182.202 312.388 190.331 305.198 198.057 C 300.444 203.165 296.061 208.654 291.012 213.445 C 280.006 223.888 268.668 233.981 257.505 244.261 C 256.484 245.201 255.112 246.188 256.14 248.628 C 260.722 245.879 265.646 247.399 270.486 247.582 C 274.157 247.72 276.94 246.611 279.177 243.762 C 286.244 234.762 294.384 226.683 301.761 217.985 C 315.629 201.635 332.005 188.193 349.041 175.553 C 361.833 166.063 375.779 158.222 390.523 150.417 M 366.611 200.216 C 361.9 195.323 355.467 193.275 349.772 190.006 C 347.487 188.694 345.787 189.093 343.523 190.654 C 329.52 200.309 317.574 212.244 306.189 224.683 C 303.069 228.092 298.891 231.014 297.252 235.669 C 300.177 239.621 302.468 243.765 308.615 242.46 C 321.399 239.748 334.26 237.354 346.437 232.448 C 352.402 230.044 358.69 228.01 363.628 223.729 C 371.671 216.758 376.668 208.043 366.611 200.216 M 157.062 240.563 C 171.417 243.988 186.106 245.483 200.731 246.263 C 213.407 246.94 226.079 248.318 238.986 247.133 C 245.112 246.571 249.387 246.526 252.352 240.794 C 253.295 238.97 255.26 237.676 256.755 236.135 C 257.777 235.081 259.077 234.162 258.64 232.37 C 220.847 220.038 184.122 225.93 147.717 238.818 C 150.872 238.089 153.383 240.16 157.062 240.563 M 222.939 386.705 C 227.235 386.643 231.534 386.446 235.826 386.544 C 248.23 386.826 260.075 384.04 271.817 380.423 C 277.695 378.612 280.267 374.3 281.266 368.772 C 281.827 365.67 280.647 363.807 277.07 365.016 C 273.933 366.077 270.885 367.542 267.669 368.205 C 255.89 370.633 243.961 371.974 231.933 372.249 C 227.618 372.347 223.246 373.172 219.055 372.909 C 208.782 372.263 198.56 370.745 188.332 369.46 C 180.618 368.491 173.245 366.069 165.982 363.452 C 162.47 362.187 160.89 363.359 160.216 366.485 C 159.35 370.505 159.911 374.575 163.908 376.364 C 169.141 378.705 174.294 381.453 180.042 382.506 C 192.203 384.735 204.527 385.715 216.777 387.265 C 218.616 387.498 220.416 387.65 222.939 386.705 Z"/>
  <path fill="#000000" opacity="1.000000" stroke="none" d="M 329.121 275.485 C 331.068 272.988 332.288 273.737 333.307 275.874 C 333.886 277.087 333.417 278.172 332.953 279.217 C 328.124 290.114 322.799 300.669 314.96 309.862 C 310.817 314.72 306.673 319.246 300.546 321.533 C 299.26 322.013 298.079 322.541 295.676 320.957 C 301.557 313.529 309.865 308.396 314.752 300.197 C 319.567 292.118 324.579 284.162 329.121 275.485 Z"/>
  <path fill="#000000" opacity="1.000000" stroke="none" d="M 115.856 205.287 C 112.463 207.093 109.698 209.377 106.137 209.902 C 104.57 210.132 102.597 210.922 101.618 209.097 C 100.524 207.056 102.55 206.061 103.807 205.218 C 108.755 201.903 114.188 199.411 119.844 197.734 C 122.299 197.005 124.945 197.003 127.328 195.625 C 128.9 194.715 130.821 194.372 132.53 196.685 C 129.082 203.21 120.973 201.153 115.856 205.287 Z"/>
  <path fill="#000000" opacity="1.000000" stroke="none" d="M 118.562 213.32 C 125.273 205.858 134.281 204.734 143.213 202.743 C 144.357 206.057 142.503 207.593 140.06 208.533 C 133.621 211.011 127.133 213.361 120.642 215.699 C 118.812 216.358 118.196 215.381 118.562 213.32 Z"/>
</svg>