<?xml version="1.0" encoding="utf-8"?>
<svg xmlns="http://www.w3.org/2000/svg" viewBox="0 0 500 500">
  <path fill="#000000" opacity="1.000000" stroke="none" d="M 175.364 218.909 C 186.348 198.719 203.114 186.416 224.364 179.556 C 239.51 174.667 254.61 176.519 269.946 178.386 C 285.288 180.254 299.308 185.275 311.4 194.524 C 320.071 201.155 325.839 209.924 326.402 221.865 C 326.957 233.614 327.053 245.387 327.97 257.145 C 329.133 272.045 326.446 286.035 314.898 297.265 C 307.265 304.688 288.723 313.035 279.45 311.836 C 278.459 313.164 276.967 314.444 276.403 316.049 C 274.28 322.093 269.745 323.358 263.976 323.525 C 253.474 323.827 243.121 322.52 232.802 321.075 C 223.13 319.722 213.572 317.526 204.565 313.585 C 184.528 304.817 175.294 295.017 172.416 272.339 C 170.501 257.249 173.642 242.239 172.537 227.189 C 172.316 224.185 174.561 221.992 175.364 218.909 M 218.645 218.439 C 217.534 219.669 216.392 220.871 215.318 222.132 C 209.509 228.952 209.641 236.783 216.188 242.902 C 227.568 253.537 241.864 256.637 256.785 257.751 C 266.397 258.469 275.414 255.364 284.61 253.279 C 297.513 250.354 307.34 243.172 315.075 232.681 C 319.377 226.846 319.697 220.673 316.796 214.331 C 312.423 204.771 304.114 199.406 295.122 194.977 C 283.907 189.455 272.007 186.288 259.519 185.701 C 250.599 185.282 241.518 184.162 232.778 186.327 C 214.028 190.971 198.432 200.493 186.718 216.396 C 179.917 225.628 179.699 236.255 183.193 245.044 C 188.075 257.327 198.864 266.141 211.356 271.041 C 225.218 276.477 239.699 279.848 254.871 279.98 C 260.742 280.031 266.596 280.073 272.458 279.793 C 275.087 279.668 276.328 280.644 277.468 283.364 C 279.443 288.075 278.88 292.816 279.262 297.577 C 279.771 303.927 281.436 304.775 287.063 301.993 C 288.092 301.484 289.21 301.009 290.332 300.857 C 298.168 299.794 304.033 294.692 309.317 289.859 C 324.008 276.421 321.087 258.814 319.367 240.972 C 315.144 245.744 311.005 249.393 306.317 252.551 C 299.179 257.361 291.111 259.532 283.148 262.32 C 272.637 266 261.993 266.713 251.224 265.452 C 241.734 264.341 232.118 262.569 223.589 258.201 C 214.833 253.716 205.421 248.806 204.163 237.389 C 203.177 228.445 206.202 220.358 212.673 213.934 C 219.692 206.964 227.872 202.184 237.736 199.92 C 250.945 196.889 263.922 195.001 276.754 201.1 C 283.716 204.409 287.189 210.431 287.97 217.656 C 288.645 223.897 286.123 229.248 280.813 233.169 C 271.482 240.06 261.568 243.515 249.782 240.578 C 242.174 238.682 237.044 230.776 239.669 223.704 C 240.986 220.157 244.359 218.444 247.14 219.358 C 250.729 220.538 247.85 223.477 246.932 225.466 C 245.9 227.701 246.36 229.227 248.215 230.665 C 250.636 232.543 253.15 233.682 256.373 233.86 C 263.332 234.242 269.136 231.039 274.478 227.636 C 281.778 222.985 282.473 219.008 278.979 212.718 C 275.977 207.313 267.332 203.251 259.945 204.731 C 254.702 205.782 249.357 205.918 244.186 206.236 C 233.982 206.865 226.269 211.403 218.645 218.439 M 186.378 289.087 C 187.036 290.236 187.557 291.494 188.373 292.517 C 196.037 302.121 206.994 306.491 218.199 309.303 C 232.233 312.825 246.441 316.202 261.26 314.914 C 267.709 314.354 271 311.811 271.524 305.375 C 271.947 300.175 270.273 295.18 270.4 290.021 C 270.456 287.736 268.674 287.444 266.889 287.537 C 263.271 287.726 259.644 288.28 256.04 288.15 C 244.307 287.724 232.876 285.633 221.446 282.757 C 210.605 280.028 201.114 275.208 192.089 268.93 C 187.622 265.822 184.167 261.769 180.628 257.027 C 179.192 268.979 180.615 276.634 186.378 289.087 Z"/>
  <path fill="#000000" opacity="1.000000" stroke="none" d="M 308.164 269.092 C 307.154 272.873 305.524 275.908 303.338 278.634 C 302.248 279.993 300.87 280.974 299.056 280.01 C 297.373 279.115 297.821 277.689 298.122 276.134 C 298.864 272.312 300.432 268.889 302.931 265.989 C 304.105 264.627 305.315 262.254 307.692 263.448 C 310.208 264.711 308.652 266.868 308.164 269.092 Z"/>
</svg>