<?xml version="1.0" encoding="utf-8"?>
<svg xmlns="http://www.w3.org/2000/svg" viewBox="0 0 500 500">
  <path fill="#000000" opacity="1.000000" stroke="none" d="M 213.345 296.666 C 209.218 295.384 206.036 293.311 203.479 290.351 C 201.118 287.617 198.822 286.764 195.267 288.771 C 187.222 293.313 178.081 293.959 169.18 294.217 C 152.015 294.714 137.136 280.411 136.651 263.349 C 136.414 254.997 141.708 248.944 147.288 243.794 C 157.583 234.292 169.59 228.221 184.155 228.998 C 187.221 229.161 188.763 228.162 189.823 224.923 C 193.846 212.626 203.417 206.691 215.393 203.82 C 221.812 202.281 228.268 201.188 234.902 200.984 C 247.758 200.59 260.031 202.851 271.507 208.71 C 276.704 211.363 280.378 215.674 282.78 220.997 C 283.718 223.076 284.553 224.058 287.281 223.027 C 300.902 217.878 314.116 219.42 327.296 225.327 C 333.741 228.216 337.707 233.373 342.211 238.185 C 342.654 238.658 343.152 239.303 343.19 239.896 C 343.749 248.642 349.831 252.052 356.74 255.837 C 364.151 259.897 365.247 269.837 360.481 276.921 C 354.166 286.308 345.069 290.939 334.389 294.391 C 320.408 298.91 306.48 299.011 292.244 297.95 C 281.959 297.183 272.879 294.368 261.656 288.447 C 246.614 297.845 231.022 302.092 213.345 296.666 M 242.951 210.204 C 233.757 210.262 224.711 211.529 216.038 214.526 C 207.934 217.327 200.932 221.649 198.978 230.968 C 196.995 240.42 197.025 240.426 187.557 238.295 C 172.135 234.825 157.694 241.095 149.754 254.71 C 142.797 266.638 147.585 279.364 161.07 282.749 C 174.593 286.144 187.385 283.005 199.122 275.69 C 204.236 272.502 205.482 272.731 208.038 278.329 C 210.006 282.641 213.073 285.799 217.625 287.192 C 229.733 290.898 241.867 289.67 252.024 282.813 C 259.006 278.1 263.698 276.52 271.722 280.631 C 281.653 285.719 292.843 287.676 304.371 288.126 C 318.228 288.668 330.987 285.462 343.334 280.001 C 348.024 277.926 353.016 274.44 352.962 268.89 C 352.901 262.715 347.191 260.56 342.012 258.798 C 341.855 258.745 341.709 258.65 341.549 258.613 C 337.937 257.771 336.366 255.615 336.496 251.803 C 336.721 245.191 333.196 240.311 328.089 236.761 C 311.609 225.305 298.112 225.854 282.379 238.292 C 278.95 241.002 275.327 239.816 275.147 235.438 C 274.919 229.881 272.731 225.162 270.385 220.406 C 268.706 217.002 266.173 214.229 262.413 213.445 C 256.24 212.157 249.967 211.344 242.951 210.204 Z"/>
</svg>