<?xml version="1.0" encoding="utf-8"?>
<svg xmlns="http://www.w3.org/2000/svg" viewBox="0 0 500 500">
  <path fill="#000000" opacity="1.000000" stroke="none" d="M 313.827 327.273 C 314.569 317.075 313.833 308.121 304.562 301.61 C 300.222 298.562 296.71 295.609 290.939 294.785 C 281.536 293.443 271.909 291.293 265.387 283.068 C 264.27 281.659 262.833 281.652 261.349 282.435 C 250.013 288.413 229.9 280.002 223.525 270.718 C 219.438 264.766 214.517 263.186 207.577 263.183 C 198.878 263.181 190.242 261.691 183.131 255.48 C 178.816 251.712 173.388 251.751 167.988 252.977 C 158.926 255.034 150.748 259.803 141.572 261.526 C 133.331 263.072 126.824 257.817 126.562 249.327 C 126.323 241.592 129.528 234.766 132.568 228.018 C 137.381 217.333 145.423 209.175 154.637 202.19 C 157.953 199.675 161.929 198.215 166.089 197.674 C 170.312 197.125 172.984 195.299 175.33 191.376 C 180.791 182.243 189.061 176.055 199.545 173.777 C 206.532 172.259 212.891 168.862 220.003 167.803 C 223.261 167.318 226.281 166.052 229.712 167.375 C 232.224 168.344 234.097 165.999 235.651 164.63 C 249.106 152.788 264.726 150.936 281.753 153.398 C 292.212 154.909 302.257 157.509 311.456 162.477 C 317.502 165.742 322.642 170.596 327.289 175.749 C 331.917 180.881 336.84 185.876 337.341 193.446 C 337.474 195.453 339.389 196.333 341.091 197.105 C 352.738 202.389 360.808 211.355 367.088 222.217 C 375.514 236.793 374.671 251.882 369.767 267.236 C 369.114 269.28 368.78 271.268 369.053 273.543 C 371.501 293.957 368.568 313.226 355.83 330.056 C 351.413 335.892 346.062 340.999 339.666 344.625 C 328.264 351.088 318.251 346.545 315.32 333.925 C 314.834 331.83 314.267 329.753 313.827 327.273 M 289.244 164.347 C 280.576 161.502 271.652 162.189 262.758 162.414 C 253.818 162.64 246.296 166.232 240.394 172.713 C 233.398 180.396 229.136 189.563 225.509 199.385 C 218.422 218.573 218.561 237.446 226.68 255.826 C 230.779 265.104 237.873 272.644 248.776 274.937 C 255.742 276.403 258.891 274.271 259.672 267.514 C 260.053 264.226 260.254 260.876 261.054 257.683 C 265.514 239.864 273.033 223.701 286.71 210.893 C 294.309 203.777 302.737 198.394 312.791 195.101 C 317.85 193.444 322.976 194.566 327.661 193.189 C 328.375 191.804 327.82 190.74 327.284 190.077 C 320.163 181.278 313.014 172.456 301.886 168.365 C 297.991 166.933 294.002 165.759 289.244 164.347 M 301.682 274.605 C 302.97 272.28 304.134 269.876 305.566 267.644 C 313.223 255.719 323.191 246.786 337.311 243.203 C 344.102 241.48 350.251 241.823 355.829 246.855 C 358 248.814 359.193 251.857 362.227 252.965 C 364.296 251.231 364.694 248.984 364.541 246.615 C 363.453 229.732 355.987 216.07 342.003 206.885 C 335.708 202.75 328.094 200.799 319.705 201.981 C 313.668 202.831 309.487 206.523 304.277 208.444 C 297.5 210.942 292.68 216.237 288.148 221.291 C 278.119 232.473 271.907 245.848 268.793 260.581 C 267.817 265.202 267.588 269.796 270.302 274.054 C 274.106 280.023 279.837 282.999 286.463 284.676 C 297.238 287.402 297.232 287.421 300.821 277.235 C 301.042 276.608 301.289 275.991 301.682 274.605 M 318.879 301.924 C 319.334 303.517 319.67 305.156 320.263 306.695 C 322.945 313.654 321.904 321.11 323.209 328.263 C 324.428 334.943 328.349 337.793 334.741 335.696 C 342.678 333.093 347.653 326.932 351.233 319.975 C 359.137 304.618 362.756 288.305 359.471 271.02 C 356.18 253.707 345.074 246.21 329.105 256.185 C 319.124 262.42 311.113 271.365 307.259 283.078 C 305.399 288.733 307.985 294.226 313.638 296.582 C 315.969 297.553 317.531 299.001 318.879 301.924 M 185.832 246.655 C 194.705 251.046 203.692 254.969 214.486 253.531 C 207.687 226.28 211.963 200.778 226.867 176.944 C 223.888 176.112 221.182 175.79 219.02 176.781 C 213.113 179.49 206.792 180.826 200.654 182.659 C 187.468 186.597 180.732 195.497 178.171 208.603 C 175.52 222.176 178.545 234.469 185.832 246.655 M 170.547 232.794 C 168.497 223.667 169.68 214.473 170.389 205.344 C 168.429 204.905 167.102 205.541 165.749 206.173 C 150.507 213.296 140.908 225.371 135.704 241.047 C 134.591 244.398 132.309 248.399 135.959 251.745 C 139.58 255.066 142.765 251.798 145.977 250.628 C 154.784 247.418 163.528 244.034 173.164 243.17 C 172.916 241.757 172.846 240.941 172.624 240.168 C 171.985 237.946 171.285 235.742 170.547 232.794 Z"/>
</svg>