<?xml version="1.0" encoding="utf-8"?>
<svg xmlns="http://www.w3.org/2000/svg" viewBox="0 0 500 500">
  <path fill="#000000" opacity="1.000000" stroke="none" d="M 121.99 230.778 C 113.81 231.158 106.22 230.688 98.84 228.148 C 87.78 224.348 80.2 217.578 78.41 205.398 C 77.18 197.008 74.31 188.978 72.4 180.738 C 70.39 172.028 72.76 166.868 80.3 162.388 C 84.44 159.928 92.55 162.128 94.62 166.468 C 95.58 168.468 96.65 169.398 99.02 169.678 C 104.56 170.348 106.57 174.328 104.31 179.428 C 103.57 181.108 102.84 182.838 101.76 184.288 C 97.97 189.388 99.86 194.148 102.65 198.668 C 105.38 203.118 109.78 204.258 114.81 203.858 C 118.99 203.528 123.09 202.918 126.94 201.208 C 129.67 199.998 131.1 198.088 128.59 195.428 C 114.86 180.888 115.73 163.998 120.56 146.438 C 121.12 144.378 121.84 142.498 121.44 140.158 C 120.25 133.168 124.53 127.488 131.58 126.878 C 135.01 126.578 138 125.798 140.96 124.078 C 143.63 122.528 146.67 122.438 149.71 123.028 C 154.44 123.948 159.16 124.758 164.03 124.538 C 169.08 124.318 173.08 126.538 175.94 130.668 C 179.89 136.388 182.57 142.598 182.44 149.708 C 182.38 152.368 183.32 154.388 184.96 156.478 C 190.57 163.658 189.66 170.618 182.49 176.208 C 180.9 177.458 180.09 179.038 179.7 180.778 C 179.1 183.418 177.86 185.748 176.8 188.188 C 176.12 189.758 174.08 191.158 175.41 193.148 C 176.77 195.168 179.02 194.488 180.95 194.318 C 187.81 193.688 193.34 191.008 196.67 184.498 C 200.23 177.558 204.26 170.948 203.21 162.528 C 202.58 157.478 211.59 147.448 216.67 146.908 C 217.93 146.768 219.42 146.998 220.512 147.598 C 224.19 149.638 227.213 152.568 231.693 153.528 C 234.329 154.088 235.396 158.038 234.213 160.368 C 230.614 167.458 234.505 172.918 237.472 178.518 C 241.305 185.748 246.813 191.448 254.482 194.778 C 255.986 195.428 257.395 196.478 259.85 195.318 C 258.582 190.668 260.056 185.198 254.301 181.808 C 250.331 179.468 249.329 175.178 250.075 170.828 C 251.442 162.848 254.984 155.438 259.391 149.008 C 262.924 143.858 267.348 138.308 274.357 136.688 C 275.903 136.328 276.964 135.308 278.004 134.188 C 280.449 131.568 283.752 130.138 287.028 130.938 C 291.666 132.068 296.015 132.048 300.559 130.828 C 302.493 130.308 304.917 130.608 306.308 131.928 C 310.696 136.088 316.137 138.538 321.096 141.758 C 322.277 142.528 323.775 144.068 323.749 145.228 C 323.604 151.528 327.124 154.908 331.918 158.308 C 335.223 160.658 336.285 164.998 333.544 169.058 C 332.377 170.778 332.455 172.248 333.478 174.108 C 337.313 181.088 335.612 187.138 328.928 191.108 C 323.558 194.298 323.558 194.298 318.915 200.798 C 319.668 202.548 321.234 202.548 322.699 202.298 C 334.43 200.328 344.73 195.838 351.557 185.458 C 354.117 181.568 356.632 177.638 359.135 173.708 C 361.693 169.688 363.455 166.038 360.284 160.998 C 357.424 156.438 359.936 152.698 365.334 152.658 C 368.793 152.638 369.83 150.548 371.247 148.268 C 374.237 143.448 377.206 142.428 382.551 144.488 C 383.932 145.018 385.116 144.808 386.425 144.688 C 389.917 144.388 393.525 143.688 395.019 148.388 C 395.271 149.178 396.912 149.528 397.914 150.078 C 400.048 151.248 401.963 152.528 401.191 155.498 C 401.036 156.088 401.072 156.828 401.276 157.418 C 404.033 165.278 403.065 169.088 394.615 172.058 C 387.008 174.728 383.684 179.968 380.116 186.408 C 369.675 205.238 355.637 220.418 334.43 227.458 C 330.618 228.728 326.73 229.888 322.763 229.978 C 317.612 230.108 316.89 233.158 317.629 236.998 C 318.633 242.208 319.314 247.718 321.593 252.398 C 325.886 261.205 327.682 271.655 336.752 277.641 C 339.237 279.281 341.701 280.891 345.728 281.23 C 343.501 275.477 343.295 269.851 341.757 264.489 C 341.141 262.341 340.375 259.952 341.613 258.18 C 346.05 251.828 348.245 243.948 354.854 239.078 C 363.624 232.628 372.664 232.338 382.609 236.518 C 391.78 240.368 397.126 246.168 396.53 256.518 C 396.479 257.411 397.051 258.409 397.522 259.254 C 401.733 266.814 398.595 275.388 390.464 278.093 C 388.269 278.823 387.229 280.15 386.83 282.68 C 392.911 284.684 399.285 284.276 405.439 285.221 C 407.122 285.479 407.736 283.511 408.763 282.481 C 413.457 277.777 416.29 278.075 420.66 283.092 C 423.133 285.931 426.805 287.09 427.913 291.857 C 429.015 296.598 427.538 299.659 425.076 302.677 C 422.44 305.907 418.29 306.016 414.887 304.727 C 408.129 302.166 401.805 305.418 395.278 305.317 C 394.152 305.3 393.306 306.389 393.525 307.376 C 395.414 315.883 392.284 324.57 394.525 333.042 C 394.605 333.342 394.875 333.592 395.127 333.973 C 397.711 334.549 399.843 332.978 402.149 332.213 C 408.535 330.095 413.796 332.884 415.509 339.419 C 416.6 343.583 418.045 347.701 416.433 352.121 C 414.459 357.533 410.152 358.808 406.226 354.614 C 403.887 352.117 402.121 352.33 399.348 353.72 C 389.944 358.434 383.396 357.095 376.067 349.399 C 371.446 344.547 371.694 345.422 366.717 348.681 C 359.279 353.549 357.63 361.496 354.033 368.397 C 348.661 378.705 347.289 379.298 336.936 374.105 C 332.685 371.973 328.974 369.268 326.289 365.303 C 324.659 362.896 324.345 360.453 326.095 357.864 C 327.784 355.363 329.709 354.453 332.862 355.192 C 335.363 355.778 338.665 356.926 339.88 352.814 C 340.841 349.563 343.012 346.21 338.227 343.934 C 336.54 343.132 335.434 341.37 335.123 339.559 C 334.39 335.281 332.063 334.833 328.029 334.968 C 311.78 335.513 295.209 326.543 292.579 306.856 C 292.376 305.342 292.1 303.527 290.466 302.448 C 287.46 302.983 286.72 305.636 285.656 307.731 C 278.65 321.529 271.628 335.3 266.806 350.108 C 264.331 357.71 257.18 362.506 253.619 369.646 C 252.647 371.596 249.856 372.079 247.3 371.344 C 235.953 368.082 226.052 362.754 219.31 352.587 C 216.67 348.595 217.94 344.319 222.545 342.566 C 225.494 341.444 228.452 341.925 231.416 342.483 C 234.628 343.087 236.763 342.25 237.841 338.744 C 244.648 316.607 254.485 295.572 261.698 273.576 C 262.281 271.797 262.044 270.048 262.239 268.348 C 263.588 256.586 261.583 245.388 258.011 234.238 C 257.097 231.388 257.729 227.928 258.11 224.808 C 258.394 222.488 257.763 221.448 255.546 220.888 C 241.445 217.348 230.868 208.988 222.948 196.978 C 222.062 195.638 221.468 193.938 219.64 193.318 C 217.07 193.688 217.06 196.088 216.35 197.788 C 212.19 207.798 206.36 216.248 195.72 220.278 C 192.55 221.488 192.03 223.698 192.85 226.688 C 195.02 234.708 197.02 242.768 198.04 251.028 C 198.48 254.588 199.35 258.042 197.72 261.758 C 196.18 265.247 202.59 277.113 206.11 278.357 C 208.49 279.199 210.26 277.724 212.11 276.658 C 216.52 274.129 219.31 269.792 223.239 266.721 C 228.784 262.392 234.632 262.215 240.114 266.663 C 245.392 270.946 249.139 276.412 251.541 282.776 C 253.134 286.993 253.082 291.149 249.579 294.301 C 245.855 297.653 241.133 298.098 237.083 295.399 C 233.076 292.728 230.827 293.754 227.844 296.874 C 222.786 302.165 217.17 306.864 210.52 310.215 C 201.25 314.888 191.41 313.533 183.79 306.444 C 178.34 301.375 174.4 295.242 170.88 288.775 C 168 283.488 166.56 283.353 162.45 287.503 C 147.76 302.316 137.28 319.677 130.75 339.466 C 129.46 343.393 128.4 347.496 123.88 349.322 C 122.26 349.977 121.89 351.835 121.53 353.512 C 119.79 361.563 113.81 364.605 106.17 361.075 C 101.62 358.977 97.43 356.148 93.96 352.516 C 90.07 348.456 85.46 344.992 82.82 339.85 C 81.35 336.985 79.99 333.882 82.16 330.894 C 84.5 327.67 87.95 326.638 91.9 327.143 C 94.59 327.486 97.04 328.455 99.49 329.524 C 102.12 330.674 104.02 330.189 104.74 327.099 C 109.47 306.56 119.08 288.517 132.72 272.545 C 134.73 270.183 134.8 267.853 134.22 264.742 C 132.49 255.617 131.14 246.388 130.26 237.148 C 129.75 231.818 127.19 230.298 121.99 230.778 M 206.43 202.698 C 206.99 200.658 209.91 198.298 206.97 196.648 C 204.2 195.078 201 191.938 197.47 194.458 C 191.06 199.038 183.92 200.588 176.3 200.818 C 172.89 200.918 170.29 201.788 167.85 204.858 C 160.35 214.288 149.59 214.418 144.05 206.658 C 142.6 204.628 140.85 204.668 138.78 205.368 C 132.96 207.348 127.2 209.568 121.03 210.328 C 119.27 210.538 118.08 211.638 117.49 213.438 C 114.57 222.368 116.81 225.308 126.11 224.578 C 127.1 224.498 128.09 224.338 129.08 224.168 C 133.39 223.458 135.91 225.358 136.31 229.608 C 137.09 238.038 139.21 246.278 139.62 254.798 C 140.01 262.903 142.29 264.828 150.4 264.461 C 162.23 263.925 173.91 262.389 185.16 258.391 C 192.83 255.667 193.13 255.422 191.33 247.698 C 189.45 239.608 187.43 231.538 185.29 223.508 C 184.14 219.178 184.96 216.358 189.85 215.558 C 197.39 214.338 202.13 209.348 206.43 202.698 M 249.078 326.176 C 244.208 338.41 244.208 338.41 254.004 346.844 C 254.13 346.953 254.241 347.079 254.367 347.188 C 258.314 350.613 259.958 350.474 261.418 345.603 C 267.545 325.161 279.136 307.253 287.791 287.991 C 288.567 286.264 288.895 283.67 291.464 283.833 C 294.318 284.013 294.989 286.601 295.49 288.874 C 296.847 295.032 297.821 301.282 299.38 307.386 C 303.245 322.52 317.351 330.852 332.403 327.401 C 337.511 326.23 336.904 322.609 337.113 318.926 C 337.345 314.825 334.923 314.523 331.788 314.255 C 323.485 313.546 319.178 308.999 318.864 300.646 C 318.651 294.985 318.888 289.338 320.337 283.783 C 321.488 279.376 321.192 274.847 320.832 270.36 C 320.535 266.667 318.407 265.19 315.003 266.591 C 301.767 272.036 288.066 273.82 273.904 272.091 C 270.388 271.661 268.653 273.274 267.732 276.395 C 262.775 293.185 255.826 309.231 249.078 326.176 M 332.156 213.338 C 332.018 208.388 329.225 207.258 324.873 208.188 C 320.406 209.138 315.851 209.158 311.504 207.908 C 307.683 206.818 305.549 207.588 303.439 211.178 C 299.185 218.418 290.13 221.378 282.159 218.868 C 278.335 217.668 275.454 215.198 275.064 211.288 C 274.608 206.728 271.446 205.318 268.133 204.598 C 263.267 203.558 258.391 202.578 253.539 201.428 C 249.362 200.438 248.474 204.438 246.977 207.008 C 245.387 209.738 247.214 211.378 249.504 212.488 C 253.099 214.228 256.735 215.718 260.861 215.958 C 267.195 216.308 267.46 216.908 266.016 222.858 C 264.794 227.888 263.703 233.108 265.918 238.028 C 268.951 244.768 269.979 251.688 269.276 258.954 C 268.92 262.628 270.465 264.402 274.197 264.918 C 286.481 266.618 298.414 265.259 310.012 261.063 C 315.901 258.932 316.113 258.182 314.23 252.188 C 312.18 245.658 310.528 239.058 310.81 232.138 C 311.025 226.858 313.066 224.608 318.183 223.888 C 320.982 223.498 323.787 223.108 326.556 222.558 C 332.727 221.308 333.272 220.468 332.156 213.338 M 166.84 191.188 C 170.39 187.108 172.91 182.428 174.44 177.268 C 175.14 174.898 176.25 173.338 178.47 172.008 C 183.62 168.928 183.72 165.988 179.37 161.348 C 172.92 164.698 173.01 164.658 170.24 157.848 C 168.8 154.298 167.31 150.808 166.61 146.998 C 166.28 145.208 165.4 143.598 163.12 143.288 C 154.64 142.158 146.19 139.578 137.66 143.248 C 136.18 143.888 134.41 144.158 132.79 144.128 C 129.74 144.068 128.44 145.748 127.34 148.278 C 123.82 156.378 123.55 164.958 124.85 173.318 C 126.6 184.448 131.63 193.518 144.26 195.648 C 146.78 196.078 148.3 197.698 148.49 200.468 C 148.76 204.398 151.71 205.618 154.82 205.158 C 159.12 204.518 162.7 202.238 163.7 197.538 C 164.17 195.348 164.78 193.358 166.84 191.188 M 286.98 213.628 C 292.354 213.698 296.593 211.908 299.122 206.358 C 296.286 204.628 292.168 202.558 296.728 199.588 C 301.076 196.758 302.977 192.778 304.476 188.428 C 305.786 184.628 307.369 182.218 311.926 183.408 C 313.885 183.928 315.615 182.908 316.342 180.978 C 317.13 178.898 317.979 176.618 315.67 174.918 C 313.417 175.328 313.142 177.268 312.087 178.468 C 310.699 180.048 308.526 180.358 308.161 178.368 C 307.168 172.978 302.148 169.248 302.688 163.198 C 303.131 158.238 300.502 155.538 295.535 154.938 C 291.419 154.438 287.7 153.308 285.145 149.818 C 283.347 147.368 281.391 147.488 279.205 149.178 C 265.26 159.898 258.654 176.578 267.597 194.118 C 269.637 198.118 272.376 201.258 277.194 202.008 C 279.965 202.438 281.459 203.798 281.153 207.148 C 280.854 210.418 282.766 212.788 286.98 213.628 M 363.75 321.859 C 370.574 321.93 377.388 322.012 384.1 320.359 C 386.757 319.704 388.208 318.579 387.739 315.548 C 387.105 311.451 386.879 307.29 386.21 303.201 C 385.699 300.072 387.07 298.861 389.909 298.684 C 391.238 298.602 392.576 298.63 393.901 298.506 C 395.98 298.311 396.625 296.842 396.749 295.029 C 396.88 293.123 396.813 290.773 394.495 290.711 C 388.551 290.553 382.474 286.047 376.733 292.926 C 371.873 298.751 365.287 297.328 360.921 290.804 C 360.158 289.665 359.264 289.288 358.05 289.236 C 354.559 289.086 351.056 289.062 347.579 288.746 C 344.475 288.464 344.012 290.567 343.586 292.734 C 343.092 295.251 344.262 296.416 346.79 296.626 C 348.767 296.791 350.731 297.212 352.675 297.641 C 355.406 298.243 356.482 300.037 356.176 302.782 C 355.791 306.247 355.539 309.729 355.095 313.186 C 354.006 321.674 354.089 321.797 363.75 321.859 M 375.586 278.69 C 372.468 281.865 368.754 283.669 363.66 283.238 C 365.321 284.555 366.865 285.05 367.198 286.72 C 367.499 288.228 367.823 289.758 369.865 289.682 C 371.724 289.612 373.246 288.67 373.595 286.924 C 374.046 284.66 375.558 283.69 377.234 282.518 C 379.968 280.604 382.282 278.238 383.637 275.058 C 384.351 273.385 385.088 272.086 387.577 272.092 C 392.093 272.103 393.773 268.634 391.94 263.997 C 387.754 266.933 386.198 266.419 383.474 261.929 C 381.447 258.588 382.114 254.808 381.155 251.298 C 380.459 248.758 379.542 246.918 376.54 247.248 C 372.378 247.708 368.665 246.488 365.206 244.288 C 362.036 242.268 359.482 243.508 357.238 245.878 C 350.223 253.288 347.813 262.118 349.486 272.079 C 350.39 277.459 354.945 281.562 360.11 281.878 C 359.569 279.604 357.407 278.534 356.39 276.674 C 354.957 274.054 354.961 271.012 358.383 271.152 C 363.321 271.354 367.422 269.432 371.783 267.982 C 373.68 267.35 375.424 267.519 376.829 269.028 C 378.311 270.62 378.796 272.489 377.877 274.545 C 377.336 275.756 376.671 276.911 375.586 278.69 M 344.922 215.118 C 359.13 206.418 368.75 193.608 376.935 179.488 C 379.783 174.578 381.453 168.618 387.993 167.368 C 387.306 163.588 385.98 160.658 382.569 160.088 C 379.379 159.548 376.685 158.758 374.953 155.378 C 374.332 159.338 380.551 167.038 369.845 164.248 C 369.044 172.328 363.739 178.048 360.108 184.438 C 355.918 191.808 350.432 198.298 342.669 202.538 C 336.211 206.058 336.155 206.998 338.933 213.748 C 340.133 216.658 341.779 217.178 344.922 215.118 M 85.23 205.388 C 86.99 215.218 94.18 219.608 102.68 222.468 C 105.04 223.268 108.31 225.278 109.66 220.868 C 111.92 213.458 111.25 211.118 106.56 209.358 C 96.46 205.558 92.69 200.338 92.86 189.378 C 92.93 185.378 92.29 181.948 89.53 179.048 C 82.54 180.278 80.32 183.538 81.88 190.018 C 83.04 194.848 84.07 199.718 85.23 205.388 M 364.243 342.394 C 364.91 341.052 365.583 339.713 366.244 338.368 C 367.371 336.074 367.538 332.78 371.054 332.755 C 374.646 332.73 375.596 335.91 376.534 338.451 C 377.754 341.755 379.863 342.223 382.815 341.485 C 387.568 340.297 388.974 337.035 387.535 330.865 C 386.911 328.188 385.773 326.789 382.704 327.404 C 374.778 328.993 366.772 328.551 358.837 327.568 C 355.927 327.208 354.118 327.896 353.583 330.602 C 352.691 335.118 347.093 338.925 351.418 344.242 C 351.723 344.617 352.165 345.013 352.611 345.122 C 356.665 346.115 360.832 347.564 364.243 342.394 M 242.369 195.048 C 235.414 189.208 230.985 181.698 227.872 173.298 C 227.47 172.208 227.129 170.958 226.354 170.188 C 224.748 168.598 222.633 167.938 220.43 168.718 C 218.82 169.288 219.01 170.758 219.38 172.118 C 222.463 183.568 227.71 193.818 236.249 202.178 C 237.558 203.458 239.516 205.418 241.264 202.908 C 242.723 200.808 246.647 198.878 242.369 195.048 M 247.177 350.598 C 246.553 350.692 245.638 350.552 245.349 350.913 C 241.262 356.035 241.36 355.93 235.373 352.094 C 233.237 350.725 231.018 348.3 227.879 350.199 C 229.902 355.597 242.583 364.216 247.531 363.703 C 250.564 363.389 253.226 358.66 251.971 355.681 C 251.116 353.651 249.716 352.027 247.177 350.598 M 327.341 305.031 C 334.454 311.427 341.556 304.369 348.9 305.031 C 341.647 301.994 334.199 300.022 327.694 295.351 C 325.953 298.894 326.186 301.608 327.341 305.031 M 206.94 178.218 C 206.27 179.728 205.52 181.208 204.92 182.748 C 204.18 184.668 203.75 186.648 205.67 188.178 C 207.11 189.318 208.83 190.368 210.67 189.728 C 212.69 189.028 212.69 186.928 212.94 185.128 C 213.19 183.338 213.56 181.548 213.68 179.748 C 213.89 176.588 213.21 173.898 209.19 172.918 C 208.5 174.568 207.87 176.058 206.94 178.218 M 418.16 295.246 C 417.849 293.983 417.344 292.974 416.392 291.903 C 413.174 288.287 409.753 291.317 406.454 291.176 C 402.99 291.028 402.26 292.994 402.483 295.898 C 402.723 299.032 404.849 298.315 406.834 298.194 C 409.292 298.044 411.789 297.862 414.22 298.135 C 416.286 298.368 417.294 297.487 418.16 295.246 M 344.919 335.03 C 349.433 326.06 349.596 317.316 345.294 314.592 C 345.038 314.793 344.628 314.946 344.549 315.201 C 342.654 321.342 344.103 328.165 340.637 334.031 C 340.094 334.95 340.775 336.409 341.897 337.03 C 343.321 337.818 343.97 336.647 344.919 335.03 M 334.447 284.195 C 333.895 283.827 333.368 283.412 332.785 283.101 C 331.307 282.311 329.866 280.121 328.107 282.287 C 326.647 284.085 327.242 286.063 328.839 287.638 C 330.254 289.034 331.632 290.51 333.231 291.668 C 335.876 293.582 337.524 292.283 338.492 289.617 C 339.668 286.382 336.984 285.722 334.447 284.195 M 347.298 359.844 C 351.44 361.316 353.62 358.651 353.806 351.747 C 351.792 351.086 349.621 348.911 347.694 351.467 C 345.964 353.761 344.103 356.451 347.298 359.844 M 385.08 347.784 C 387.592 350.382 394.81 350.736 397.565 348.246 C 400.267 345.804 397.78 344.258 396.46 342.277 C 392.661 343.981 389.045 345.602 385.08 347.784 Z"/>
  <path fill="#000000" opacity="1.000000" stroke="none" d="M 291.726 372.242 C 287.474 368.664 285.874 363.871 283.839 359.362 C 283.116 357.759 283.046 355.974 284.939 355.053 C 286.675 354.209 288.209 354.914 289.254 356.444 C 291.865 360.269 293.703 364.587 296.817 368.109 C 297.734 369.146 297.706 370.655 296.824 371.827 C 295.485 373.606 293.791 373.598 291.726 372.242 Z"/>
  <path fill="#000000" opacity="1.000000" stroke="none" d="M 158.18 354.85 C 159.67 356.673 160.95 358.207 162.19 359.766 C 163.59 361.518 164.16 363.408 162.18 365.036 C 160.23 366.64 158.38 365.754 156.9 364.162 C 154.63 361.732 152.4 359.259 150.28 356.698 C 148.68 354.758 147.81 352.319 149.97 350.471 C 152.09 348.656 153.99 350.537 155.6 351.985 C 156.46 352.758 157.16 353.704 158.18 354.85 Z"/>
  <path fill="#000000" opacity="1.000000" stroke="none" d="M 165.67 335.163 C 169.41 338.347 171.08 342.209 171.4 346.686 C 171.49 348.065 171.29 349.423 169.74 349.959 C 168.58 350.362 167.2 350.312 166.5 349.337 C 164.06 345.95 162.32 342.168 162.05 337.975 C 161.93 336.159 163.3 334.984 165.67 335.163 Z"/>
  <path fill="#000000" opacity="1.000000" stroke="none" d="M 308.776 355.68 C 309.082 357.209 309.333 358.341 309.414 359.486 C 309.552 361.44 309.124 363.211 306.912 363.711 C 304.681 364.214 303.542 362.746 302.868 360.937 C 302.18 359.089 301.569 357.195 301.137 355.274 C 300.642 353.078 300.596 350.763 303.291 349.977 C 305.726 349.268 306.787 351.247 307.764 352.99 C 308.161 353.699 308.358 354.52 308.776 355.68 Z"/>
  <path fill="#000000" opacity="1.000000" stroke="none" d="M 191.46 349.955 C 191.4 352.367 190.94 354.409 188.44 353.817 C 185.42 353.105 184.93 350.08 184.09 347.616 C 183.63 346.257 184.12 344.929 185.68 344.423 C 188.01 343.671 189.55 344.914 190.66 346.71 C 191.16 347.511 191.21 348.588 191.46 349.955 Z"/>
  <path fill="#000000" opacity="1.000000" stroke="none" d="M 200.92 346.752 C 200.04 343.934 199.29 341.151 202.76 340.492 C 205.55 339.962 206.66 342.421 207.26 344.755 C 207.73 346.523 207.22 348.117 205.52 348.924 C 203.5 349.883 202.09 348.814 200.92 346.752 Z"/>
  <path fill="#000000" opacity="1.000000" stroke="none" d="M 160.39 186.798 C 152.04 196.358 138.87 194.508 134.23 183.488 C 132.5 179.378 133.77 177.198 138.19 177.668 C 143.4 178.218 148.01 177.108 152.52 174.648 C 154.79 173.408 157.45 171.468 159.89 173.588 C 162.58 175.918 162.8 179.418 162.11 182.798 C 161.85 184.068 161.09 185.238 160.39 186.798 M 152.56 185.238 C 153.4 184.558 155.1 183.658 153.6 182.738 C 151.42 181.408 149.79 183.128 148.36 184.748 C 149.47 186.438 150.77 185.658 152.56 185.238 Z"/>
  <path fill="#000000" opacity="1.000000" stroke="none" d="M 144.85 168.378 C 147.02 168.928 148.27 169.988 147.85 171.978 C 147.49 173.658 145.86 174.028 144.39 174.418 C 140.38 175.498 136.04 173.788 135.11 170.718 C 134.26 167.918 138.26 161.548 141.39 160.948 C 144.01 160.448 145.12 161.748 144.77 164.328 C 144.59 165.638 142.64 166.828 144.85 168.378 Z"/>
  <path fill="#000000" opacity="1.000000" stroke="none" d="M 130.14 159.768 C 128.18 156.998 128.48 154.688 130.87 153.018 C 132.62 151.808 134.66 151.848 136.27 153.548 C 137.72 155.068 137.71 156.858 136.68 158.558 C 135.13 161.078 133.03 161.748 130.14 159.768 Z"/>
  <path fill="#000000" opacity="1.000000" stroke="none" d="M 152.89 154.208 C 153.9 151.358 155.66 150.308 158 151.618 C 160.05 152.768 160.79 154.878 160.06 157.188 C 159.46 159.108 158.15 160.318 155.96 159.898 C 152.97 159.328 152.62 157.128 152.89 154.208 Z"/>
  <path fill="#000000" opacity="1.000000" stroke="none" d="M 278.457 196.978 C 274.382 195.028 271.353 192.438 269.913 188.508 C 268.749 185.328 269.843 183.048 273.549 183.418 C 280.029 184.068 286.064 182.678 292.045 180.388 C 296.238 178.778 298.916 181.228 298.035 185.598 C 296.218 194.608 287.915 199.588 278.457 196.978 Z"/>
  <path fill="#000000" opacity="1.000000" stroke="none" d="M 279.822 180.298 C 273.491 179.348 272.891 177.418 276.361 170.248 C 275.746 168.548 273.663 168.538 272.665 167.208 C 271.72 165.948 270.977 164.698 271.697 163.118 C 272.298 161.798 273.472 161.098 274.853 161.008 C 276.65 160.888 277.575 162.208 278.061 163.648 C 279.446 167.768 282.638 170.798 284.477 174.628 C 286.731 179.328 282.764 179.248 279.822 180.298 Z"/>
  <path fill="#000000" opacity="1.000000" stroke="none" d="M 291.248 170.358 C 288.08 168.518 288.256 166.158 289.944 163.908 C 291.307 162.098 293.269 160.858 295.463 162.808 C 297.58 164.688 297.457 166.888 295.699 168.978 C 294.656 170.218 293.166 170.468 291.248 170.358 Z"/>
  <path fill="#000000" opacity="1.000000" stroke="none" d="M 365.33 265.576 C 364.887 269.203 362.291 269.298 359.866 269.093 C 358.45 268.974 356.764 268.008 357.042 266.246 C 357.507 263.299 359.386 261.408 362.402 260.464 C 363.468 262.271 364.354 263.773 365.33 265.576 Z"/>
  <path fill="#000000" opacity="1.000000" stroke="none" d="M 361.895 254.368 C 362.296 257.08 361.055 258.122 358.892 258.045 C 357.127 257.983 356.418 256.579 356.073 255.088 C 355.703 253.478 356.19 252.038 357.789 251.428 C 360.122 250.548 360.971 252.308 361.895 254.368 Z"/>
  <path fill="#000000" opacity="1.000000" stroke="none" d="M 369.754 258.618 C 369.711 258.12 369.707 257.95 369.757 257.796 C 370.674 254.958 372.573 253.758 375.4 254.868 C 376.78 255.412 377.266 256.943 376.32 258.16 C 374.515 260.481 372.322 261.472 369.754 258.618 Z"/>
</svg>