<?xml version="1.0" encoding="utf-8"?>
<svg xmlns="http://www.w3.org/2000/svg" viewBox="0 0 500 500">
  <path fill="#000000" opacity="1.000000" stroke="none" d="M 198.326 302.815 C 203.539 296.219 205.508 288.632 207.724 281.117 C 208.611 278.111 207.66 276.339 205.086 275.105 C 203.464 275.571 203.847 276.957 203.6 278.006 C 202.733 281.691 190.313 291.256 186.716 290.272 C 181.448 288.831 176.655 286.107 173.205 281.623 C 172.012 280.072 171.754 277.963 172.636 276.371 C 179.238 264.437 182.381 250.882 190.058 239.456 C 193.656 234.099 198.431 230.027 203.631 226.362 C 205.331 225.163 208.033 224.305 206.727 221.52 C 205.415 218.722 203.998 215.59 199.832 216.245 C 198.191 216.504 196.514 216.742 194.863 216.689 C 189.672 216.523 186.982 213.127 188.133 208.111 C 188.525 206.402 188.819 205.206 187.254 203.716 C 181.651 198.382 182.631 190.638 189.289 186.639 C 191.862 185.093 194.68 184.135 197.663 183.515 C 202.234 182.565 204.808 179.614 205.353 174.915 C 206.748 162.888 213.339 154.356 223.487 148.316 C 227.095 146.169 230.998 145.123 235.283 144.705 C 244.128 143.843 252.468 146.308 260.877 148.033 C 267.142 149.318 270.718 155.806 269.586 162.319 C 269.29 164.02 269.077 165.492 269.965 167.097 C 278.286 182.149 278.221 197.205 269.871 212.238 C 269.724 212.501 269.789 212.882 269.749 213.266 C 271.23 214.797 272.944 214.358 274.799 214.054 C 286.12 212.198 296.391 207.462 306.689 202.731 C 311.199 200.659 315.565 198.007 320.719 197.793 C 323.33 197.685 326.334 197.174 327.49 200.528 C 328.641 203.871 327.205 206.562 324.372 208.16 C 321.871 209.571 320.965 211.162 322.172 213.769 C 326.089 222.234 315.224 229.512 308.644 226.948 C 305.897 225.878 304.004 226.623 301.707 227.89 C 291.209 233.679 280.521 239.13 269.143 242.983 C 264.504 244.553 262.703 247.021 262.736 252.071 C 262.791 260.494 264.125 269.026 261.409 277.371 C 260.749 279.399 262.032 281.557 263.026 283.507 C 268.243 293.742 273.088 304.137 276.655 315.088 C 278.141 319.648 277.853 324.69 280.643 329.192 C 283.618 329.186 286.507 327.647 289.687 327.655 C 293.034 327.663 295.749 328.6 297.09 331.649 C 298.472 334.791 298.805 338.236 296.288 341.052 C 288.988 349.217 279.519 353.404 268.953 355.328 C 265.948 355.875 263.224 354.887 261.712 352.045 C 259.527 347.936 256.741 343.91 255.678 339.495 C 253.944 332.295 251.01 325.705 247.786 319.168 C 245.431 314.391 243.151 309.553 240.428 304.987 C 237.795 300.574 235.714 300.513 233.123 304.682 C 226.978 314.572 219.727 323.275 209.464 329.206 C 205.197 331.672 204.043 335.205 206.983 339.671 C 207.97 341.171 208.603 342.966 209.107 344.711 C 210.674 350.134 207.965 353.9 202.401 354.469 C 196.746 355.049 191.91 353.096 187.477 349.888 C 181.983 345.911 177.826 340.795 174.733 334.75 C 172.591 330.563 173.323 327.27 176.809 324.087 C 184.17 317.365 192.189 311.291 198.326 302.815 M 213.915 262.791 C 212.224 270.893 212.79 272.805 218.187 273.503 C 228.917 274.891 239.695 275.464 250.525 274.222 C 255.588 273.641 257.277 270.868 257.256 266.166 C 257.225 259.346 257.452 252.526 257.5 245.705 C 257.521 242.687 258.698 240.179 260.729 238.096 C 262.036 236.756 263.722 235.656 265.628 236.873 C 270.079 239.717 272.712 235.572 275.796 234.048 C 278.887 232.52 275.944 229.997 275.618 227.921 C 275.464 226.941 275.176 225.974 274.868 225.028 C 273.865 221.946 272.106 220.48 268.568 221.363 C 264.548 222.367 260.381 222.768 256.33 223.663 C 254.447 224.079 252.533 224.563 251.244 226.46 C 244.18 236.861 235.297 237.225 227.791 227.407 C 226.303 225.461 224.832 224.667 222.307 225.119 C 214.795 226.466 208.786 230.589 203.248 235.394 C 200.043 238.176 202.338 241.229 204.051 243.865 C 205.731 246.451 207.848 247.372 210.721 245.227 C 213.004 243.522 215.732 242.634 218.525 242.048 C 219.545 241.834 220.603 241.901 221.26 242.786 C 222.058 243.861 221.936 245.324 220.986 245.977 C 215.285 249.89 215.925 256.461 213.915 262.791 M 226.897 302.894 C 228.911 299.455 230.929 296.016 232.939 292.574 C 233.935 290.87 234.642 288.755 237.037 288.647 C 239.73 288.526 239.994 291.046 240.797 292.705 C 246.29 304.065 253.073 314.76 258.107 326.356 C 258.618 327.534 259.111 328.872 260.682 329.148 C 265.846 330.054 272.127 323.185 270.944 318.209 C 267.991 305.793 261.093 294.986 256.861 283.1 C 255.98 280.626 254.004 280.084 251.63 280.344 C 240.873 281.52 230.115 282.084 219.341 280.508 C 216.015 280.022 214.082 281.365 213.274 284.789 C 210.664 295.861 205.413 305.546 197.502 313.758 C 196.153 315.158 195.342 316.66 196.196 318.691 C 198.293 323.677 204.53 325.379 208.809 322.157 C 215.757 316.924 222.08 311.117 226.897 302.894 M 232.651 224.191 C 234.185 226.655 236.426 228.204 239.292 227.738 C 241.792 227.332 245.598 226.592 244.322 223.124 C 242.453 218.045 245.71 218.292 248.607 217.739 C 254.084 216.693 259.314 215.094 263.138 210.72 C 272.712 199.772 271.003 179.333 263.589 169.544 C 258.449 162.758 256.235 162.408 249.048 166.736 C 245.233 169.034 241.115 170.188 236.826 170.757 C 233.866 171.149 232.457 172.576 231.955 175.439 C 231.026 180.741 227.996 184.893 224.174 188.479 C 222.134 190.394 219.89 191.436 218.217 187.982 C 217.588 186.682 216.796 185.574 215.244 185.865 C 213.607 186.172 212.846 187.565 212.353 189.028 C 210.686 193.972 215.634 200.39 220.769 199.539 C 225.314 198.786 226.825 200.037 225.428 204.526 C 224.816 206.491 225.904 208.286 227.017 209.561 C 230.545 213.603 232.5 218.103 232.651 224.191 M 191.716 274.664 C 192.975 273.24 196.169 272.962 195.606 270.647 C 193.939 263.795 197.533 258.998 200.944 253.823 C 203.35 250.172 199.197 248.66 197.407 246.744 C 195.488 244.69 193.758 246.417 192.684 248.241 C 188.723 254.968 185.728 262.157 183.214 269.516 C 182.474 271.684 183.044 274.875 185.343 275.39 C 187.012 275.764 189.641 279.722 191.716 274.664 M 297.502 213.663 C 292.861 215.432 288.257 217.312 283.37 218.337 C 280.548 218.93 279.801 220.76 280.997 223.115 C 282.181 225.446 281.929 230.015 286.51 228.295 C 291.297 226.497 296.398 224.723 300.289 221.602 C 303.509 219.019 306.021 218.538 310.128 220.874 C 308.613 217.905 306.319 215.957 308.38 213.653 C 310.243 211.569 312.556 213.09 315.372 214.006 C 313.458 211.635 312.043 209.882 310.415 207.865 C 306.323 209.707 302.268 211.534 297.502 213.663 M 288.354 333.833 C 285.383 334.226 283.712 336.072 282.642 338.735 C 282.008 340.316 281.067 341.675 278.978 341.455 C 276.51 341.196 276.568 339.288 276.532 337.297 C 271.992 339.822 269.859 338.155 269.68 333.571 C 262.454 334.749 261.418 336.375 263.779 342.477 C 264.435 344.174 265.217 345.824 265.979 347.477 C 266.698 349.035 267.747 349.505 269.581 349.146 C 277.297 347.636 283.805 343.719 289.813 338.967 C 291.772 337.417 292.506 334.983 288.354 333.833 M 184.673 325.706 C 181.288 328.319 181.114 331.442 183.184 334.942 C 184.312 336.85 185.535 338.871 188.084 338.461 C 189.801 338.185 191.613 337.495 192.501 335.748 C 192.287 334.167 190.096 333.592 191.171 330.627 C 191.438 329.832 194.306 330.612 194.826 328.509 C 191.587 322.88 190.174 322.4 184.673 325.706 M 199.167 347.917 C 200.52 347.906 201.939 347.916 202.135 346.108 C 202.293 344.642 201.55 343.312 200.293 342.898 C 197.823 342.082 195.236 341.727 193.257 344.137 C 194.301 346.651 196.354 347.259 199.167 347.917 M 206.954 262.83 C 207.118 261.81 207.11 260.854 206.011 260.31 C 201.441 263.637 201.058 265.25 203.834 269.9 C 206.216 268.357 205.895 265.632 206.954 262.83 Z"/>
  <path fill="#000000" opacity="1.000000" stroke="none" d="M 250.082 199.768 C 252.658 200.004 254.815 200.068 256.945 200.343 C 261.607 200.945 262.92 203.441 260.846 207.569 C 258.418 212.404 252.966 214.573 246.759 213.174 C 241.371 211.959 237.756 207.532 237.794 202.121 C 237.815 199.053 239.378 197.378 242.472 197.849 C 244.902 198.219 247.261 199.059 250.082 199.768 Z"/>
  <path fill="#000000" opacity="1.000000" stroke="none" d="M 254.087 191.921 C 255.303 191.18 256.338 190.708 257.817 190.033 C 255.709 188.302 253.914 186.437 257.097 184.108 C 258.289 183.237 257.44 181.603 257.582 180.324 C 257.804 178.315 257.974 175.841 260.71 176.301 C 263.415 176.756 264.711 179.361 263.588 181.624 C 262.141 184.54 262.442 186.474 264.221 189.111 C 265.945 191.665 264.388 194.159 261.564 194.784 C 258.744 195.408 254.866 197.637 254.087 191.921 Z"/>
  <path fill="#000000" opacity="1.000000" stroke="none" d="M 245.803 184.009 C 242.913 182.408 242.713 180.262 243.959 177.964 C 244.761 176.484 246.36 176.291 247.893 176.615 C 249.777 177.012 250.691 178.453 250.7 180.21 C 250.716 183.1 248.988 184.298 245.803 184.009 Z"/>
</svg>