<?xml version="1.0" encoding="utf-8"?>
<svg xmlns="http://www.w3.org/2000/svg" viewBox="0 0 500 500">
  <path fill="#000000" opacity="1.000000" stroke="none" d="M 312.094 197.207 C 314.992 197.543 318.425 196.091 319.103 199.932 C 319.734 203.501 317.156 205.419 314.256 206.652 C 302.281 211.74 289.82 215.332 277.271 218.688 C 267.63 221.266 257.977 223.889 249.05 228.554 C 247.14 229.552 244.556 230.315 244.725 232.801 C 244.891 235.242 247.541 235.886 249.54 236.593 C 257.722 239.491 266.421 240.113 274.806 242.188 C 284.08 244.482 293.195 246.982 300.993 252.771 C 309.736 259.261 311.283 267.834 305.006 276.696 C 297.678 287.041 287.11 293.47 276.223 299.374 C 274.67 300.216 272.624 300.846 271.282 298.823 C 269.849 296.661 271.06 294.958 272.723 293.66 C 278.759 288.95 285.718 285.547 291.464 280.403 C 294.337 277.832 297.089 275.179 299.054 271.843 C 302.362 266.228 301.453 261.542 295.953 258.091 C 286.235 251.993 275.516 248.439 264.178 246.991 C 257.351 246.12 250.769 244.439 244.397 242.01 C 240.473 240.514 236.806 238.408 236.615 233.31 C 236.42 228.105 239.976 225.612 243.756 223.393 C 249.529 220.004 255.934 218.061 262.169 215.743 C 263.048 215.416 264.081 215.364 264.849 213.88 C 256.091 214.159 248.207 216.569 240.281 218.707 C 230.969 221.219 221.6 223.582 212.927 227.975 C 211.448 228.724 209.982 229.543 208.634 230.503 C 204.095 233.737 203.918 236.494 208.373 239.96 C 213.009 243.568 218.525 245.639 223.898 247.881 C 231.271 250.959 238.795 253.72 245.551 258.083 C 253.893 263.472 254.415 269.498 247.1 276.204 C 242.224 280.675 236.087 283.051 230.21 285.75 C 217.187 291.729 203.699 296.55 190.148 301.183 C 188.889 301.613 187.609 301.993 186.322 302.331 C 184.161 302.897 181.815 303.487 180.963 300.562 C 180.168 297.83 182.479 297.175 184.342 296.539 C 195.854 292.606 207.013 287.785 218.214 283.079 C 225.589 279.982 232.818 276.548 239.574 272.229 C 245.093 268.701 245.017 266.331 239.451 262.92 C 231.022 257.755 221.539 254.935 212.625 250.847 C 208.512 248.961 204.601 246.837 201.396 243.549 C 196.475 238.502 196.51 233.516 201.305 228.213 C 205.605 223.458 211.174 220.648 216.961 218.71 C 238.588 211.469 260.721 206.168 283.172 202.09 C 292.645 200.369 302.081 198.467 312.094 197.207 Z"/>
  <path fill="#000000" opacity="1.000000" stroke="none" d="M 243.5 296.354 C 242.722 296.761 242.246 296.924 241.802 297.151 C 239.316 298.417 236.168 300.681 234.418 297.353 C 232.833 294.339 236.449 292.638 238.499 290.834 C 238.744 290.619 239.055 290.457 239.361 290.335 C 241.605 289.442 244.129 287.362 246.152 289.967 C 248.292 292.72 245.568 294.424 243.5 296.354 Z"/>
  <path fill="#000000" opacity="1.000000" stroke="none" d="M 270.892 285.279 C 268.123 287.26 265.755 291.837 262.514 287.826 C 259.492 284.086 263.908 282.086 266.285 280.076 C 267.905 278.706 270.079 277.157 272.069 279.036 C 274.248 281.093 273.118 283.261 270.892 285.279 Z"/>
</svg>