<?xml version="1.0" encoding="utf-8"?>
<svg xmlns="http://www.w3.org/2000/svg" viewBox="0 0 500 500">
  <path fill="#000000" opacity="1.000000" stroke="none" d="M 58.543 278.094 C 69.566 270.161 81.47 266.898 94.687 268.718 C 100.281 269.488 105.588 268.046 110.728 266.064 C 113.132 265.137 113.058 262.812 113.249 260.571 C 114.068 250.933 118.521 243.344 128.143 240.977 C 148.327 236.012 167.283 227.395 187.45 222.192 C 200.406 218.849 213.477 215.001 226.275 210.562 C 233.606 208.019 241.529 205.946 249.386 205.019 C 256.869 204.137 263.815 201.422 271.145 200.07 C 295.717 195.538 320.115 190.07 344.894 186.668 C 348.661 186.15 352.414 185.516 356.166 184.895 C 365.973 183.272 373.698 186.697 378.759 195.619 C 380.635 198.925 382.352 199.301 385.893 198.422 C 397.492 195.541 407.983 189.696 419.419 186.424 C 432.11 182.794 448.325 195.197 447.827 208.3 C 447.566 215.145 441.167 222.573 433.031 225.492 C 422.351 229.324 411.154 230.631 400.047 232.485 C 393.491 233.579 387.652 235.099 384.592 243.055 C 381.138 252.037 372.175 255.031 363.127 257.605 C 349.154 261.581 335.601 267.007 321.711 271.301 C 309.589 275.048 297.262 278.142 284.994 281.404 C 278.64 283.094 272.181 284.394 265.831 286.098 C 253.221 289.484 240.332 291.604 227.725 295.113 C 212.346 299.393 196.703 302.845 181.023 305.87 C 173.73 307.278 166.567 309.321 159.378 310.98 C 154.404 312.128 149.621 313.277 144.486 313.528 C 134.905 313.996 127.583 309.531 121.149 303.283 C 119.099 301.292 117.269 302.364 115.717 302.814 C 107.44 305.212 99.256 307.961 91.415 311.575 C 84.13 314.934 76.424 315.999 68.614 315.284 C 54.709 314.012 50.455 298.825 52.75 289.434 C 53.764 285.283 55.981 281.825 58.543 278.094 M 274.306 207.493 C 251.894 212.478 229.835 218.691 207.84 225.307 C 186.042 231.865 163.796 236.931 142.004 244.826 C 159.406 261.8 161.133 281.185 155.905 301.828 C 158.097 303.095 159.645 302.352 161.277 302.172 C 170.557 301.148 178.74 296.034 188.062 295.153 C 192.008 294.78 196.014 294.307 199.812 293.236 C 221.47 287.129 243.409 282.175 265.344 277.237 C 271.676 275.812 277.416 272.594 283.821 271.715 C 294.696 270.223 305.012 266.522 315.493 263.616 C 330.175 259.544 344.416 253.966 358.988 249.426 C 376 244.126 378.829 243.515 379.206 221.95 C 379.348 213.831 375.223 206.93 371.392 200.242 C 368.681 195.507 363.921 192.6 358.045 192.966 C 345.99 193.716 333.975 195.072 322.261 198.022 C 314.873 199.882 307.319 200.775 299.897 202.455 C 291.725 204.305 283.364 205.62 274.306 207.493 M 75.149 305.724 C 78.019 305.944 80.744 305.384 83.467 304.462 C 97.283 299.786 111.097 295.097 124.979 290.622 C 128.228 289.574 129.725 287.335 129.877 284.469 C 130.065 280.948 129.641 277.352 129.102 273.847 C 128.485 269.837 124.822 267.88 121.385 269.906 C 112.325 275.246 102.497 277.178 92.228 276.369 C 83.675 275.695 76.253 278.123 69.056 282.357 C 63.306 285.74 59.857 291.558 60.97 296.969 C 61.846 301.227 68.072 305.316 75.149 305.724 M 387.032 214.453 C 387.967 216.488 387.868 218.654 387.9 220.818 C 387.983 226.527 388.878 227.327 394.437 225.613 C 404.719 222.441 415.562 222.323 425.901 219.626 C 436.048 216.98 440.499 213.095 438.982 205.387 C 437.727 199.011 426.312 192.491 420.04 194.598 C 410.475 197.811 400.866 200.878 391.596 204.968 C 385.299 207.747 385.137 207.38 387.032 214.453 M 135.885 267.616 C 138.961 278.978 140.367 290.108 131.098 299.609 C 134.472 301.996 137.786 303.688 141.528 304.48 C 143.572 304.913 144.967 304.346 146.033 302.412 C 153.012 289.75 151.07 267.522 141.626 256.224 C 138.827 252.875 134.693 250.217 130.385 251.174 C 126.322 252.077 121.633 253.888 121.404 260.276 C 128.158 258.347 132.827 260.753 135.885 267.616 Z"/>
  <path fill="#000000" opacity="1.000000" stroke="none" d="M 321.35 241.713 C 329.854 239.517 337.942 237.341 346.067 235.156 C 347.574 237.844 346.642 239.44 344.227 240.892 C 338.46 244.361 332.019 245.664 325.617 247.207 C 319.386 248.709 313.201 250.407 307.009 252.07 C 303.371 253.046 300.59 252.17 298.419 248.162 C 306.447 246.93 313.393 243.378 321.35 241.713 Z"/>
</svg>