<?xml version="1.0" encoding="utf-8"?>
<svg xmlns="http://www.w3.org/2000/svg" viewBox="0 0 500 500">
  <path fill="#000000" opacity="1.000000" stroke="none" d="M 386.31 297.266 C 387.589 299.927 388.821 302.579 385.954 304.208 C 383.365 305.678 381.604 303.317 380.172 301.552 C 373.354 293.15 366.626 284.674 359.891 276.204 C 357.662 273.401 355.586 270.576 351.254 272.679 C 350.163 273.209 348.407 273.3 347.343 272.789 C 342.76 270.59 340.759 272.441 338.854 276.694 C 336.374 282.228 330.522 282.91 326.046 278.705 C 323.335 276.158 321.51 272.982 319.999 269.604 C 318.911 267.172 317.605 264.976 314.361 266.749 C 311.289 268.428 312.082 270.812 313.308 273.166 C 316.306 278.92 319.379 284.635 322.394 290.38 C 323.587 292.653 324.976 295.211 321.648 296.719 C 318.515 298.138 317.077 295.634 316.02 293.312 C 310.627 281.459 303.554 270.547 297.152 259.258 C 295.33 256.046 293.323 254.037 289.229 254.9 C 286.332 255.511 283.632 254.16 281.234 252.609 C 278.2 250.646 276.462 251.561 275.017 254.633 C 271.135 262.882 263.382 263.57 258.121 256.015 C 255.757 252.619 253.892 248.845 252.069 245.112 C 250.502 241.903 248.585 241.518 245.722 243.413 C 242.529 245.525 239.221 247.464 235.957 249.467 C 232.931 251.325 229.572 252.05 226.438 250.377 C 223.144 248.618 221.696 250.19 219.93 252.552 C 210.363 265.349 200.373 277.83 191.322 291.011 C 190.476 292.244 189.572 293.451 188.575 294.563 C 187.489 295.775 186.162 296.415 184.623 295.278 C 183.245 294.26 182.851 292.915 183.532 291.314 C 184.776 288.39 186.362 285.69 188.303 283.145 C 193.349 276.527 198.269 269.812 203.204 263.109 C 203.562 262.623 203.634 261.927 204.039 260.747 C 199.609 260.876 195.529 261.03 191.615 259.684 C 189.919 259.101 189.184 260.381 188.817 261.755 C 187.556 266.476 185.206 270.141 179.777 270.241 C 174.209 270.342 171.653 266.419 169.603 262.004 C 169.123 260.968 168.582 259.961 167.996 258.796 C 164.37 259.116 162.518 261.988 160.121 263.833 C 155.961 267.035 151.981 270.244 146.158 268.887 C 143.558 268.281 142.836 270.796 141.81 272.326 C 135.041 282.42 128.574 292.724 120.935 302.206 C 119.05 304.545 117.119 308.796 113.676 306.254 C 110.203 303.69 114.194 300.9 115.749 298.788 C 130.288 279.04 142.426 257.741 155.823 237.259 C 159.558 231.549 164.003 226.361 168.965 221.615 C 175.502 215.362 179.46 214.944 186.013 221.509 C 194.727 230.239 202.299 239.97 208.547 250.662 C 209.034 251.495 209.118 252.608 210.973 253.138 C 216.063 247.414 219.972 240.503 224.461 234 C 232.301 222.642 239.99 211.133 248.573 200.35 C 256.548 190.33 261.43 190.647 269.732 200.415 C 280.066 212.576 286.597 227.109 294.448 240.814 C 295.689 242.981 296.824 245.218 298.204 247.291 C 300.97 251.445 302.467 251.537 305.869 247.737 C 310.754 242.283 315.273 236.485 321.254 232.104 C 326.708 228.109 329.449 228.354 334.362 232.933 C 343.08 241.058 349.698 250.866 356.709 260.366 C 366.004 272.962 375.729 285.212 386.31 297.266 M 233.971 230.94 C 232.324 233.611 229.669 235.665 228.878 238.84 C 228.446 240.573 227.879 242.575 229.632 243.939 C 231.28 245.222 233.17 244.812 234.784 243.801 C 237.315 242.216 239.791 240.526 242.183 238.737 C 249.748 233.08 253.703 233.963 258.168 242.376 C 259.801 245.452 261.223 248.686 263.22 251.51 C 265.455 254.671 268.013 254.241 269.625 250.783 C 269.972 250.039 270.097 249.194 270.339 248.4 C 273.114 239.274 275.159 238.684 282.302 244.837 C 283.999 246.298 285.654 248.172 288.33 247.101 C 289.324 245.244 288.348 243.679 287.618 242.319 C 280.628 229.285 273.338 216.409 264.207 204.729 C 259.698 198.961 258.329 199.165 253.747 205.091 C 247.259 213.485 240.846 221.936 233.971 230.94 M 149.238 260.788 C 149.876 263.344 150.406 263.682 152.698 262.015 C 156.055 259.573 159.198 256.834 162.406 254.19 C 168.914 248.826 170.246 249.088 174.21 256.381 C 175.679 259.084 176.744 263.342 180.029 263.061 C 183.472 262.765 183.429 258.339 184.292 255.402 C 185.805 250.25 187.458 249.529 192.18 251.965 C 193.803 252.803 195.404 253.847 197.143 254.261 C 200.213 254.99 201.704 253.652 200.718 250.447 C 200.334 249.197 199.702 247.935 198.881 246.922 C 193.437 240.206 188.05 233.435 182.361 226.93 C 178.906 222.979 177.111 223.153 173.42 227.14 C 164.12 237.188 155.969 248.077 149.238 260.788 M 316.375 257.213 C 322.681 256.237 323.139 262.005 325.557 265.362 C 327.318 267.807 327.427 272.345 331.188 272.135 C 335.261 271.907 335.222 267.56 336.101 264.427 C 337.311 260.111 339.045 259.638 342.85 262.396 C 344.617 263.677 346.24 265.516 349.114 264.533 C 348.893 263.498 348.898 262.623 348.533 261.949 C 343.502 252.642 336.335 245.023 329.057 237.5 C 328.187 236.601 327.001 236.095 325.945 237.063 C 319.21 243.241 312.789 249.725 307.217 256.994 C 306.3 258.192 306.553 259.532 307.584 260.634 C 308.766 261.897 310.071 261.332 311.209 260.638 C 312.761 259.69 314.2 258.559 316.375 257.213 Z"/>
  <path fill="#000000" opacity="1.000000" stroke="none" d="M 154.172 289.449 C 150.389 291.162 149.412 288.96 150.177 286.377 C 151.298 282.593 153.113 278.987 156.327 276.351 C 157.564 275.336 158.848 274.59 160.352 275.623 C 162.055 276.793 161.285 278.348 160.542 279.592 C 158.591 282.855 156.475 286.019 154.172 289.449 Z"/>
  <path fill="#000000" opacity="1.000000" stroke="none" d="M 284.801 271.607 C 288.892 271.988 293.978 278.015 293.51 281.388 C 293.304 282.868 292.558 283.84 290.956 283.837 C 287.088 283.828 282.649 275.541 284.801 271.607 Z"/>
  <path fill="#000000" opacity="1.000000" stroke="none" d="M 273.19 279.237 C 274.74 282.328 274.898 285.324 274.775 288.269 C 274.647 291.354 272.55 291.722 270.254 290.517 C 267.904 289.285 267.082 280.984 268.952 279.065 C 270.234 277.749 271.582 278.006 273.19 279.237 Z"/>
  <path fill="#000000" opacity="1.000000" stroke="none" d="M 228.02 263.358 C 229.624 261.935 231.009 260.964 232.589 262.667 C 233.784 263.957 233.627 265.377 232.764 266.794 C 232.071 267.929 231.309 269.03 230.713 270.215 C 229.537 272.547 227.741 274.397 225.229 272.903 C 222.387 271.212 224.387 268.82 225.425 266.855 C 226.039 265.692 226.965 264.694 228.02 263.358 Z"/>
  <path fill="#000000" opacity="1.000000" stroke="none" d="M 246.614 273.401 C 247.125 271.753 247.486 270.488 247.911 269.245 C 248.487 267.562 248.879 265.282 251.354 266.107 C 253.307 266.758 253.582 268.768 253.31 270.691 C 253.125 271.991 252.835 273.276 252.675 274.577 C 252.37 277.065 251.619 279.445 248.584 278.956 C 245.618 278.477 246.236 275.92 246.614 273.401 Z"/>
  <path fill="#000000" opacity="1.000000" stroke="none" d="M 174.309 288.778 C 173.481 290.474 172.776 291.815 171.442 292.628 C 170.359 293.289 169.193 293.274 168.163 292.529 C 167.266 291.881 167.032 290.866 167.322 289.846 C 168.005 287.441 168.754 285.035 170.634 283.241 C 171.804 282.124 173.017 280.445 174.854 281.615 C 176.572 282.709 176.032 284.521 175.429 286.131 C 175.137 286.908 174.791 287.665 174.309 288.778 Z"/>
  <path fill="#000000" opacity="1.000000" stroke="none" d="M 215.111 295.746 C 213.617 297.125 212.127 297.623 210.788 296.617 C 209.36 295.545 209.782 293.823 210.48 292.53 C 211.773 290.135 212.135 286.994 215.197 285.888 C 216.222 285.518 217.28 285.931 217.758 286.887 C 219.278 289.927 217.113 292.201 215.96 294.671 C 215.823 294.965 215.578 295.208 215.111 295.746 Z"/>
  <path fill="#000000" opacity="1.000000" stroke="none" d="M 232.279 304.875 C 231.714 304.755 231.539 304.701 231.431 304.585 C 229.057 302.03 229.54 299.397 231.655 297.127 C 232.725 295.98 234.461 296.662 234.987 297.951 C 236.133 300.758 236.234 303.508 232.279 304.875 Z"/>
</svg>