<?xml version="1.0" encoding="utf-8"?>
<svg xmlns="http://www.w3.org/2000/svg" viewBox="0 0 500 500">
  <path fill="#000000" opacity="1.000000" stroke="none" d="M -27.512 -153.41 C -28.764 -149.71 -25.623 -147.38 -25.467 -144.14 C -25.149 -137.55 -23.87 -131.01 -22.986 -124.44 C -21.236 -111.45 -21.693 -98.621 -26.107 -86.141 C -26.949 -83.759 -27.384 -80.231 -31.086 -81.181 C -34.672 -82.102 -34.321 -85.473 -33.856 -88.278 C -32.798 -94.661 -31.205 -100.96 -30.96 -107.47 C -30.611 -116.75 -31.737 -125.86 -33.334 -135 C -35.435 -147.02 -40.541 -158.08 -43.724 -169.74 C -44.193 -171.46 -44.389 -173.41 -46.624 -174.42 C -53.296 -171.15 -55.293 -164.13 -58.645 -158.31 C -63.613 -149.7 -66.718 -140.09 -68.989 -130.59 C -71.298 -120.93 -73.155 -111.02 -74.226 -101.01 C -75.249 -91.44 -76.042 -81.898 -76.411 -72.294 C -76.479 -70.506 -76.255 -67.718 -78.913 -67.453 C -81.555 -67.19 -84.049 -68.856 -84.85 -71.205 C -88.264 -81.204 -94.271 -89.916 -98.464 -99.5 C -101.94 -107.45 -106.7 -108.49 -112.77 -102.18 C -116.09 -98.724 -118.87 -94.892 -120.45 -90.175 C -121.93 -85.793 -124.06 -81.63 -125.93 -77.386 C -132.3 -62.978 -136.51 -47.788 -142.07 -33.085 C -142.95 -30.755 -143.98 -28.478 -145.02 -26.214 C -145.96 -24.175 -147.01 -22.241 -149.88 -23.25 C -152.76 -24.265 -153.76 -26.43 -153.08 -29.166 C -152.32 -32.221 -151.09 -35.157 -150.15 -38.171 C -143.83 -58.491 -137.96 -78.985 -128.52 -98.166 C -125.72 -103.85 -121.75 -108.93 -116.99 -113.06 C -109.83 -119.28 -100.96 -118.07 -95.595 -110.33 C -92.014 -105.17 -88.953 -99.64 -85.407 -93.867 C -84.175 -105.58 -83.238 -117.04 -80.334 -128.2 C -76.17 -144.19 -70.538 -159.56 -61.49 -173.53 C -59.688 -176.31 -58.326 -179.35 -56.051 -181.85 C -51.147 -187.25 -44.306 -187.07 -39.834 -181.22 C -33.578 -173.04 -30.565 -163.38 -27.512 -153.41 Z"/>
  <path fill="#000000" opacity="1.000000" stroke="none" d="M -56.342 -43.739 C -56.766 -55.573 -57.801 -66.98 -57.267 -78.402 C -56.297 -99.14 -55.137 -119.87 -53.94 -140.6 C -53.818 -142.72 -52.931 -144.79 -52.355 -146.87 C -51.65 -149.42 -49.917 -151.09 -47.31 -150.78 C -44.345 -150.43 -44.531 -147.76 -44.757 -145.64 C -46.083 -133.22 -45.602 -120.77 -45.531 -108.32 C -45.43 -90.746 -46.019 -73.189 -45.213 -55.582 C -44.783 -46.171 -43.848 -36.489 -45.627 -26.971 C -46.09 -24.496 -46.974 -22.944 -49.618 -22.755 C -52.128 -22.576 -53.636 -23.581 -54.423 -26.078 C -56.199 -31.715 -56.089 -37.528 -56.342 -43.739 Z"/>
  <path fill="#000000" opacity="1.000000" stroke="none" d="M -27.765 -66.719 C -24.578 -71.41 -21.823 -76.005 -18.422 -80.056 C -13.688 -85.693 -8.134 -85.474 -3.368 -79.713 C 2.459 -72.67 5.821 -64.382 8.107 -55.624 C 9.738 -49.371 10.749 -42.971 13.149 -36.902 C 15.366 -31.297 14.299 -27.12 10.311 -24.088 C 7.66 -25.581 6.91 -28.334 5.822 -30.91 C 2.054 -39.83 0.9 -49.491 -2.095 -58.62 C -4.034 -64.528 -6.438 -70.272 -10.27 -75.822 C -16.588 -70.049 -18.164 -62.49 -21.579 -55.987 C -24.425 -50.568 -27.172 -45.089 -30.259 -39.81 C -31.155 -38.279 -32.583 -35.77 -34.855 -36.884 C -37.243 -38.056 -37.7 -40.507 -37.077 -43.315 C -35.256 -51.516 -31.61 -58.95 -27.765 -66.719 Z"/>
  <path fill="#000000" opacity="1.000000" stroke="none" d="M 291.986 200.836 C 290.734 204.541 293.875 206.872 294.031 210.105 C 294.349 216.696 295.629 223.239 296.513 229.802 C 298.263 242.798 297.806 255.625 293.392 268.106 C 292.55 270.487 292.115 274.016 288.413 273.066 C 284.827 272.145 285.177 268.774 285.642 265.969 C 286.701 259.586 288.294 253.29 288.538 246.782 C 288.887 237.502 287.762 228.39 286.164 219.248 C 284.064 207.225 278.958 196.169 275.775 184.51 C 275.306 182.791 275.109 180.835 272.874 179.824 C 266.203 183.094 264.206 190.12 260.854 195.934 C 255.885 204.551 252.78 214.162 250.51 223.656 C 248.2 233.314 246.343 243.225 245.272 253.239 C 244.249 262.806 243.456 272.349 243.088 281.953 C 243.019 283.741 243.244 286.529 240.586 286.794 C 237.943 287.057 235.45 285.391 234.648 283.042 C 231.235 273.043 225.228 264.331 221.035 254.742 C 217.558 246.792 212.796 245.756 206.728 252.068 C 203.407 255.522 200.625 259.355 199.043 264.072 C 197.573 268.454 195.443 272.617 193.568 276.861 C 187.2 291.268 182.985 306.459 177.431 321.162 C 176.551 323.492 175.523 325.769 174.48 328.033 C 173.541 330.072 172.484 332.006 169.619 330.997 C 166.739 329.982 165.742 327.817 166.42 325.081 C 167.178 322.025 168.408 319.09 169.346 316.076 C 175.671 295.756 181.54 275.262 190.978 256.081 C 193.774 250.398 197.745 245.32 202.505 241.186 C 209.672 234.962 218.535 236.174 223.904 243.916 C 227.485 249.079 230.545 254.604 234.092 260.379 C 235.323 248.668 236.261 237.209 239.165 226.05 C 243.329 210.052 248.961 194.682 258.009 180.717 C 259.81 177.937 261.173 174.898 263.447 172.395 C 268.352 167 275.193 167.174 279.664 173.024 C 285.92 181.208 288.933 190.866 291.986 200.836 Z"/>
  <path fill="#000000" opacity="1.000000" stroke="none" d="M 263.156 310.508 C 262.733 298.674 261.697 287.267 262.231 275.845 C 263.202 255.105 264.362 234.373 265.559 213.644 C 265.681 211.532 266.567 209.459 267.143 207.38 C 267.849 204.831 269.581 203.161 272.188 203.469 C 275.154 203.819 274.967 206.491 274.742 208.603 C 273.416 221.026 273.896 233.479 273.968 245.925 C 274.069 263.501 273.48 281.057 274.285 298.665 C 274.716 308.076 275.65 317.758 273.872 327.275 C 273.409 329.751 272.525 331.302 269.881 331.492 C 267.371 331.671 265.862 330.665 265.076 328.169 C 263.299 322.531 263.409 316.719 263.156 310.508 Z"/>
  <path fill="#000000" opacity="1.000000" stroke="none" d="M 291.734 287.528 C 294.92 282.837 297.675 278.242 301.077 274.191 C 305.81 268.554 311.365 268.773 316.131 274.534 C 321.958 281.576 325.32 289.865 327.605 298.623 C 329.237 304.875 330.248 311.276 332.648 317.344 C 334.865 322.95 333.798 327.127 329.809 330.159 C 327.158 328.665 326.409 325.912 325.321 323.337 C 321.552 314.416 320.399 304.755 317.403 295.627 C 315.464 289.719 313.06 283.975 309.229 278.425 C 302.91 284.198 301.334 291.757 297.919 298.26 C 295.073 303.679 292.327 309.158 289.24 314.437 C 288.344 315.968 286.915 318.477 284.644 317.363 C 282.255 316.191 281.799 313.74 282.422 310.932 C 284.242 302.731 287.888 295.297 291.734 287.528 Z"/>
</svg>