<?xml version="1.0" encoding="utf-8"?>
<svg xmlns="http://www.w3.org/2000/svg" viewBox="0 0 500 500">
  <path fill="#000000" opacity="1.000000" stroke="none" d="M 175.817 65.634 C 186.088 61.087 196 59.898 207.055 61.845 C 214.352 63.131 220.75 66.171 227.583 68.221 C 231.691 69.453 233.692 74.14 236.356 77.501 C 246.237 89.964 247.224 104.348 244.322 119.144 C 243.262 124.544 243.863 128.919 247.251 132.932 C 251.208 137.618 250.858 142.727 249.033 147.971 C 247.728 151.72 245.992 155.319 244.641 159.054 C 242.699 164.424 239.452 167.66 233.29 167.562 C 229.643 167.504 227.786 170.301 226.602 173.415 C 220.649 189.063 213.059 203.882 205.423 218.784 C 197.368 234.502 187.484 249.082 179.325 264.695 C 176.022 271.016 171.631 277.191 163.28 278.306 C 156.856 279.163 155.41 277.478 153.475 271.381 C 148.159 254.627 149.181 237.293 147.553 220.188 C 146.167 205.617 145.406 191.062 145.778 176.459 C 145.947 169.854 146.814 163.261 147.508 156.678 C 147.825 153.67 147.727 151.594 143.774 151.268 C 139.215 150.891 135.323 148.386 131.681 145.741 C 128.341 143.316 127.91 135.723 129.548 129.916 C 132.061 121.006 138.342 114.97 144.466 108.789 C 146.181 107.059 147.349 105.554 147.863 103.059 C 151.291 86.415 160.034 73.594 175.817 65.634 M 236.709 102.912 C 234.489 90.522 230.007 79.791 216.991 74.939 C 209.993 72.33 202.742 69.689 195.459 69.736 C 183.485 69.812 172.753 74.043 165.109 84.111 C 160.621 90.023 156.283 96.528 156.141 103.746 C 156.029 109.481 153.65 112.807 149.77 115.045 C 143.13 118.876 140.309 125.11 137.572 131.513 C 135.951 135.304 137.431 137.775 141.214 139.916 C 146.829 143.092 151.85 142.292 157.204 139.727 C 164.857 136.06 167.395 137.174 170.635 144.939 C 171.522 147.067 172.925 148.981 174.097 150.991 C 175.528 153.446 177.985 154.28 180.477 154.113 C 185.913 153.748 191.442 153.687 196.526 151.202 C 200.395 149.311 203.543 150.032 206.802 153.142 C 213.904 159.918 225.896 161.262 234.481 156.77 C 243.032 152.295 244.376 141.696 237.186 135.44 C 233.304 132.063 232.316 128.013 234.92 123.428 C 236.418 120.79 236.773 118.191 236.725 115.33 C 236.66 111.501 236.711 107.669 236.709 102.912 M 154.775 176.154 C 151.948 182.131 153.721 188.163 153.785 194.648 C 160.65 190.544 163.085 189.895 158.857 182.567 C 156.931 179.228 159.778 178.865 162.205 178.004 C 163.401 181.016 165.748 182.743 167.496 185.193 C 171.304 182.92 174.807 180.829 178.533 178.605 C 176.152 174.073 173.963 169.907 171.804 165.799 C 165.284 168.12 161.324 173.601 154.775 176.154 M 206.774 186.669 C 207.253 181.333 204.675 176.509 201.228 173.638 C 198.884 171.684 195.742 176.892 192.629 178.023 C 187.471 179.895 188.079 183.278 189.735 186.938 C 190.934 189.588 192.67 191.994 194.218 194.596 C 198.872 192.638 202.503 189.728 206.774 186.669 M 169.766 239.422 C 173.611 238.737 175.51 235.088 178.777 233.489 C 180.046 232.868 179.903 231.388 179.466 230.353 C 177.694 226.162 175.764 222.037 173.943 218.001 C 170.831 218.473 169.446 220.834 167.417 222.216 C 160.874 226.677 160.728 227.579 164.978 234.321 C 166.111 236.119 167.023 238.189 169.766 239.422 M 192.738 210.759 C 192.05 209.342 192.109 207.498 190.32 206.548 C 188.857 207.235 187.318 207.839 185.896 208.649 C 181.891 210.928 178.93 213.216 182.088 218.734 C 183.844 221.802 184.663 225.56 186.216 228.904 C 194.012 224.777 197.67 219.892 192.738 210.759 M 158.859 201.465 C 157.227 202.758 154.272 203.473 154.702 205.891 C 155.328 209.407 154.738 213.201 156.727 216.447 C 156.892 216.718 157.178 217.088 157.429 217.106 C 162.303 217.451 164.535 212.836 168.385 211.193 C 169.905 210.544 171.365 209.104 170.281 207.234 C 168.931 204.903 168.34 202.354 167.425 199.893 C 166.623 197.738 164.922 197.352 163.009 198.431 C 161.731 199.151 160.602 200.135 158.859 201.465 M 180.85 203.178 C 189.312 198.718 189.33 197.791 181.141 186.763 C 179.348 186.684 178.214 188.132 176.747 188.807 C 174.559 189.813 171.595 190.751 172.035 193.75 C 172.606 197.639 173.866 201.509 177.082 204.199 C 178.125 205.071 179.266 204.142 180.85 203.178 M 169.97 261.718 C 172.968 258.158 169.407 255.712 168.253 253.053 C 166.477 248.966 163.081 247.709 158.676 249.474 C 157.365 256.335 161.037 262.073 162.851 268.325 C 166.779 267.647 167.356 264.082 169.97 261.718 M 179.415 166.133 C 183.533 174.932 184.451 175.229 192.38 170.298 C 193.785 169.424 195.129 168.44 196.586 167.667 C 198.701 166.544 197.895 164.814 197.502 163.305 C 197.129 161.871 196.443 160.227 194.516 160.603 C 189.499 161.585 184.506 162.701 179.529 163.871 C 178.677 164.072 179.111 164.943 179.415 166.133 M 166.349 160.579 C 166.57 156.265 163.57 153.103 162.66 149.239 C 154.229 151.118 151.37 158.611 156.115 166.568 C 159.351 164.704 162.604 162.83 166.349 160.579 M 220.526 171.391 C 220.824 169.318 219.552 167.735 217.878 167.988 C 214.442 168.507 211.274 166.664 207.497 167.257 C 209.056 171.299 210.5 175.132 212.032 178.93 C 212.311 179.622 212.229 180.655 213.754 180.977 C 215.863 178.096 218.081 175.064 220.526 171.391 M 178.018 250.918 C 179.343 246.935 182.451 243.709 183.181 239.158 C 181.474 240.014 180.381 241.438 178.585 241.345 C 176.543 241.238 175.22 242.704 173.876 243.811 C 171.307 245.928 172.246 248.272 174.233 250.148 C 175.058 250.926 175.266 254.703 178.018 250.918 M 202.357 199.01 C 196.213 202.406 195.943 203.735 200.541 208.886 C 203.899 204.536 205.517 199.36 208.66 193.798 C 206.193 195.888 204.576 197.258 202.357 199.01 M 161.053 243.666 C 162.019 241.097 159.549 241.009 158.524 239.423 C 157.689 242.818 157.689 242.818 159.348 246.144 C 159.891 245.418 160.36 244.791 161.053 243.666 Z"/>
  <path fill="#000000" opacity="1.000000" stroke="none" d="M 340.422 326.502 C 338.743 342.538 337.641 358.251 335.258 373.768 C 332.803 389.756 328.952 405.526 326.034 421.451 C 325.187 426.079 322.146 429.387 320.209 433.318 C 318.549 436.689 312.023 436.309 309.297 433.225 C 300.523 423.301 295.021 411.449 290.064 399.401 C 287.989 394.357 285.465 389.495 283.034 384.73 C 276.906 372.715 273.079 359.84 267.723 347.564 C 264.991 341.302 263.299 334.306 255.122 332.59 C 250.938 331.712 250.886 327.46 250.143 324.665 C 247.987 316.559 247.535 308.238 251.411 300.336 C 252.619 297.875 252.396 296.05 250.922 293.512 C 242.713 279.386 242.623 264.557 248.063 249.465 C 249.352 245.887 249.851 242.101 251.608 238.619 C 258.015 225.922 268.981 218.79 281.188 212.499 C 291.008 207.439 300.893 209.183 310.85 209.94 C 315.665 210.306 320.354 212.841 323.727 215.942 C 330.718 222.37 338.755 228.09 342.6 237.356 C 347.834 249.971 349.491 262.9 345.376 276.132 C 344.505 278.933 344.527 280.363 347.132 282.309 C 355.473 288.54 357.701 301.289 354.012 310.823 C 351.628 316.984 347.892 320.852 342.242 323.411 C 340.994 323.977 340.468 324.814 340.422 326.502 M 339.721 265.953 C 340.251 255.881 338.915 246.056 333.558 237.427 C 330.261 232.115 325.671 227.481 320.473 223.921 C 311.287 217.631 300.93 214.699 290.338 219.185 C 276.906 224.874 265.618 233.135 258.906 247.136 C 251.833 261.889 251.632 276.136 258.64 290.556 C 260.363 294.1 260.466 296.79 258.794 300.307 C 255.918 306.355 254.144 312.744 256.39 319.546 C 257.659 323.389 259.918 325.572 264.275 325.772 C 271.95 326.125 278.657 323.73 284.661 319.25 C 288.062 316.711 290.794 316.235 294.169 319.518 C 296.544 321.828 299.342 323.716 303.339 323.486 C 316.851 322.71 325.318 313.564 328.588 301.289 C 329.234 298.866 329.513 296.735 332.543 297.346 C 335.655 302.764 333.778 307.983 331.885 313.402 C 336.276 313.698 340.137 315.068 343.02 311.868 C 349.467 304.711 349.028 296.089 342.077 289.2 C 340.667 287.803 339.169 286.451 337.538 285.331 C 335.065 283.632 334.483 281.8 335.924 279.011 C 337.904 275.177 339.565 271.17 339.721 265.953 M 296.717 330.906 C 289.121 326.227 282.18 327.903 275.52 332.991 C 274.638 333.666 273.327 333.753 272.352 334.34 C 271.151 335.063 270.28 336.13 271.081 337.665 C 273.348 342.007 274.814 346.819 278.402 350.8 C 285.663 346.604 292.387 342.08 297.412 335.734 C 299.17 333.515 301.113 332.763 304.582 331.925 C 301.345 331.6 299.383 331.403 296.717 330.906 M 310.305 407.668 C 314.478 402.05 319.64 397.11 322.896 390.143 C 318.726 389.214 317.181 385.712 314.22 383.697 C 309.039 387.412 305.42 392.508 300.753 396.474 C 299.825 397.263 299.661 398.336 300.305 399.149 C 303.161 402.756 303.334 407.934 306.959 410.963 C 308.813 410.681 309.257 409.346 310.305 407.668 M 308.214 380.373 C 309.619 377.884 307.291 376.822 306.153 375.491 C 304.137 373.133 301.564 371.286 299.859 368.326 C 295.804 370.943 291.864 372.87 288.424 376.171 C 291.722 380.63 292.984 386.063 296.791 390.118 C 301.667 388.173 304.442 384.128 308.214 380.373 M 307.972 346.614 C 305.772 344.645 303.469 342.843 300.258 341.696 C 297.54 346.418 291.113 347.009 288.566 353.045 C 291.828 353.391 293.765 355.542 295.817 357.324 C 298.366 359.538 300.595 360.513 303.067 357.794 C 305.833 354.75 310.572 352.593 307.972 346.614 M 314.445 353.961 C 310.45 356.393 308.559 360.878 304.611 363.651 C 307.392 367.406 310.208 370.755 314.122 373.194 C 317.158 370.921 319.814 368.511 321.666 365.297 C 322.362 364.089 322.962 362.985 321.808 361.701 C 319.51 359.142 317.255 356.544 314.445 353.961 M 325.966 355.132 C 328.625 354.789 329.405 352.694 329.601 350.6 C 330.116 345.095 330.926 339.645 332.043 334.053 C 331.141 335.287 329.599 335.276 328.749 336.272 C 327.036 338.279 325.534 340.437 324.012 342.599 C 319.217 349.406 319.092 349.318 325.966 355.132 M 292.591 364.758 C 292.91 364.379 293.584 363.823 293.496 363.648 C 291.602 359.868 288.585 356.928 284.967 355.109 C 283.342 354.293 279.859 355.923 280.755 358.407 C 282.197 362.408 282.365 367.291 286.625 370.228 C 288.56 368.489 290.383 366.849 292.591 364.758 M 317.159 334.577 C 314.979 333.945 312.8 333.314 310.506 332.649 C 309.496 334.092 308.596 335.377 307.748 336.589 C 314.152 345.352 316.583 345.286 321.287 336.338 C 320.495 335.052 318.876 335.575 317.159 334.577 M 316.646 328.435 C 323.731 334.272 327.263 332.928 330.896 322.975 C 328.24 321.511 325.791 321.377 323.267 323.493 C 321.272 325.166 318.972 326.476 316.646 328.435 M 318.385 413.979 C 318.47 410.714 321.066 407.957 320.498 404.152 C 317.967 407.586 315.8 410.784 313.369 413.767 C 309.512 418.501 309.499 419.062 314.46 423.772 C 316.957 421.257 316.835 417.703 318.385 413.979 M 325.448 379.794 C 325.701 376.057 325.953 372.321 326.271 367.598 C 323.7 371.455 321.649 374.532 319.542 377.694 C 321.179 379.956 323.575 381.367 324.486 384.282 C 324.786 382.727 325.001 381.609 325.448 379.794 Z"/>
  <path fill="#000000" opacity="1.000000" stroke="none" d="M 138.151 419.713 C 141.8 419.254 143.292 421.114 144.542 423.761 C 145.917 426.674 144.476 428.265 142.602 430.175 C 140.58 432.235 139.749 435.242 136.591 436.482 C 133.495 437.696 130.551 441.058 127.4 437.393 C 124.408 433.914 124.955 429.609 126.962 425.827 C 129.165 421.677 133.401 420.472 138.151 419.713 Z"/>
  <path fill="#000000" opacity="1.000000" stroke="none" d="M 138.793 392.381 C 139.281 393.779 139.263 394.747 138.231 395.368 C 136.694 396.292 134.784 397.984 133.313 396.379 C 131.018 393.875 126.499 393.791 125.882 389.68 C 125.536 387.378 131.154 384.1 133.453 385.371 C 136.032 386.797 138.805 388.335 138.793 392.381 Z"/>
  <path fill="#000000" opacity="1.000000" stroke="none" d="M 188.227 409.377 C 187.017 413.503 183.116 414.28 180.129 411.073 C 177.322 408.06 176.687 404.263 177.131 399.747 C 182.512 401.58 186.329 404.107 188.227 409.377 Z"/>
  <path fill="#000000" opacity="1.000000" stroke="none" d="M 181.237 433.182 C 177.953 435.718 174.65 437.417 170.495 437.318 C 169.347 434.499 169.559 432.23 172.821 431.604 C 175.716 431.048 179.126 428.36 181.237 433.182 Z"/>
  <path fill="#000000" opacity="1.000000" stroke="none" d="M 373.654 110.242 C 369.896 112.396 366.457 111.339 363.24 110.109 C 357.074 107.75 350.085 109.658 344.09 106.578 C 344.203 103.974 345.73 103.196 347.584 102.646 C 357.228 99.785 365.815 102.505 373.952 107.606 C 375.149 108.356 374.784 109.217 373.654 110.242 Z"/>
  <path fill="#000000" opacity="1.000000" stroke="none" d="M 367.9 158.558 C 369.757 163.713 367.975 167.44 364.038 171.268 C 361.429 164.466 359.755 157.932 359.834 150.991 C 359.846 149.922 360.307 149.081 361.554 148.95 C 362.874 148.812 363.866 149.487 364.529 150.44 C 366.151 152.773 367.266 155.355 367.9 158.558 Z"/>
  <path fill="#000000" opacity="1.000000" stroke="none" d="M 170.572 109.381 C 168.06 103.733 168.554 98.425 170.761 93.244 C 172.464 89.25 175.103 86.468 180.729 87.342 C 177.526 93.722 176.502 100.324 175.415 106.916 C 174.985 109.521 173.53 110.647 170.572 109.381 Z"/>
  <path fill="#000000" opacity="1.000000" stroke="none" d="M 178.729 110.186 C 178.664 105.85 181.302 104.048 184.551 101.973 C 186.083 106.011 184.793 109.084 183.099 112.049 C 182.467 113.155 181.745 114.542 180.064 113.992 C 178.375 113.438 178.915 111.843 178.729 110.186 Z"/>
  <path fill="#000000" opacity="1.000000" stroke="none" d="M 271.399 260.474 C 275.801 260.958 274.195 264.065 274.195 266.202 C 274.196 268.11 272.712 269.861 273.105 271.938 C 273.439 273.703 273.751 275.473 274.115 277.47 C 270.662 279.314 268.856 277.682 267.551 274.79 C 265.275 269.745 267.019 262.581 271.399 260.474 Z"/>
  <path fill="#000000" opacity="1.000000" stroke="none" d="M 292.019 269.792 C 289.345 275.749 289.345 275.749 285.084 277.669 C 283.287 274.063 286.437 266.3 290.171 265.094 C 291.019 264.819 291.81 264.838 292.453 265.471 C 293.876 266.872 292.964 268.168 292.019 269.792 Z"/>
  <path fill="#000000" opacity="1.000000" stroke="none" d="M 281.771 249.911 C 280.468 250.73 279.416 251.535 278.45 250.199 C 276.996 248.187 278.364 246.434 279.156 244.676 C 279.853 243.128 280.769 241.499 282.758 241.929 C 284.747 242.359 286.754 243.232 285.182 245.969 C 284.369 247.384 283.737 248.973 281.771 249.911 Z"/>
</svg>