<?xml version="1.0" encoding="utf-8"?>
<svg xmlns="http://www.w3.org/2000/svg" viewBox="0 0 500 500">
  <path fill="#000000" opacity="1.000000" stroke="none" d="M 285.827 174.619 C 278.598 182.396 270.545 188.793 262.187 194.539 C 251.663 201.773 245.708 211.965 240.505 222.971 C 240.178 223.662 239.884 224.791 240.214 225.307 C 245.382 233.385 240.38 240.451 237.754 247.507 C 231.342 264.729 224.646 281.854 217.675 298.858 C 214.033 307.739 210.225 316.522 207.095 325.621 C 204.574 332.953 192.423 338.141 185.002 335.796 C 174.722 332.546 171.105 325.89 172.353 315.83 C 173.762 304.477 180.116 295.58 185.061 285.9 C 195.082 266.286 204.881 246.559 214.837 226.912 C 216.405 223.816 218.073 220.616 222.303 220.522 C 224.099 220.482 225.155 219.244 225.514 217.801 C 227.774 208.715 233.802 201.11 235.704 191.924 C 237.109 185.139 237.723 178.442 237.228 171.296 C 235.864 151.591 236.672 131.872 243.144 112.869 C 248.146 98.18 254.656 84.387 265.712 73.036 C 273.235 65.312 282.085 60.883 292.726 59.706 C 295.012 59.453 296.942 60.464 299.045 60.839 C 302.088 61.381 305.002 63.015 308.241 61.914 C 309.546 61.47 310.623 62.105 311.361 62.99 C 319.034 72.19 327.971 80.982 327.883 94.017 C 327.822 103.067 326.559 112.112 323.899 120.93 C 320.482 132.258 313.989 141.757 307.307 151.255 C 303.612 156.509 299.549 161.446 295.618 166.502 C 292.969 169.909 289.379 171.897 285.827 174.619 M 206.756 304.205 C 216.904 280.456 227.082 256.719 235.27 231.521 C 230.821 231.139 227.358 231.664 224.375 229.001 C 222.949 227.73 221.189 229.618 220.411 231.538 C 217.671 238.303 213.993 244.605 210.682 251.092 C 201.578 268.932 192.948 287.011 183.205 304.53 C 180.732 308.976 179.355 314.12 179.583 319.37 C 179.755 323.339 181.676 326.482 185.745 327.391 C 191.104 328.588 199.874 326.395 201.685 319.02 C 202.864 314.223 204.894 309.635 206.756 304.205 M 251.845 179.137 C 251.356 181.309 250.866 183.482 250.292 186.03 C 277.742 152.895 302.516 118.878 308.459 74.603 C 303.872 74.601 300.843 76.639 298.162 79.068 C 288.018 88.257 281.203 99.775 275.513 112.044 C 271.052 121.663 266.606 131.298 263.545 141.476 C 259.828 153.834 254.993 165.845 251.845 179.137 M 268.51 81.758 C 250.852 102.998 241.321 134.554 245.392 173.148 C 246.918 171.495 246.125 169.099 246.903 167.15 C 254.696 147.63 259.751 127.134 269.469 108.248 C 277.033 93.548 283.998 78.819 298.731 68.689 C 297.086 68.497 296.15 68.326 295.209 68.288 C 284.117 67.835 276.136 73.689 268.51 81.758 M 270.376 173.51 C 268.25 177.039 264.172 179.01 262.415 183.249 C 264.651 183.038 266.015 181.908 267.389 180.761 C 275.151 174.272 282.69 167.559 289.639 160.175 C 305.203 143.637 316.673 125.005 319.646 102.031 C 320.553 95.021 318.957 88.397 314.907 81.006 C 308.956 116.806 291.332 145.579 270.376 173.51 Z"/>
  <path fill="#000000" opacity="1.000000" stroke="none" d="M 266.014 331.19 C 258.711 327.552 256.931 323.733 258.563 315.658 C 262.938 294.018 268.073 272.505 277 252.295 C 281.666 241.731 289.33 233.029 302.321 231.618 C 310.658 230.712 319.41 236.48 322.534 244.81 C 325.82 253.57 324.101 262.082 322.262 270.732 C 317.996 290.793 312.676 310.569 306.626 330.156 C 304.356 337.506 301.145 340.362 295.461 339.974 C 291.22 358.957 286.44 377.87 282.925 397.015 C 280.79 408.64 277.759 419.936 274.375 431.187 C 272.321 438.017 267.728 441.078 261.452 440.182 C 252.181 438.859 247.152 434.108 246.798 426.785 C 246.304 416.565 250.343 407.376 252.862 397.808 C 258.515 376.337 263.78 354.764 270.104 333.513 C 269.318 331.807 267.659 331.847 266.014 331.19 M 296.49 331.446 C 298.57 331.313 299.209 329.762 299.68 328.119 C 301.734 320.955 304.002 313.84 305.742 306.599 C 309.187 292.264 312.385 277.868 315.584 263.475 C 317.164 256.369 317.751 249.339 312.548 243.197 C 310.094 240.3 306.861 238.962 303.275 239.566 C 293.105 241.278 286.513 248.376 282.955 256.981 C 279.265 265.904 275.647 275.048 273.669 284.701 C 271.478 295.39 267.673 305.709 266.209 316.602 C 265.776 319.828 266.781 321.797 269.481 323.014 C 272.918 324.564 276.43 325.843 280.164 326.699 C 285.442 327.909 290.565 329.792 296.49 331.446 M 276.228 392.639 C 279.599 374.786 285.234 357.468 289.089 339.416 C 286.265 338.375 283.626 337.469 281.04 336.43 C 278.269 335.315 276.593 336.184 275.839 339.017 C 274.058 345.711 272.272 352.403 270.498 359.099 C 266.689 373.468 263.075 387.893 259.001 402.186 C 257.048 409.038 255.132 415.861 254.575 422.96 C 254.276 426.763 258.501 431.285 262.156 431.453 C 266.304 431.644 267.93 428.959 268.73 425.397 C 271.125 414.739 273.549 404.087 276.228 392.639 Z"/>
  <path fill="#000000" opacity="1.000000" stroke="none" d="M 284.471 291.837 C 283.726 299.227 283.726 299.227 279.379 299.872 C 277.816 290.483 279.178 281.641 283.522 273.21 C 284.235 271.826 285.013 270.572 286.963 271.555 C 288.637 272.399 288.114 273.593 287.829 274.933 C 286.66 280.42 285.586 285.927 284.471 291.837 Z"/>
</svg>